%TF.GenerationSoftware,KiCad,Pcbnew,(5.1.9-0-10_14)*%
%TF.CreationDate,2021-02-20T22:52:37+09:00*%
%TF.ProjectId,ADAT-IO-x4,41444154-2d49-44f2-9d78-342e6b696361,rev?*%
%TF.SameCoordinates,Original*%
%TF.FileFunction,Soldermask,Bot*%
%TF.FilePolarity,Negative*%
%FSLAX46Y46*%
G04 Gerber Fmt 4.6, Leading zero omitted, Abs format (unit mm)*
G04 Created by KiCad (PCBNEW (5.1.9-0-10_14)) date 2021-02-20 22:52:37*
%MOMM*%
%LPD*%
G01*
G04 APERTURE LIST*
%ADD10C,1.700000*%
%ADD11C,2.000000*%
%ADD12C,1.600000*%
%ADD13R,1.250000X1.500000*%
%ADD14R,3.500000X3.500000*%
%ADD15R,1.700000X1.700000*%
%ADD16O,1.700000X1.700000*%
%ADD17C,3.200000*%
%ADD18C,6.400000*%
%ADD19C,0.800000*%
G04 APERTURE END LIST*
D10*
%TO.C,J7*%
X232410000Y-74930000D03*
X229870000Y-74930000D03*
X227330000Y-74930000D03*
X224790000Y-74930000D03*
X222250000Y-74930000D03*
X219710000Y-74930000D03*
X217170000Y-74930000D03*
X214630000Y-74930000D03*
X212090000Y-74930000D03*
X209550000Y-74930000D03*
X207010000Y-74930000D03*
X204470000Y-74930000D03*
X201930000Y-74930000D03*
X232410000Y-77470000D03*
X229870000Y-77470000D03*
X227330000Y-77470000D03*
X224790000Y-77470000D03*
X222250000Y-77470000D03*
X219710000Y-77470000D03*
X217170000Y-77470000D03*
X214630000Y-77470000D03*
X212090000Y-77470000D03*
X209550000Y-77470000D03*
X207010000Y-77470000D03*
X204470000Y-77470000D03*
G36*
G01*
X202530000Y-78320000D02*
X201330000Y-78320000D01*
G75*
G02*
X201080000Y-78070000I0J250000D01*
G01*
X201080000Y-76870000D01*
G75*
G02*
X201330000Y-76620000I250000J0D01*
G01*
X202530000Y-76620000D01*
G75*
G02*
X202780000Y-76870000I0J-250000D01*
G01*
X202780000Y-78070000D01*
G75*
G02*
X202530000Y-78320000I-250000J0D01*
G01*
G37*
%TD*%
%TO.C,J10*%
X176530000Y-74930000D03*
X173990000Y-74930000D03*
X171450000Y-74930000D03*
X168910000Y-74930000D03*
X166370000Y-74930000D03*
X163830000Y-74930000D03*
X161290000Y-74930000D03*
X158750000Y-74930000D03*
X156210000Y-74930000D03*
X153670000Y-74930000D03*
X151130000Y-74930000D03*
X148590000Y-74930000D03*
X146050000Y-74930000D03*
X176530000Y-77470000D03*
X173990000Y-77470000D03*
X171450000Y-77470000D03*
X168910000Y-77470000D03*
X166370000Y-77470000D03*
X163830000Y-77470000D03*
X161290000Y-77470000D03*
X158750000Y-77470000D03*
X156210000Y-77470000D03*
X153670000Y-77470000D03*
X151130000Y-77470000D03*
X148590000Y-77470000D03*
G36*
G01*
X146650000Y-78320000D02*
X145450000Y-78320000D01*
G75*
G02*
X145200000Y-78070000I0J250000D01*
G01*
X145200000Y-76870000D01*
G75*
G02*
X145450000Y-76620000I250000J0D01*
G01*
X146650000Y-76620000D01*
G75*
G02*
X146900000Y-76870000I0J-250000D01*
G01*
X146900000Y-78070000D01*
G75*
G02*
X146650000Y-78320000I-250000J0D01*
G01*
G37*
%TD*%
D11*
%TO.C,U7*%
X152030000Y-121620000D03*
X157110000Y-121620000D03*
D12*
X152030000Y-119000000D03*
X154570000Y-119000000D03*
X157110000Y-119000000D03*
%TD*%
D11*
%TO.C,U6*%
X163030000Y-121620000D03*
X168110000Y-121620000D03*
D12*
X163030000Y-119000000D03*
X165570000Y-119000000D03*
X168110000Y-119000000D03*
%TD*%
D11*
%TO.C,U5*%
X215138000Y-121620000D03*
X220218000Y-121620000D03*
D12*
X215138000Y-119000000D03*
X217678000Y-119000000D03*
X220218000Y-119000000D03*
%TD*%
D13*
%TO.C,C13*%
X153035000Y-109200000D03*
X153035000Y-106700000D03*
%TD*%
%TO.C,J1*%
G36*
G01*
X202425000Y-120955000D02*
X200675000Y-120955000D01*
G75*
G02*
X199800000Y-120080000I0J875000D01*
G01*
X199800000Y-118330000D01*
G75*
G02*
X200675000Y-117455000I875000J0D01*
G01*
X202425000Y-117455000D01*
G75*
G02*
X203300000Y-118330000I0J-875000D01*
G01*
X203300000Y-120080000D01*
G75*
G02*
X202425000Y-120955000I-875000J0D01*
G01*
G37*
G36*
G01*
X197850000Y-123705000D02*
X195850000Y-123705000D01*
G75*
G02*
X195100000Y-122955000I0J750000D01*
G01*
X195100000Y-121455000D01*
G75*
G02*
X195850000Y-120705000I750000J0D01*
G01*
X197850000Y-120705000D01*
G75*
G02*
X198600000Y-121455000I0J-750000D01*
G01*
X198600000Y-122955000D01*
G75*
G02*
X197850000Y-123705000I-750000J0D01*
G01*
G37*
D14*
X196850000Y-116205000D03*
%TD*%
%TO.C,J2*%
X184150000Y-116205000D03*
G36*
G01*
X185150000Y-123705000D02*
X183150000Y-123705000D01*
G75*
G02*
X182400000Y-122955000I0J750000D01*
G01*
X182400000Y-121455000D01*
G75*
G02*
X183150000Y-120705000I750000J0D01*
G01*
X185150000Y-120705000D01*
G75*
G02*
X185900000Y-121455000I0J-750000D01*
G01*
X185900000Y-122955000D01*
G75*
G02*
X185150000Y-123705000I-750000J0D01*
G01*
G37*
G36*
G01*
X189725000Y-120955000D02*
X187975000Y-120955000D01*
G75*
G02*
X187100000Y-120080000I0J875000D01*
G01*
X187100000Y-118330000D01*
G75*
G02*
X187975000Y-117455000I875000J0D01*
G01*
X189725000Y-117455000D01*
G75*
G02*
X190600000Y-118330000I0J-875000D01*
G01*
X190600000Y-120080000D01*
G75*
G02*
X189725000Y-120955000I-875000J0D01*
G01*
G37*
%TD*%
%TO.C,J3*%
G36*
G01*
X205070000Y-58000000D02*
X203870000Y-58000000D01*
G75*
G02*
X203620000Y-57750000I0J250000D01*
G01*
X203620000Y-56550000D01*
G75*
G02*
X203870000Y-56300000I250000J0D01*
G01*
X205070000Y-56300000D01*
G75*
G02*
X205320000Y-56550000I0J-250000D01*
G01*
X205320000Y-57750000D01*
G75*
G02*
X205070000Y-58000000I-250000J0D01*
G01*
G37*
D10*
X207010000Y-57150000D03*
X209550000Y-57150000D03*
X212090000Y-57150000D03*
X214630000Y-57150000D03*
X217170000Y-57150000D03*
X219710000Y-57150000D03*
X222250000Y-57150000D03*
X204470000Y-54610000D03*
X207010000Y-54610000D03*
X209550000Y-54610000D03*
X212090000Y-54610000D03*
X214630000Y-54610000D03*
X217170000Y-54610000D03*
X219710000Y-54610000D03*
X222250000Y-54610000D03*
%TD*%
%TO.C,J4*%
G36*
G01*
X205070000Y-68160000D02*
X203870000Y-68160000D01*
G75*
G02*
X203620000Y-67910000I0J250000D01*
G01*
X203620000Y-66710000D01*
G75*
G02*
X203870000Y-66460000I250000J0D01*
G01*
X205070000Y-66460000D01*
G75*
G02*
X205320000Y-66710000I0J-250000D01*
G01*
X205320000Y-67910000D01*
G75*
G02*
X205070000Y-68160000I-250000J0D01*
G01*
G37*
X207010000Y-67310000D03*
X209550000Y-67310000D03*
X212090000Y-67310000D03*
X214630000Y-67310000D03*
X217170000Y-67310000D03*
X219710000Y-67310000D03*
X222250000Y-67310000D03*
X204470000Y-64770000D03*
X207010000Y-64770000D03*
X209550000Y-64770000D03*
X212090000Y-64770000D03*
X214630000Y-64770000D03*
X217170000Y-64770000D03*
X219710000Y-64770000D03*
X222250000Y-64770000D03*
%TD*%
%TO.C,J5*%
X222250000Y-34290000D03*
X219710000Y-34290000D03*
X217170000Y-34290000D03*
X214630000Y-34290000D03*
X212090000Y-34290000D03*
X209550000Y-34290000D03*
X207010000Y-34290000D03*
X204470000Y-34290000D03*
X222250000Y-36830000D03*
X219710000Y-36830000D03*
X217170000Y-36830000D03*
X214630000Y-36830000D03*
X212090000Y-36830000D03*
X209550000Y-36830000D03*
X207010000Y-36830000D03*
G36*
G01*
X205070000Y-37680000D02*
X203870000Y-37680000D01*
G75*
G02*
X203620000Y-37430000I0J250000D01*
G01*
X203620000Y-36230000D01*
G75*
G02*
X203870000Y-35980000I250000J0D01*
G01*
X205070000Y-35980000D01*
G75*
G02*
X205320000Y-36230000I0J-250000D01*
G01*
X205320000Y-37430000D01*
G75*
G02*
X205070000Y-37680000I-250000J0D01*
G01*
G37*
%TD*%
%TO.C,J6*%
X222250000Y-44450000D03*
X219710000Y-44450000D03*
X217170000Y-44450000D03*
X214630000Y-44450000D03*
X212090000Y-44450000D03*
X209550000Y-44450000D03*
X207010000Y-44450000D03*
X204470000Y-44450000D03*
X222250000Y-46990000D03*
X219710000Y-46990000D03*
X217170000Y-46990000D03*
X214630000Y-46990000D03*
X212090000Y-46990000D03*
X209550000Y-46990000D03*
X207010000Y-46990000D03*
G36*
G01*
X205070000Y-47840000D02*
X203870000Y-47840000D01*
G75*
G02*
X203620000Y-47590000I0J250000D01*
G01*
X203620000Y-46390000D01*
G75*
G02*
X203870000Y-46140000I250000J0D01*
G01*
X205070000Y-46140000D01*
G75*
G02*
X205320000Y-46390000I0J-250000D01*
G01*
X205320000Y-47590000D01*
G75*
G02*
X205070000Y-47840000I-250000J0D01*
G01*
G37*
%TD*%
%TO.C,J8*%
G36*
G01*
X202530000Y-89115000D02*
X201330000Y-89115000D01*
G75*
G02*
X201080000Y-88865000I0J250000D01*
G01*
X201080000Y-87665000D01*
G75*
G02*
X201330000Y-87415000I250000J0D01*
G01*
X202530000Y-87415000D01*
G75*
G02*
X202780000Y-87665000I0J-250000D01*
G01*
X202780000Y-88865000D01*
G75*
G02*
X202530000Y-89115000I-250000J0D01*
G01*
G37*
X204470000Y-88265000D03*
X207010000Y-88265000D03*
X209550000Y-88265000D03*
X212090000Y-88265000D03*
X214630000Y-88265000D03*
X217170000Y-88265000D03*
X219710000Y-88265000D03*
X222250000Y-88265000D03*
X224790000Y-88265000D03*
X201930000Y-85725000D03*
X204470000Y-85725000D03*
X207010000Y-85725000D03*
X209550000Y-85725000D03*
X212090000Y-85725000D03*
X214630000Y-85725000D03*
X217170000Y-85725000D03*
X219710000Y-85725000D03*
X222250000Y-85725000D03*
X224790000Y-85725000D03*
%TD*%
D15*
%TO.C,J9*%
X228600000Y-127000000D03*
D16*
X226060000Y-127000000D03*
%TD*%
D10*
%TO.C,J11*%
X168910000Y-85725000D03*
X166370000Y-85725000D03*
X163830000Y-85725000D03*
X161290000Y-85725000D03*
X158750000Y-85725000D03*
X156210000Y-85725000D03*
X153670000Y-85725000D03*
X151130000Y-85725000D03*
X148590000Y-85725000D03*
X146050000Y-85725000D03*
X168910000Y-88265000D03*
X166370000Y-88265000D03*
X163830000Y-88265000D03*
X161290000Y-88265000D03*
X158750000Y-88265000D03*
X156210000Y-88265000D03*
X153670000Y-88265000D03*
X151130000Y-88265000D03*
X148590000Y-88265000D03*
G36*
G01*
X146650000Y-89115000D02*
X145450000Y-89115000D01*
G75*
G02*
X145200000Y-88865000I0J250000D01*
G01*
X145200000Y-87665000D01*
G75*
G02*
X145450000Y-87415000I250000J0D01*
G01*
X146650000Y-87415000D01*
G75*
G02*
X146900000Y-87665000I0J-250000D01*
G01*
X146900000Y-88865000D01*
G75*
G02*
X146650000Y-89115000I-250000J0D01*
G01*
G37*
%TD*%
%TO.C,J12*%
X171875000Y-64770000D03*
X169335000Y-64770000D03*
X166795000Y-64770000D03*
X164255000Y-64770000D03*
X161715000Y-64770000D03*
X159175000Y-64770000D03*
X156635000Y-64770000D03*
X154095000Y-64770000D03*
X171875000Y-67310000D03*
X169335000Y-67310000D03*
X166795000Y-67310000D03*
X164255000Y-67310000D03*
X161715000Y-67310000D03*
X159175000Y-67310000D03*
X156635000Y-67310000D03*
G36*
G01*
X154695000Y-68160000D02*
X153495000Y-68160000D01*
G75*
G02*
X153245000Y-67910000I0J250000D01*
G01*
X153245000Y-66710000D01*
G75*
G02*
X153495000Y-66460000I250000J0D01*
G01*
X154695000Y-66460000D01*
G75*
G02*
X154945000Y-66710000I0J-250000D01*
G01*
X154945000Y-67910000D01*
G75*
G02*
X154695000Y-68160000I-250000J0D01*
G01*
G37*
%TD*%
%TO.C,J13*%
G36*
G01*
X154695000Y-58000000D02*
X153495000Y-58000000D01*
G75*
G02*
X153245000Y-57750000I0J250000D01*
G01*
X153245000Y-56550000D01*
G75*
G02*
X153495000Y-56300000I250000J0D01*
G01*
X154695000Y-56300000D01*
G75*
G02*
X154945000Y-56550000I0J-250000D01*
G01*
X154945000Y-57750000D01*
G75*
G02*
X154695000Y-58000000I-250000J0D01*
G01*
G37*
X156635000Y-57150000D03*
X159175000Y-57150000D03*
X161715000Y-57150000D03*
X164255000Y-57150000D03*
X166795000Y-57150000D03*
X169335000Y-57150000D03*
X171875000Y-57150000D03*
X154095000Y-54610000D03*
X156635000Y-54610000D03*
X159175000Y-54610000D03*
X161715000Y-54610000D03*
X164255000Y-54610000D03*
X166795000Y-54610000D03*
X169335000Y-54610000D03*
X171875000Y-54610000D03*
%TD*%
%TO.C,J14*%
X171875000Y-44450000D03*
X169335000Y-44450000D03*
X166795000Y-44450000D03*
X164255000Y-44450000D03*
X161715000Y-44450000D03*
X159175000Y-44450000D03*
X156635000Y-44450000D03*
X154095000Y-44450000D03*
X171875000Y-46990000D03*
X169335000Y-46990000D03*
X166795000Y-46990000D03*
X164255000Y-46990000D03*
X161715000Y-46990000D03*
X159175000Y-46990000D03*
X156635000Y-46990000D03*
G36*
G01*
X154695000Y-47840000D02*
X153495000Y-47840000D01*
G75*
G02*
X153245000Y-47590000I0J250000D01*
G01*
X153245000Y-46390000D01*
G75*
G02*
X153495000Y-46140000I250000J0D01*
G01*
X154695000Y-46140000D01*
G75*
G02*
X154945000Y-46390000I0J-250000D01*
G01*
X154945000Y-47590000D01*
G75*
G02*
X154695000Y-47840000I-250000J0D01*
G01*
G37*
%TD*%
%TO.C,J15*%
G36*
G01*
X154695000Y-37680000D02*
X153495000Y-37680000D01*
G75*
G02*
X153245000Y-37430000I0J250000D01*
G01*
X153245000Y-36230000D01*
G75*
G02*
X153495000Y-35980000I250000J0D01*
G01*
X154695000Y-35980000D01*
G75*
G02*
X154945000Y-36230000I0J-250000D01*
G01*
X154945000Y-37430000D01*
G75*
G02*
X154695000Y-37680000I-250000J0D01*
G01*
G37*
X156635000Y-36830000D03*
X159175000Y-36830000D03*
X161715000Y-36830000D03*
X164255000Y-36830000D03*
X166795000Y-36830000D03*
X169335000Y-36830000D03*
X171875000Y-36830000D03*
X154095000Y-34290000D03*
X156635000Y-34290000D03*
X159175000Y-34290000D03*
X161715000Y-34290000D03*
X164255000Y-34290000D03*
X166795000Y-34290000D03*
X169335000Y-34290000D03*
X171875000Y-34290000D03*
%TD*%
D17*
%TO.C,H1*%
X144000000Y-34000000D03*
%TD*%
%TO.C,H2*%
X143992600Y-119913400D03*
%TD*%
%TO.C,H3*%
X187000000Y-34000000D03*
%TD*%
D18*
%TO.C,H4*%
X197000000Y-110000000D03*
D19*
X199400000Y-110000000D03*
X198697056Y-111697056D03*
X197000000Y-112400000D03*
X195302944Y-111697056D03*
X194600000Y-110000000D03*
X195302944Y-108302944D03*
X197000000Y-107600000D03*
X198697056Y-108302944D03*
%TD*%
D17*
%TO.C,H5*%
X236000000Y-34000000D03*
%TD*%
%TO.C,H6*%
X236000000Y-123000000D03*
%TD*%
%TO.C,H7*%
X195000000Y-34000000D03*
%TD*%
D19*
%TO.C,H8*%
X188691856Y-105287744D03*
X186994800Y-104584800D03*
X185297744Y-105287744D03*
X184594800Y-106984800D03*
X185297744Y-108681856D03*
X186994800Y-109384800D03*
X188691856Y-108681856D03*
X189394800Y-106984800D03*
D18*
X186994800Y-106984800D03*
%TD*%
M02*
