G04 #@! TF.GenerationSoftware,KiCad,Pcbnew,(5.1.9-0-10_14)*
G04 #@! TF.CreationDate,2021-08-01T14:36:09+09:00*
G04 #@! TF.ProjectId,ADAT-IO-x4,41444154-2d49-44f2-9d78-342e6b696361,rev?*
G04 #@! TF.SameCoordinates,Original*
G04 #@! TF.FileFunction,Soldermask,Top*
G04 #@! TF.FilePolarity,Negative*
%FSLAX46Y46*%
G04 Gerber Fmt 4.6, Leading zero omitted, Abs format (unit mm)*
G04 Created by KiCad (PCBNEW (5.1.9-0-10_14)) date 2021-08-01 14:36:09*
%MOMM*%
%LPD*%
G01*
G04 APERTURE LIST*
%ADD10C,1.700000*%
%ADD11C,2.000000*%
%ADD12C,1.600000*%
%ADD13R,1.500000X1.300000*%
%ADD14R,1.500000X1.250000*%
%ADD15R,1.250000X1.500000*%
%ADD16R,0.900000X1.200000*%
%ADD17R,3.500000X3.500000*%
%ADD18R,1.700000X1.700000*%
%ADD19O,1.700000X1.700000*%
%ADD20R,0.800000X0.900000*%
%ADD21R,1.300000X1.500000*%
%ADD22R,3.800000X2.200000*%
%ADD23R,1.500000X2.200000*%
%ADD24R,1.500000X0.600000*%
%ADD25C,3.200000*%
%ADD26C,6.400000*%
%ADD27C,0.800000*%
G04 APERTURE END LIST*
G36*
G01*
X143180000Y-106380000D02*
X143180000Y-106980000D01*
G75*
G02*
X143110000Y-107050000I-70000J0D01*
G01*
X141810000Y-107050000D01*
G75*
G02*
X141740000Y-106980000I0J70000D01*
G01*
X141740000Y-106380000D01*
G75*
G02*
X141810000Y-106310000I70000J0D01*
G01*
X143110000Y-106310000D01*
G75*
G02*
X143180000Y-106380000I0J-70000D01*
G01*
G37*
G36*
G01*
X145280000Y-105430000D02*
X145280000Y-106030000D01*
G75*
G02*
X145210000Y-106100000I-70000J0D01*
G01*
X143910000Y-106100000D01*
G75*
G02*
X143840000Y-106030000I0J70000D01*
G01*
X143840000Y-105430000D01*
G75*
G02*
X143910000Y-105360000I70000J0D01*
G01*
X145210000Y-105360000D01*
G75*
G02*
X145280000Y-105430000I0J-70000D01*
G01*
G37*
G36*
G01*
X145280000Y-107330000D02*
X145280000Y-107930000D01*
G75*
G02*
X145210000Y-108000000I-70000J0D01*
G01*
X143910000Y-108000000D01*
G75*
G02*
X143840000Y-107930000I0J70000D01*
G01*
X143840000Y-107330000D01*
G75*
G02*
X143910000Y-107260000I70000J0D01*
G01*
X145210000Y-107260000D01*
G75*
G02*
X145280000Y-107330000I0J-70000D01*
G01*
G37*
D10*
X232410000Y-74930000D03*
X229870000Y-74930000D03*
X227330000Y-74930000D03*
X224790000Y-74930000D03*
X222250000Y-74930000D03*
X219710000Y-74930000D03*
X217170000Y-74930000D03*
X214630000Y-74930000D03*
X212090000Y-74930000D03*
X209550000Y-74930000D03*
X207010000Y-74930000D03*
X204470000Y-74930000D03*
X201930000Y-74930000D03*
X232410000Y-77470000D03*
X229870000Y-77470000D03*
X227330000Y-77470000D03*
X224790000Y-77470000D03*
X222250000Y-77470000D03*
X219710000Y-77470000D03*
X217170000Y-77470000D03*
X214630000Y-77470000D03*
X212090000Y-77470000D03*
X209550000Y-77470000D03*
X207010000Y-77470000D03*
X204470000Y-77470000D03*
G36*
G01*
X202530000Y-78320000D02*
X201330000Y-78320000D01*
G75*
G02*
X201080000Y-78070000I0J250000D01*
G01*
X201080000Y-76870000D01*
G75*
G02*
X201330000Y-76620000I250000J0D01*
G01*
X202530000Y-76620000D01*
G75*
G02*
X202780000Y-76870000I0J-250000D01*
G01*
X202780000Y-78070000D01*
G75*
G02*
X202530000Y-78320000I-250000J0D01*
G01*
G37*
X176530000Y-74930000D03*
X173990000Y-74930000D03*
X171450000Y-74930000D03*
X168910000Y-74930000D03*
X166370000Y-74930000D03*
X163830000Y-74930000D03*
X161290000Y-74930000D03*
X158750000Y-74930000D03*
X156210000Y-74930000D03*
X153670000Y-74930000D03*
X151130000Y-74930000D03*
X148590000Y-74930000D03*
X146050000Y-74930000D03*
X176530000Y-77470000D03*
X173990000Y-77470000D03*
X171450000Y-77470000D03*
X168910000Y-77470000D03*
X166370000Y-77470000D03*
X163830000Y-77470000D03*
X161290000Y-77470000D03*
X158750000Y-77470000D03*
X156210000Y-77470000D03*
X153670000Y-77470000D03*
X151130000Y-77470000D03*
X148590000Y-77470000D03*
G36*
G01*
X146650000Y-78320000D02*
X145450000Y-78320000D01*
G75*
G02*
X145200000Y-78070000I0J250000D01*
G01*
X145200000Y-76870000D01*
G75*
G02*
X145450000Y-76620000I250000J0D01*
G01*
X146650000Y-76620000D01*
G75*
G02*
X146900000Y-76870000I0J-250000D01*
G01*
X146900000Y-78070000D01*
G75*
G02*
X146650000Y-78320000I-250000J0D01*
G01*
G37*
D11*
X152030000Y-121620000D03*
X157110000Y-121620000D03*
D12*
X152030000Y-119000000D03*
X154570000Y-119000000D03*
X157110000Y-119000000D03*
D11*
X163030000Y-121620000D03*
X168110000Y-121620000D03*
D12*
X163030000Y-119000000D03*
X165570000Y-119000000D03*
X168110000Y-119000000D03*
D11*
X215138000Y-121620000D03*
X220218000Y-121620000D03*
D12*
X215138000Y-119000000D03*
X217678000Y-119000000D03*
X220218000Y-119000000D03*
D13*
X158195000Y-114935000D03*
X155495000Y-114935000D03*
D14*
X205125000Y-109855000D03*
X207625000Y-109855000D03*
D15*
X146050000Y-64790000D03*
X146050000Y-67290000D03*
X147142200Y-51821400D03*
X147142200Y-49321400D03*
D14*
X147935000Y-114935000D03*
X145435000Y-114935000D03*
D15*
X185420000Y-99080000D03*
X185420000Y-101580000D03*
D14*
X160040000Y-111760000D03*
X162540000Y-111760000D03*
X153015000Y-114935000D03*
X150515000Y-114935000D03*
X219690000Y-114300000D03*
X217190000Y-114300000D03*
X200894000Y-103251000D03*
X198394000Y-103251000D03*
X234828400Y-105664000D03*
X232328400Y-105664000D03*
X205125000Y-112395000D03*
X207625000Y-112395000D03*
X167660000Y-114935000D03*
X170160000Y-114935000D03*
D15*
X205105000Y-117455000D03*
X205105000Y-114955000D03*
D14*
X162580000Y-114935000D03*
X165080000Y-114935000D03*
G36*
G01*
X175610000Y-128507500D02*
X175610000Y-128032500D01*
G75*
G02*
X175847500Y-127795000I237500J0D01*
G01*
X176422500Y-127795000D01*
G75*
G02*
X176660000Y-128032500I0J-237500D01*
G01*
X176660000Y-128507500D01*
G75*
G02*
X176422500Y-128745000I-237500J0D01*
G01*
X175847500Y-128745000D01*
G75*
G02*
X175610000Y-128507500I0J237500D01*
G01*
G37*
G36*
G01*
X173860000Y-128507500D02*
X173860000Y-128032500D01*
G75*
G02*
X174097500Y-127795000I237500J0D01*
G01*
X174672500Y-127795000D01*
G75*
G02*
X174910000Y-128032500I0J-237500D01*
G01*
X174910000Y-128507500D01*
G75*
G02*
X174672500Y-128745000I-237500J0D01*
G01*
X174097500Y-128745000D01*
G75*
G02*
X173860000Y-128507500I0J237500D01*
G01*
G37*
G36*
G01*
X234030000Y-128507500D02*
X234030000Y-128032500D01*
G75*
G02*
X234267500Y-127795000I237500J0D01*
G01*
X234842500Y-127795000D01*
G75*
G02*
X235080000Y-128032500I0J-237500D01*
G01*
X235080000Y-128507500D01*
G75*
G02*
X234842500Y-128745000I-237500J0D01*
G01*
X234267500Y-128745000D01*
G75*
G02*
X234030000Y-128507500I0J237500D01*
G01*
G37*
G36*
G01*
X232280000Y-128507500D02*
X232280000Y-128032500D01*
G75*
G02*
X232517500Y-127795000I237500J0D01*
G01*
X233092500Y-127795000D01*
G75*
G02*
X233330000Y-128032500I0J-237500D01*
G01*
X233330000Y-128507500D01*
G75*
G02*
X233092500Y-128745000I-237500J0D01*
G01*
X232517500Y-128745000D01*
G75*
G02*
X232280000Y-128507500I0J237500D01*
G01*
G37*
D16*
X235330000Y-95250000D03*
X232030000Y-95250000D03*
G36*
G01*
X140840000Y-128507500D02*
X140840000Y-128032500D01*
G75*
G02*
X141077500Y-127795000I237500J0D01*
G01*
X141652500Y-127795000D01*
G75*
G02*
X141890000Y-128032500I0J-237500D01*
G01*
X141890000Y-128507500D01*
G75*
G02*
X141652500Y-128745000I-237500J0D01*
G01*
X141077500Y-128745000D01*
G75*
G02*
X140840000Y-128507500I0J237500D01*
G01*
G37*
G36*
G01*
X142590000Y-128507500D02*
X142590000Y-128032500D01*
G75*
G02*
X142827500Y-127795000I237500J0D01*
G01*
X143402500Y-127795000D01*
G75*
G02*
X143640000Y-128032500I0J-237500D01*
G01*
X143640000Y-128507500D01*
G75*
G02*
X143402500Y-128745000I-237500J0D01*
G01*
X142827500Y-128745000D01*
G75*
G02*
X142590000Y-128507500I0J237500D01*
G01*
G37*
G36*
G01*
X145285000Y-128507500D02*
X145285000Y-128032500D01*
G75*
G02*
X145522500Y-127795000I237500J0D01*
G01*
X146097500Y-127795000D01*
G75*
G02*
X146335000Y-128032500I0J-237500D01*
G01*
X146335000Y-128507500D01*
G75*
G02*
X146097500Y-128745000I-237500J0D01*
G01*
X145522500Y-128745000D01*
G75*
G02*
X145285000Y-128507500I0J237500D01*
G01*
G37*
G36*
G01*
X147035000Y-128507500D02*
X147035000Y-128032500D01*
G75*
G02*
X147272500Y-127795000I237500J0D01*
G01*
X147847500Y-127795000D01*
G75*
G02*
X148085000Y-128032500I0J-237500D01*
G01*
X148085000Y-128507500D01*
G75*
G02*
X147847500Y-128745000I-237500J0D01*
G01*
X147272500Y-128745000D01*
G75*
G02*
X147035000Y-128507500I0J237500D01*
G01*
G37*
G36*
G01*
X202425000Y-120955000D02*
X200675000Y-120955000D01*
G75*
G02*
X199800000Y-120080000I0J875000D01*
G01*
X199800000Y-118330000D01*
G75*
G02*
X200675000Y-117455000I875000J0D01*
G01*
X202425000Y-117455000D01*
G75*
G02*
X203300000Y-118330000I0J-875000D01*
G01*
X203300000Y-120080000D01*
G75*
G02*
X202425000Y-120955000I-875000J0D01*
G01*
G37*
G36*
G01*
X197850000Y-123705000D02*
X195850000Y-123705000D01*
G75*
G02*
X195100000Y-122955000I0J750000D01*
G01*
X195100000Y-121455000D01*
G75*
G02*
X195850000Y-120705000I750000J0D01*
G01*
X197850000Y-120705000D01*
G75*
G02*
X198600000Y-121455000I0J-750000D01*
G01*
X198600000Y-122955000D01*
G75*
G02*
X197850000Y-123705000I-750000J0D01*
G01*
G37*
D17*
X196850000Y-116205000D03*
X184150000Y-116205000D03*
G36*
G01*
X185150000Y-123705000D02*
X183150000Y-123705000D01*
G75*
G02*
X182400000Y-122955000I0J750000D01*
G01*
X182400000Y-121455000D01*
G75*
G02*
X183150000Y-120705000I750000J0D01*
G01*
X185150000Y-120705000D01*
G75*
G02*
X185900000Y-121455000I0J-750000D01*
G01*
X185900000Y-122955000D01*
G75*
G02*
X185150000Y-123705000I-750000J0D01*
G01*
G37*
G36*
G01*
X189725000Y-120955000D02*
X187975000Y-120955000D01*
G75*
G02*
X187100000Y-120080000I0J875000D01*
G01*
X187100000Y-118330000D01*
G75*
G02*
X187975000Y-117455000I875000J0D01*
G01*
X189725000Y-117455000D01*
G75*
G02*
X190600000Y-118330000I0J-875000D01*
G01*
X190600000Y-120080000D01*
G75*
G02*
X189725000Y-120955000I-875000J0D01*
G01*
G37*
G36*
G01*
X205070000Y-58000000D02*
X203870000Y-58000000D01*
G75*
G02*
X203620000Y-57750000I0J250000D01*
G01*
X203620000Y-56550000D01*
G75*
G02*
X203870000Y-56300000I250000J0D01*
G01*
X205070000Y-56300000D01*
G75*
G02*
X205320000Y-56550000I0J-250000D01*
G01*
X205320000Y-57750000D01*
G75*
G02*
X205070000Y-58000000I-250000J0D01*
G01*
G37*
D10*
X207010000Y-57150000D03*
X209550000Y-57150000D03*
X212090000Y-57150000D03*
X214630000Y-57150000D03*
X217170000Y-57150000D03*
X219710000Y-57150000D03*
X222250000Y-57150000D03*
X204470000Y-54610000D03*
X207010000Y-54610000D03*
X209550000Y-54610000D03*
X212090000Y-54610000D03*
X214630000Y-54610000D03*
X217170000Y-54610000D03*
X219710000Y-54610000D03*
X222250000Y-54610000D03*
G36*
G01*
X205070000Y-68160000D02*
X203870000Y-68160000D01*
G75*
G02*
X203620000Y-67910000I0J250000D01*
G01*
X203620000Y-66710000D01*
G75*
G02*
X203870000Y-66460000I250000J0D01*
G01*
X205070000Y-66460000D01*
G75*
G02*
X205320000Y-66710000I0J-250000D01*
G01*
X205320000Y-67910000D01*
G75*
G02*
X205070000Y-68160000I-250000J0D01*
G01*
G37*
X207010000Y-67310000D03*
X209550000Y-67310000D03*
X212090000Y-67310000D03*
X214630000Y-67310000D03*
X217170000Y-67310000D03*
X219710000Y-67310000D03*
X222250000Y-67310000D03*
X204470000Y-64770000D03*
X207010000Y-64770000D03*
X209550000Y-64770000D03*
X212090000Y-64770000D03*
X214630000Y-64770000D03*
X217170000Y-64770000D03*
X219710000Y-64770000D03*
X222250000Y-64770000D03*
X222250000Y-34290000D03*
X219710000Y-34290000D03*
X217170000Y-34290000D03*
X214630000Y-34290000D03*
X212090000Y-34290000D03*
X209550000Y-34290000D03*
X207010000Y-34290000D03*
X204470000Y-34290000D03*
X222250000Y-36830000D03*
X219710000Y-36830000D03*
X217170000Y-36830000D03*
X214630000Y-36830000D03*
X212090000Y-36830000D03*
X209550000Y-36830000D03*
X207010000Y-36830000D03*
G36*
G01*
X205070000Y-37680000D02*
X203870000Y-37680000D01*
G75*
G02*
X203620000Y-37430000I0J250000D01*
G01*
X203620000Y-36230000D01*
G75*
G02*
X203870000Y-35980000I250000J0D01*
G01*
X205070000Y-35980000D01*
G75*
G02*
X205320000Y-36230000I0J-250000D01*
G01*
X205320000Y-37430000D01*
G75*
G02*
X205070000Y-37680000I-250000J0D01*
G01*
G37*
X222250000Y-44450000D03*
X219710000Y-44450000D03*
X217170000Y-44450000D03*
X214630000Y-44450000D03*
X212090000Y-44450000D03*
X209550000Y-44450000D03*
X207010000Y-44450000D03*
X204470000Y-44450000D03*
X222250000Y-46990000D03*
X219710000Y-46990000D03*
X217170000Y-46990000D03*
X214630000Y-46990000D03*
X212090000Y-46990000D03*
X209550000Y-46990000D03*
X207010000Y-46990000D03*
G36*
G01*
X205070000Y-47840000D02*
X203870000Y-47840000D01*
G75*
G02*
X203620000Y-47590000I0J250000D01*
G01*
X203620000Y-46390000D01*
G75*
G02*
X203870000Y-46140000I250000J0D01*
G01*
X205070000Y-46140000D01*
G75*
G02*
X205320000Y-46390000I0J-250000D01*
G01*
X205320000Y-47590000D01*
G75*
G02*
X205070000Y-47840000I-250000J0D01*
G01*
G37*
G36*
G01*
X202540160Y-89117540D02*
X201340160Y-89117540D01*
G75*
G02*
X201090160Y-88867540I0J250000D01*
G01*
X201090160Y-87667540D01*
G75*
G02*
X201340160Y-87417540I250000J0D01*
G01*
X202540160Y-87417540D01*
G75*
G02*
X202790160Y-87667540I0J-250000D01*
G01*
X202790160Y-88867540D01*
G75*
G02*
X202540160Y-89117540I-250000J0D01*
G01*
G37*
X204480160Y-88267540D03*
X207020160Y-88267540D03*
X209560160Y-88267540D03*
X212100160Y-88267540D03*
X214640160Y-88267540D03*
X217180160Y-88267540D03*
X219720160Y-88267540D03*
X222260160Y-88267540D03*
X224800160Y-88267540D03*
X201940160Y-85727540D03*
X204480160Y-85727540D03*
X207020160Y-85727540D03*
X209560160Y-85727540D03*
X212100160Y-85727540D03*
X214640160Y-85727540D03*
X217180160Y-85727540D03*
X219720160Y-85727540D03*
X222260160Y-85727540D03*
X224800160Y-85727540D03*
D18*
X228600000Y-127000000D03*
D19*
X226060000Y-127000000D03*
D10*
X168910000Y-85725000D03*
X166370000Y-85725000D03*
X163830000Y-85725000D03*
X161290000Y-85725000D03*
X158750000Y-85725000D03*
X156210000Y-85725000D03*
X153670000Y-85725000D03*
X151130000Y-85725000D03*
X148590000Y-85725000D03*
X146050000Y-85725000D03*
X168910000Y-88265000D03*
X166370000Y-88265000D03*
X163830000Y-88265000D03*
X161290000Y-88265000D03*
X158750000Y-88265000D03*
X156210000Y-88265000D03*
X153670000Y-88265000D03*
X151130000Y-88265000D03*
X148590000Y-88265000D03*
G36*
G01*
X146650000Y-89115000D02*
X145450000Y-89115000D01*
G75*
G02*
X145200000Y-88865000I0J250000D01*
G01*
X145200000Y-87665000D01*
G75*
G02*
X145450000Y-87415000I250000J0D01*
G01*
X146650000Y-87415000D01*
G75*
G02*
X146900000Y-87665000I0J-250000D01*
G01*
X146900000Y-88865000D01*
G75*
G02*
X146650000Y-89115000I-250000J0D01*
G01*
G37*
X171875000Y-64770000D03*
X169335000Y-64770000D03*
X166795000Y-64770000D03*
X164255000Y-64770000D03*
X161715000Y-64770000D03*
X159175000Y-64770000D03*
X156635000Y-64770000D03*
X154095000Y-64770000D03*
X171875000Y-67310000D03*
X169335000Y-67310000D03*
X166795000Y-67310000D03*
X164255000Y-67310000D03*
X161715000Y-67310000D03*
X159175000Y-67310000D03*
X156635000Y-67310000D03*
G36*
G01*
X154695000Y-68160000D02*
X153495000Y-68160000D01*
G75*
G02*
X153245000Y-67910000I0J250000D01*
G01*
X153245000Y-66710000D01*
G75*
G02*
X153495000Y-66460000I250000J0D01*
G01*
X154695000Y-66460000D01*
G75*
G02*
X154945000Y-66710000I0J-250000D01*
G01*
X154945000Y-67910000D01*
G75*
G02*
X154695000Y-68160000I-250000J0D01*
G01*
G37*
G36*
G01*
X154695000Y-58000000D02*
X153495000Y-58000000D01*
G75*
G02*
X153245000Y-57750000I0J250000D01*
G01*
X153245000Y-56550000D01*
G75*
G02*
X153495000Y-56300000I250000J0D01*
G01*
X154695000Y-56300000D01*
G75*
G02*
X154945000Y-56550000I0J-250000D01*
G01*
X154945000Y-57750000D01*
G75*
G02*
X154695000Y-58000000I-250000J0D01*
G01*
G37*
X156635000Y-57150000D03*
X159175000Y-57150000D03*
X161715000Y-57150000D03*
X164255000Y-57150000D03*
X166795000Y-57150000D03*
X169335000Y-57150000D03*
X171875000Y-57150000D03*
X154095000Y-54610000D03*
X156635000Y-54610000D03*
X159175000Y-54610000D03*
X161715000Y-54610000D03*
X164255000Y-54610000D03*
X166795000Y-54610000D03*
X169335000Y-54610000D03*
X171875000Y-54610000D03*
X171875000Y-44450000D03*
X169335000Y-44450000D03*
X166795000Y-44450000D03*
X164255000Y-44450000D03*
X161715000Y-44450000D03*
X159175000Y-44450000D03*
X156635000Y-44450000D03*
X154095000Y-44450000D03*
X171875000Y-46990000D03*
X169335000Y-46990000D03*
X166795000Y-46990000D03*
X164255000Y-46990000D03*
X161715000Y-46990000D03*
X159175000Y-46990000D03*
X156635000Y-46990000D03*
G36*
G01*
X154695000Y-47840000D02*
X153495000Y-47840000D01*
G75*
G02*
X153245000Y-47590000I0J250000D01*
G01*
X153245000Y-46390000D01*
G75*
G02*
X153495000Y-46140000I250000J0D01*
G01*
X154695000Y-46140000D01*
G75*
G02*
X154945000Y-46390000I0J-250000D01*
G01*
X154945000Y-47590000D01*
G75*
G02*
X154695000Y-47840000I-250000J0D01*
G01*
G37*
G36*
G01*
X154695000Y-37680000D02*
X153495000Y-37680000D01*
G75*
G02*
X153245000Y-37430000I0J250000D01*
G01*
X153245000Y-36230000D01*
G75*
G02*
X153495000Y-35980000I250000J0D01*
G01*
X154695000Y-35980000D01*
G75*
G02*
X154945000Y-36230000I0J-250000D01*
G01*
X154945000Y-37430000D01*
G75*
G02*
X154695000Y-37680000I-250000J0D01*
G01*
G37*
X156635000Y-36830000D03*
X159175000Y-36830000D03*
X161715000Y-36830000D03*
X164255000Y-36830000D03*
X166795000Y-36830000D03*
X169335000Y-36830000D03*
X171875000Y-36830000D03*
X154095000Y-34290000D03*
X156635000Y-34290000D03*
X159175000Y-34290000D03*
X161715000Y-34290000D03*
X164255000Y-34290000D03*
X166795000Y-34290000D03*
X169335000Y-34290000D03*
X171875000Y-34290000D03*
D20*
X206060000Y-104505000D03*
X207960000Y-104505000D03*
X207010000Y-102505000D03*
D13*
X192485000Y-113030000D03*
X189785000Y-113030000D03*
X189785000Y-99000000D03*
X192485000Y-99000000D03*
X184070000Y-112395000D03*
X186770000Y-112395000D03*
X213440000Y-114300000D03*
X210740000Y-114300000D03*
X178990000Y-112395000D03*
X181690000Y-112395000D03*
X210265000Y-117475000D03*
X207565000Y-117475000D03*
X176610000Y-125730000D03*
X173910000Y-125730000D03*
X226043500Y-121805700D03*
X228743500Y-121805700D03*
D21*
X196850000Y-59610000D03*
X196850000Y-62310000D03*
X229870000Y-61040000D03*
X229870000Y-58340000D03*
X196215000Y-67230000D03*
X196215000Y-69930000D03*
X229870000Y-69930000D03*
X229870000Y-67230000D03*
X196850000Y-38655000D03*
X196850000Y-41355000D03*
X229870000Y-41910000D03*
X229870000Y-39210000D03*
X196850000Y-49370000D03*
X196850000Y-52070000D03*
X229870000Y-52785000D03*
X229870000Y-50085000D03*
X194005200Y-91948000D03*
X194005200Y-94648000D03*
D13*
X213280000Y-100330000D03*
X215980000Y-100330000D03*
X215980000Y-102870000D03*
X213280000Y-102870000D03*
X213280000Y-105410000D03*
X215980000Y-105410000D03*
X232304600Y-100812600D03*
X235004600Y-100812600D03*
X213280000Y-107950000D03*
X215980000Y-107950000D03*
D21*
X203962000Y-103425000D03*
X203962000Y-106125000D03*
X234950000Y-91520000D03*
X234950000Y-88820000D03*
D13*
X215980000Y-110490000D03*
X213280000Y-110490000D03*
X144860000Y-100330000D03*
X142160000Y-100330000D03*
X142160000Y-110490000D03*
X144860000Y-110490000D03*
X142160000Y-102870000D03*
X144860000Y-102870000D03*
X162640000Y-109220000D03*
X159940000Y-109220000D03*
X159940000Y-106680000D03*
X162640000Y-106680000D03*
X162693340Y-101749860D03*
X159993340Y-101749860D03*
X159940000Y-104140000D03*
X162640000Y-104140000D03*
X144860000Y-97790000D03*
X142160000Y-97790000D03*
D21*
X186055000Y-93265000D03*
X186055000Y-95965000D03*
X188595000Y-95965000D03*
X188595000Y-93265000D03*
X183515000Y-95965000D03*
X183515000Y-93265000D03*
X180975000Y-93265000D03*
X180975000Y-95965000D03*
X165735000Y-93265000D03*
X165735000Y-95965000D03*
X168275000Y-93265000D03*
X168275000Y-95965000D03*
X170815000Y-93265000D03*
X170815000Y-95965000D03*
X173355000Y-95965000D03*
X173355000Y-93265000D03*
D13*
X147400000Y-125095000D03*
X144700000Y-125095000D03*
D21*
X175895000Y-93265000D03*
X175895000Y-95965000D03*
X178435000Y-95965000D03*
X178435000Y-93265000D03*
D13*
X179150000Y-82550000D03*
X176450000Y-82550000D03*
X182325000Y-68580000D03*
X179625000Y-68580000D03*
X182325000Y-63500000D03*
X179625000Y-63500000D03*
X182325000Y-66040000D03*
X179625000Y-66040000D03*
X182325000Y-60960000D03*
X179625000Y-60960000D03*
X182325000Y-58420000D03*
X179625000Y-58420000D03*
X179625000Y-55880000D03*
X182325000Y-55880000D03*
X179625000Y-53340000D03*
X182325000Y-53340000D03*
X182245000Y-50800000D03*
X179545000Y-50800000D03*
X179625000Y-48260000D03*
X182325000Y-48260000D03*
D22*
X175260000Y-122530000D03*
D23*
X177560000Y-116230000D03*
X175260000Y-116230000D03*
X172960000Y-116230000D03*
X205345000Y-120675000D03*
X207645000Y-120675000D03*
X209945000Y-120675000D03*
D22*
X207645000Y-126975000D03*
G36*
G01*
X197060000Y-95280000D02*
X198660000Y-95280000D01*
G75*
G02*
X198730000Y-95350000I0J-70000D01*
G01*
X198730000Y-95650000D01*
G75*
G02*
X198660000Y-95720000I-70000J0D01*
G01*
X197060000Y-95720000D01*
G75*
G02*
X196990000Y-95650000I0J70000D01*
G01*
X196990000Y-95350000D01*
G75*
G02*
X197060000Y-95280000I70000J0D01*
G01*
G37*
G36*
G01*
X197060000Y-95930000D02*
X198660000Y-95930000D01*
G75*
G02*
X198730000Y-96000000I0J-70000D01*
G01*
X198730000Y-96300000D01*
G75*
G02*
X198660000Y-96370000I-70000J0D01*
G01*
X197060000Y-96370000D01*
G75*
G02*
X196990000Y-96300000I0J70000D01*
G01*
X196990000Y-96000000D01*
G75*
G02*
X197060000Y-95930000I70000J0D01*
G01*
G37*
G36*
G01*
X197060000Y-96580000D02*
X198660000Y-96580000D01*
G75*
G02*
X198730000Y-96650000I0J-70000D01*
G01*
X198730000Y-96950000D01*
G75*
G02*
X198660000Y-97020000I-70000J0D01*
G01*
X197060000Y-97020000D01*
G75*
G02*
X196990000Y-96950000I0J70000D01*
G01*
X196990000Y-96650000D01*
G75*
G02*
X197060000Y-96580000I70000J0D01*
G01*
G37*
G36*
G01*
X197060000Y-97230000D02*
X198660000Y-97230000D01*
G75*
G02*
X198730000Y-97300000I0J-70000D01*
G01*
X198730000Y-97600000D01*
G75*
G02*
X198660000Y-97670000I-70000J0D01*
G01*
X197060000Y-97670000D01*
G75*
G02*
X196990000Y-97600000I0J70000D01*
G01*
X196990000Y-97300000D01*
G75*
G02*
X197060000Y-97230000I70000J0D01*
G01*
G37*
G36*
G01*
X197060000Y-97880000D02*
X198660000Y-97880000D01*
G75*
G02*
X198730000Y-97950000I0J-70000D01*
G01*
X198730000Y-98250000D01*
G75*
G02*
X198660000Y-98320000I-70000J0D01*
G01*
X197060000Y-98320000D01*
G75*
G02*
X196990000Y-98250000I0J70000D01*
G01*
X196990000Y-97950000D01*
G75*
G02*
X197060000Y-97880000I70000J0D01*
G01*
G37*
G36*
G01*
X197060000Y-98530000D02*
X198660000Y-98530000D01*
G75*
G02*
X198730000Y-98600000I0J-70000D01*
G01*
X198730000Y-98900000D01*
G75*
G02*
X198660000Y-98970000I-70000J0D01*
G01*
X197060000Y-98970000D01*
G75*
G02*
X196990000Y-98900000I0J70000D01*
G01*
X196990000Y-98600000D01*
G75*
G02*
X197060000Y-98530000I70000J0D01*
G01*
G37*
G36*
G01*
X197060000Y-99180000D02*
X198660000Y-99180000D01*
G75*
G02*
X198730000Y-99250000I0J-70000D01*
G01*
X198730000Y-99550000D01*
G75*
G02*
X198660000Y-99620000I-70000J0D01*
G01*
X197060000Y-99620000D01*
G75*
G02*
X196990000Y-99550000I0J70000D01*
G01*
X196990000Y-99250000D01*
G75*
G02*
X197060000Y-99180000I70000J0D01*
G01*
G37*
G36*
G01*
X197060000Y-99830000D02*
X198660000Y-99830000D01*
G75*
G02*
X198730000Y-99900000I0J-70000D01*
G01*
X198730000Y-100200000D01*
G75*
G02*
X198660000Y-100270000I-70000J0D01*
G01*
X197060000Y-100270000D01*
G75*
G02*
X196990000Y-100200000I0J70000D01*
G01*
X196990000Y-99900000D01*
G75*
G02*
X197060000Y-99830000I70000J0D01*
G01*
G37*
G36*
G01*
X197060000Y-100480000D02*
X198660000Y-100480000D01*
G75*
G02*
X198730000Y-100550000I0J-70000D01*
G01*
X198730000Y-100850000D01*
G75*
G02*
X198660000Y-100920000I-70000J0D01*
G01*
X197060000Y-100920000D01*
G75*
G02*
X196990000Y-100850000I0J70000D01*
G01*
X196990000Y-100550000D01*
G75*
G02*
X197060000Y-100480000I70000J0D01*
G01*
G37*
G36*
G01*
X197060000Y-101130000D02*
X198660000Y-101130000D01*
G75*
G02*
X198730000Y-101200000I0J-70000D01*
G01*
X198730000Y-101500000D01*
G75*
G02*
X198660000Y-101570000I-70000J0D01*
G01*
X197060000Y-101570000D01*
G75*
G02*
X196990000Y-101500000I0J70000D01*
G01*
X196990000Y-101200000D01*
G75*
G02*
X197060000Y-101130000I70000J0D01*
G01*
G37*
G36*
G01*
X202660000Y-101130000D02*
X204260000Y-101130000D01*
G75*
G02*
X204330000Y-101200000I0J-70000D01*
G01*
X204330000Y-101500000D01*
G75*
G02*
X204260000Y-101570000I-70000J0D01*
G01*
X202660000Y-101570000D01*
G75*
G02*
X202590000Y-101500000I0J70000D01*
G01*
X202590000Y-101200000D01*
G75*
G02*
X202660000Y-101130000I70000J0D01*
G01*
G37*
G36*
G01*
X202660000Y-100480000D02*
X204260000Y-100480000D01*
G75*
G02*
X204330000Y-100550000I0J-70000D01*
G01*
X204330000Y-100850000D01*
G75*
G02*
X204260000Y-100920000I-70000J0D01*
G01*
X202660000Y-100920000D01*
G75*
G02*
X202590000Y-100850000I0J70000D01*
G01*
X202590000Y-100550000D01*
G75*
G02*
X202660000Y-100480000I70000J0D01*
G01*
G37*
G36*
G01*
X202660000Y-99830000D02*
X204260000Y-99830000D01*
G75*
G02*
X204330000Y-99900000I0J-70000D01*
G01*
X204330000Y-100200000D01*
G75*
G02*
X204260000Y-100270000I-70000J0D01*
G01*
X202660000Y-100270000D01*
G75*
G02*
X202590000Y-100200000I0J70000D01*
G01*
X202590000Y-99900000D01*
G75*
G02*
X202660000Y-99830000I70000J0D01*
G01*
G37*
G36*
G01*
X202660000Y-99180000D02*
X204260000Y-99180000D01*
G75*
G02*
X204330000Y-99250000I0J-70000D01*
G01*
X204330000Y-99550000D01*
G75*
G02*
X204260000Y-99620000I-70000J0D01*
G01*
X202660000Y-99620000D01*
G75*
G02*
X202590000Y-99550000I0J70000D01*
G01*
X202590000Y-99250000D01*
G75*
G02*
X202660000Y-99180000I70000J0D01*
G01*
G37*
G36*
G01*
X202660000Y-98530000D02*
X204260000Y-98530000D01*
G75*
G02*
X204330000Y-98600000I0J-70000D01*
G01*
X204330000Y-98900000D01*
G75*
G02*
X204260000Y-98970000I-70000J0D01*
G01*
X202660000Y-98970000D01*
G75*
G02*
X202590000Y-98900000I0J70000D01*
G01*
X202590000Y-98600000D01*
G75*
G02*
X202660000Y-98530000I70000J0D01*
G01*
G37*
G36*
G01*
X202660000Y-97880000D02*
X204260000Y-97880000D01*
G75*
G02*
X204330000Y-97950000I0J-70000D01*
G01*
X204330000Y-98250000D01*
G75*
G02*
X204260000Y-98320000I-70000J0D01*
G01*
X202660000Y-98320000D01*
G75*
G02*
X202590000Y-98250000I0J70000D01*
G01*
X202590000Y-97950000D01*
G75*
G02*
X202660000Y-97880000I70000J0D01*
G01*
G37*
G36*
G01*
X202660000Y-97230000D02*
X204260000Y-97230000D01*
G75*
G02*
X204330000Y-97300000I0J-70000D01*
G01*
X204330000Y-97600000D01*
G75*
G02*
X204260000Y-97670000I-70000J0D01*
G01*
X202660000Y-97670000D01*
G75*
G02*
X202590000Y-97600000I0J70000D01*
G01*
X202590000Y-97300000D01*
G75*
G02*
X202660000Y-97230000I70000J0D01*
G01*
G37*
G36*
G01*
X202660000Y-96580000D02*
X204260000Y-96580000D01*
G75*
G02*
X204330000Y-96650000I0J-70000D01*
G01*
X204330000Y-96950000D01*
G75*
G02*
X204260000Y-97020000I-70000J0D01*
G01*
X202660000Y-97020000D01*
G75*
G02*
X202590000Y-96950000I0J70000D01*
G01*
X202590000Y-96650000D01*
G75*
G02*
X202660000Y-96580000I70000J0D01*
G01*
G37*
G36*
G01*
X202660000Y-95930000D02*
X204260000Y-95930000D01*
G75*
G02*
X204330000Y-96000000I0J-70000D01*
G01*
X204330000Y-96300000D01*
G75*
G02*
X204260000Y-96370000I-70000J0D01*
G01*
X202660000Y-96370000D01*
G75*
G02*
X202590000Y-96300000I0J70000D01*
G01*
X202590000Y-96000000D01*
G75*
G02*
X202660000Y-95930000I70000J0D01*
G01*
G37*
G36*
G01*
X202660000Y-95280000D02*
X204260000Y-95280000D01*
G75*
G02*
X204330000Y-95350000I0J-70000D01*
G01*
X204330000Y-95650000D01*
G75*
G02*
X204260000Y-95720000I-70000J0D01*
G01*
X202660000Y-95720000D01*
G75*
G02*
X202590000Y-95650000I0J70000D01*
G01*
X202590000Y-95350000D01*
G75*
G02*
X202660000Y-95280000I70000J0D01*
G01*
G37*
G36*
G01*
X229705000Y-105895000D02*
X229705000Y-106195000D01*
G75*
G02*
X229555000Y-106345000I-150000J0D01*
G01*
X227955000Y-106345000D01*
G75*
G02*
X227805000Y-106195000I0J150000D01*
G01*
X227805000Y-105895000D01*
G75*
G02*
X227955000Y-105745000I150000J0D01*
G01*
X229555000Y-105745000D01*
G75*
G02*
X229705000Y-105895000I0J-150000D01*
G01*
G37*
G36*
G01*
X229705000Y-104625000D02*
X229705000Y-104925000D01*
G75*
G02*
X229555000Y-105075000I-150000J0D01*
G01*
X227955000Y-105075000D01*
G75*
G02*
X227805000Y-104925000I0J150000D01*
G01*
X227805000Y-104625000D01*
G75*
G02*
X227955000Y-104475000I150000J0D01*
G01*
X229555000Y-104475000D01*
G75*
G02*
X229705000Y-104625000I0J-150000D01*
G01*
G37*
G36*
G01*
X229705000Y-103355000D02*
X229705000Y-103655000D01*
G75*
G02*
X229555000Y-103805000I-150000J0D01*
G01*
X227955000Y-103805000D01*
G75*
G02*
X227805000Y-103655000I0J150000D01*
G01*
X227805000Y-103355000D01*
G75*
G02*
X227955000Y-103205000I150000J0D01*
G01*
X229555000Y-103205000D01*
G75*
G02*
X229705000Y-103355000I0J-150000D01*
G01*
G37*
G36*
G01*
X229705000Y-102085000D02*
X229705000Y-102385000D01*
G75*
G02*
X229555000Y-102535000I-150000J0D01*
G01*
X227955000Y-102535000D01*
G75*
G02*
X227805000Y-102385000I0J150000D01*
G01*
X227805000Y-102085000D01*
G75*
G02*
X227955000Y-101935000I150000J0D01*
G01*
X229555000Y-101935000D01*
G75*
G02*
X229705000Y-102085000I0J-150000D01*
G01*
G37*
G36*
G01*
X229705000Y-100815000D02*
X229705000Y-101115000D01*
G75*
G02*
X229555000Y-101265000I-150000J0D01*
G01*
X227955000Y-101265000D01*
G75*
G02*
X227805000Y-101115000I0J150000D01*
G01*
X227805000Y-100815000D01*
G75*
G02*
X227955000Y-100665000I150000J0D01*
G01*
X229555000Y-100665000D01*
G75*
G02*
X229705000Y-100815000I0J-150000D01*
G01*
G37*
G36*
G01*
X229705000Y-99545000D02*
X229705000Y-99845000D01*
G75*
G02*
X229555000Y-99995000I-150000J0D01*
G01*
X227955000Y-99995000D01*
G75*
G02*
X227805000Y-99845000I0J150000D01*
G01*
X227805000Y-99545000D01*
G75*
G02*
X227955000Y-99395000I150000J0D01*
G01*
X229555000Y-99395000D01*
G75*
G02*
X229705000Y-99545000I0J-150000D01*
G01*
G37*
G36*
G01*
X229705000Y-98275000D02*
X229705000Y-98575000D01*
G75*
G02*
X229555000Y-98725000I-150000J0D01*
G01*
X227955000Y-98725000D01*
G75*
G02*
X227805000Y-98575000I0J150000D01*
G01*
X227805000Y-98275000D01*
G75*
G02*
X227955000Y-98125000I150000J0D01*
G01*
X229555000Y-98125000D01*
G75*
G02*
X229705000Y-98275000I0J-150000D01*
G01*
G37*
G36*
G01*
X229705000Y-97005000D02*
X229705000Y-97305000D01*
G75*
G02*
X229555000Y-97455000I-150000J0D01*
G01*
X227955000Y-97455000D01*
G75*
G02*
X227805000Y-97305000I0J150000D01*
G01*
X227805000Y-97005000D01*
G75*
G02*
X227955000Y-96855000I150000J0D01*
G01*
X229555000Y-96855000D01*
G75*
G02*
X229705000Y-97005000I0J-150000D01*
G01*
G37*
G36*
G01*
X229705000Y-95735000D02*
X229705000Y-96035000D01*
G75*
G02*
X229555000Y-96185000I-150000J0D01*
G01*
X227955000Y-96185000D01*
G75*
G02*
X227805000Y-96035000I0J150000D01*
G01*
X227805000Y-95735000D01*
G75*
G02*
X227955000Y-95585000I150000J0D01*
G01*
X229555000Y-95585000D01*
G75*
G02*
X229705000Y-95735000I0J-150000D01*
G01*
G37*
G36*
G01*
X229705000Y-94465000D02*
X229705000Y-94765000D01*
G75*
G02*
X229555000Y-94915000I-150000J0D01*
G01*
X227955000Y-94915000D01*
G75*
G02*
X227805000Y-94765000I0J150000D01*
G01*
X227805000Y-94465000D01*
G75*
G02*
X227955000Y-94315000I150000J0D01*
G01*
X229555000Y-94315000D01*
G75*
G02*
X229705000Y-94465000I0J-150000D01*
G01*
G37*
G36*
G01*
X220505000Y-94465000D02*
X220505000Y-94765000D01*
G75*
G02*
X220355000Y-94915000I-150000J0D01*
G01*
X218755000Y-94915000D01*
G75*
G02*
X218605000Y-94765000I0J150000D01*
G01*
X218605000Y-94465000D01*
G75*
G02*
X218755000Y-94315000I150000J0D01*
G01*
X220355000Y-94315000D01*
G75*
G02*
X220505000Y-94465000I0J-150000D01*
G01*
G37*
G36*
G01*
X220505000Y-95735000D02*
X220505000Y-96035000D01*
G75*
G02*
X220355000Y-96185000I-150000J0D01*
G01*
X218755000Y-96185000D01*
G75*
G02*
X218605000Y-96035000I0J150000D01*
G01*
X218605000Y-95735000D01*
G75*
G02*
X218755000Y-95585000I150000J0D01*
G01*
X220355000Y-95585000D01*
G75*
G02*
X220505000Y-95735000I0J-150000D01*
G01*
G37*
G36*
G01*
X220505000Y-97005000D02*
X220505000Y-97305000D01*
G75*
G02*
X220355000Y-97455000I-150000J0D01*
G01*
X218755000Y-97455000D01*
G75*
G02*
X218605000Y-97305000I0J150000D01*
G01*
X218605000Y-97005000D01*
G75*
G02*
X218755000Y-96855000I150000J0D01*
G01*
X220355000Y-96855000D01*
G75*
G02*
X220505000Y-97005000I0J-150000D01*
G01*
G37*
G36*
G01*
X220505000Y-98275000D02*
X220505000Y-98575000D01*
G75*
G02*
X220355000Y-98725000I-150000J0D01*
G01*
X218755000Y-98725000D01*
G75*
G02*
X218605000Y-98575000I0J150000D01*
G01*
X218605000Y-98275000D01*
G75*
G02*
X218755000Y-98125000I150000J0D01*
G01*
X220355000Y-98125000D01*
G75*
G02*
X220505000Y-98275000I0J-150000D01*
G01*
G37*
G36*
G01*
X220505000Y-99545000D02*
X220505000Y-99845000D01*
G75*
G02*
X220355000Y-99995000I-150000J0D01*
G01*
X218755000Y-99995000D01*
G75*
G02*
X218605000Y-99845000I0J150000D01*
G01*
X218605000Y-99545000D01*
G75*
G02*
X218755000Y-99395000I150000J0D01*
G01*
X220355000Y-99395000D01*
G75*
G02*
X220505000Y-99545000I0J-150000D01*
G01*
G37*
G36*
G01*
X220505000Y-100815000D02*
X220505000Y-101115000D01*
G75*
G02*
X220355000Y-101265000I-150000J0D01*
G01*
X218755000Y-101265000D01*
G75*
G02*
X218605000Y-101115000I0J150000D01*
G01*
X218605000Y-100815000D01*
G75*
G02*
X218755000Y-100665000I150000J0D01*
G01*
X220355000Y-100665000D01*
G75*
G02*
X220505000Y-100815000I0J-150000D01*
G01*
G37*
G36*
G01*
X220505000Y-102085000D02*
X220505000Y-102385000D01*
G75*
G02*
X220355000Y-102535000I-150000J0D01*
G01*
X218755000Y-102535000D01*
G75*
G02*
X218605000Y-102385000I0J150000D01*
G01*
X218605000Y-102085000D01*
G75*
G02*
X218755000Y-101935000I150000J0D01*
G01*
X220355000Y-101935000D01*
G75*
G02*
X220505000Y-102085000I0J-150000D01*
G01*
G37*
G36*
G01*
X220505000Y-103355000D02*
X220505000Y-103655000D01*
G75*
G02*
X220355000Y-103805000I-150000J0D01*
G01*
X218755000Y-103805000D01*
G75*
G02*
X218605000Y-103655000I0J150000D01*
G01*
X218605000Y-103355000D01*
G75*
G02*
X218755000Y-103205000I150000J0D01*
G01*
X220355000Y-103205000D01*
G75*
G02*
X220505000Y-103355000I0J-150000D01*
G01*
G37*
G36*
G01*
X220505000Y-104625000D02*
X220505000Y-104925000D01*
G75*
G02*
X220355000Y-105075000I-150000J0D01*
G01*
X218755000Y-105075000D01*
G75*
G02*
X218605000Y-104925000I0J150000D01*
G01*
X218605000Y-104625000D01*
G75*
G02*
X218755000Y-104475000I150000J0D01*
G01*
X220355000Y-104475000D01*
G75*
G02*
X220505000Y-104625000I0J-150000D01*
G01*
G37*
G36*
G01*
X220505000Y-105895000D02*
X220505000Y-106195000D01*
G75*
G02*
X220355000Y-106345000I-150000J0D01*
G01*
X218755000Y-106345000D01*
G75*
G02*
X218605000Y-106195000I0J150000D01*
G01*
X218605000Y-105895000D01*
G75*
G02*
X218755000Y-105745000I150000J0D01*
G01*
X220355000Y-105745000D01*
G75*
G02*
X220505000Y-105895000I0J-150000D01*
G01*
G37*
G36*
G01*
X158050000Y-111622500D02*
X158050000Y-111897500D01*
G75*
G02*
X157912500Y-112035000I-137500J0D01*
G01*
X156187500Y-112035000D01*
G75*
G02*
X156050000Y-111897500I0J137500D01*
G01*
X156050000Y-111622500D01*
G75*
G02*
X156187500Y-111485000I137500J0D01*
G01*
X157912500Y-111485000D01*
G75*
G02*
X158050000Y-111622500I0J-137500D01*
G01*
G37*
G36*
G01*
X158050000Y-110352500D02*
X158050000Y-110627500D01*
G75*
G02*
X157912500Y-110765000I-137500J0D01*
G01*
X156187500Y-110765000D01*
G75*
G02*
X156050000Y-110627500I0J137500D01*
G01*
X156050000Y-110352500D01*
G75*
G02*
X156187500Y-110215000I137500J0D01*
G01*
X157912500Y-110215000D01*
G75*
G02*
X158050000Y-110352500I0J-137500D01*
G01*
G37*
G36*
G01*
X158050000Y-109082500D02*
X158050000Y-109357500D01*
G75*
G02*
X157912500Y-109495000I-137500J0D01*
G01*
X156187500Y-109495000D01*
G75*
G02*
X156050000Y-109357500I0J137500D01*
G01*
X156050000Y-109082500D01*
G75*
G02*
X156187500Y-108945000I137500J0D01*
G01*
X157912500Y-108945000D01*
G75*
G02*
X158050000Y-109082500I0J-137500D01*
G01*
G37*
G36*
G01*
X158050000Y-107812500D02*
X158050000Y-108087500D01*
G75*
G02*
X157912500Y-108225000I-137500J0D01*
G01*
X156187500Y-108225000D01*
G75*
G02*
X156050000Y-108087500I0J137500D01*
G01*
X156050000Y-107812500D01*
G75*
G02*
X156187500Y-107675000I137500J0D01*
G01*
X157912500Y-107675000D01*
G75*
G02*
X158050000Y-107812500I0J-137500D01*
G01*
G37*
G36*
G01*
X158050000Y-106542500D02*
X158050000Y-106817500D01*
G75*
G02*
X157912500Y-106955000I-137500J0D01*
G01*
X156187500Y-106955000D01*
G75*
G02*
X156050000Y-106817500I0J137500D01*
G01*
X156050000Y-106542500D01*
G75*
G02*
X156187500Y-106405000I137500J0D01*
G01*
X157912500Y-106405000D01*
G75*
G02*
X158050000Y-106542500I0J-137500D01*
G01*
G37*
G36*
G01*
X158050000Y-105272500D02*
X158050000Y-105547500D01*
G75*
G02*
X157912500Y-105685000I-137500J0D01*
G01*
X156187500Y-105685000D01*
G75*
G02*
X156050000Y-105547500I0J137500D01*
G01*
X156050000Y-105272500D01*
G75*
G02*
X156187500Y-105135000I137500J0D01*
G01*
X157912500Y-105135000D01*
G75*
G02*
X158050000Y-105272500I0J-137500D01*
G01*
G37*
G36*
G01*
X158050000Y-104002500D02*
X158050000Y-104277500D01*
G75*
G02*
X157912500Y-104415000I-137500J0D01*
G01*
X156187500Y-104415000D01*
G75*
G02*
X156050000Y-104277500I0J137500D01*
G01*
X156050000Y-104002500D01*
G75*
G02*
X156187500Y-103865000I137500J0D01*
G01*
X157912500Y-103865000D01*
G75*
G02*
X158050000Y-104002500I0J-137500D01*
G01*
G37*
G36*
G01*
X158050000Y-102732500D02*
X158050000Y-103007500D01*
G75*
G02*
X157912500Y-103145000I-137500J0D01*
G01*
X156187500Y-103145000D01*
G75*
G02*
X156050000Y-103007500I0J137500D01*
G01*
X156050000Y-102732500D01*
G75*
G02*
X156187500Y-102595000I137500J0D01*
G01*
X157912500Y-102595000D01*
G75*
G02*
X158050000Y-102732500I0J-137500D01*
G01*
G37*
G36*
G01*
X158050000Y-101462500D02*
X158050000Y-101737500D01*
G75*
G02*
X157912500Y-101875000I-137500J0D01*
G01*
X156187500Y-101875000D01*
G75*
G02*
X156050000Y-101737500I0J137500D01*
G01*
X156050000Y-101462500D01*
G75*
G02*
X156187500Y-101325000I137500J0D01*
G01*
X157912500Y-101325000D01*
G75*
G02*
X158050000Y-101462500I0J-137500D01*
G01*
G37*
G36*
G01*
X158050000Y-100192500D02*
X158050000Y-100467500D01*
G75*
G02*
X157912500Y-100605000I-137500J0D01*
G01*
X156187500Y-100605000D01*
G75*
G02*
X156050000Y-100467500I0J137500D01*
G01*
X156050000Y-100192500D01*
G75*
G02*
X156187500Y-100055000I137500J0D01*
G01*
X157912500Y-100055000D01*
G75*
G02*
X158050000Y-100192500I0J-137500D01*
G01*
G37*
G36*
G01*
X158050000Y-98922500D02*
X158050000Y-99197500D01*
G75*
G02*
X157912500Y-99335000I-137500J0D01*
G01*
X156187500Y-99335000D01*
G75*
G02*
X156050000Y-99197500I0J137500D01*
G01*
X156050000Y-98922500D01*
G75*
G02*
X156187500Y-98785000I137500J0D01*
G01*
X157912500Y-98785000D01*
G75*
G02*
X158050000Y-98922500I0J-137500D01*
G01*
G37*
G36*
G01*
X158050000Y-97652500D02*
X158050000Y-97927500D01*
G75*
G02*
X157912500Y-98065000I-137500J0D01*
G01*
X156187500Y-98065000D01*
G75*
G02*
X156050000Y-97927500I0J137500D01*
G01*
X156050000Y-97652500D01*
G75*
G02*
X156187500Y-97515000I137500J0D01*
G01*
X157912500Y-97515000D01*
G75*
G02*
X158050000Y-97652500I0J-137500D01*
G01*
G37*
G36*
G01*
X148750000Y-97652500D02*
X148750000Y-97927500D01*
G75*
G02*
X148612500Y-98065000I-137500J0D01*
G01*
X146887500Y-98065000D01*
G75*
G02*
X146750000Y-97927500I0J137500D01*
G01*
X146750000Y-97652500D01*
G75*
G02*
X146887500Y-97515000I137500J0D01*
G01*
X148612500Y-97515000D01*
G75*
G02*
X148750000Y-97652500I0J-137500D01*
G01*
G37*
G36*
G01*
X148750000Y-98922500D02*
X148750000Y-99197500D01*
G75*
G02*
X148612500Y-99335000I-137500J0D01*
G01*
X146887500Y-99335000D01*
G75*
G02*
X146750000Y-99197500I0J137500D01*
G01*
X146750000Y-98922500D01*
G75*
G02*
X146887500Y-98785000I137500J0D01*
G01*
X148612500Y-98785000D01*
G75*
G02*
X148750000Y-98922500I0J-137500D01*
G01*
G37*
G36*
G01*
X148750000Y-100192500D02*
X148750000Y-100467500D01*
G75*
G02*
X148612500Y-100605000I-137500J0D01*
G01*
X146887500Y-100605000D01*
G75*
G02*
X146750000Y-100467500I0J137500D01*
G01*
X146750000Y-100192500D01*
G75*
G02*
X146887500Y-100055000I137500J0D01*
G01*
X148612500Y-100055000D01*
G75*
G02*
X148750000Y-100192500I0J-137500D01*
G01*
G37*
G36*
G01*
X148750000Y-101462500D02*
X148750000Y-101737500D01*
G75*
G02*
X148612500Y-101875000I-137500J0D01*
G01*
X146887500Y-101875000D01*
G75*
G02*
X146750000Y-101737500I0J137500D01*
G01*
X146750000Y-101462500D01*
G75*
G02*
X146887500Y-101325000I137500J0D01*
G01*
X148612500Y-101325000D01*
G75*
G02*
X148750000Y-101462500I0J-137500D01*
G01*
G37*
G36*
G01*
X148750000Y-102732500D02*
X148750000Y-103007500D01*
G75*
G02*
X148612500Y-103145000I-137500J0D01*
G01*
X146887500Y-103145000D01*
G75*
G02*
X146750000Y-103007500I0J137500D01*
G01*
X146750000Y-102732500D01*
G75*
G02*
X146887500Y-102595000I137500J0D01*
G01*
X148612500Y-102595000D01*
G75*
G02*
X148750000Y-102732500I0J-137500D01*
G01*
G37*
G36*
G01*
X148750000Y-104002500D02*
X148750000Y-104277500D01*
G75*
G02*
X148612500Y-104415000I-137500J0D01*
G01*
X146887500Y-104415000D01*
G75*
G02*
X146750000Y-104277500I0J137500D01*
G01*
X146750000Y-104002500D01*
G75*
G02*
X146887500Y-103865000I137500J0D01*
G01*
X148612500Y-103865000D01*
G75*
G02*
X148750000Y-104002500I0J-137500D01*
G01*
G37*
G36*
G01*
X148750000Y-105272500D02*
X148750000Y-105547500D01*
G75*
G02*
X148612500Y-105685000I-137500J0D01*
G01*
X146887500Y-105685000D01*
G75*
G02*
X146750000Y-105547500I0J137500D01*
G01*
X146750000Y-105272500D01*
G75*
G02*
X146887500Y-105135000I137500J0D01*
G01*
X148612500Y-105135000D01*
G75*
G02*
X148750000Y-105272500I0J-137500D01*
G01*
G37*
G36*
G01*
X148750000Y-106542500D02*
X148750000Y-106817500D01*
G75*
G02*
X148612500Y-106955000I-137500J0D01*
G01*
X146887500Y-106955000D01*
G75*
G02*
X146750000Y-106817500I0J137500D01*
G01*
X146750000Y-106542500D01*
G75*
G02*
X146887500Y-106405000I137500J0D01*
G01*
X148612500Y-106405000D01*
G75*
G02*
X148750000Y-106542500I0J-137500D01*
G01*
G37*
G36*
G01*
X148750000Y-107812500D02*
X148750000Y-108087500D01*
G75*
G02*
X148612500Y-108225000I-137500J0D01*
G01*
X146887500Y-108225000D01*
G75*
G02*
X146750000Y-108087500I0J137500D01*
G01*
X146750000Y-107812500D01*
G75*
G02*
X146887500Y-107675000I137500J0D01*
G01*
X148612500Y-107675000D01*
G75*
G02*
X148750000Y-107812500I0J-137500D01*
G01*
G37*
G36*
G01*
X148750000Y-109082500D02*
X148750000Y-109357500D01*
G75*
G02*
X148612500Y-109495000I-137500J0D01*
G01*
X146887500Y-109495000D01*
G75*
G02*
X146750000Y-109357500I0J137500D01*
G01*
X146750000Y-109082500D01*
G75*
G02*
X146887500Y-108945000I137500J0D01*
G01*
X148612500Y-108945000D01*
G75*
G02*
X148750000Y-109082500I0J-137500D01*
G01*
G37*
G36*
G01*
X148750000Y-110352500D02*
X148750000Y-110627500D01*
G75*
G02*
X148612500Y-110765000I-137500J0D01*
G01*
X146887500Y-110765000D01*
G75*
G02*
X146750000Y-110627500I0J137500D01*
G01*
X146750000Y-110352500D01*
G75*
G02*
X146887500Y-110215000I137500J0D01*
G01*
X148612500Y-110215000D01*
G75*
G02*
X148750000Y-110352500I0J-137500D01*
G01*
G37*
G36*
G01*
X148750000Y-111622500D02*
X148750000Y-111897500D01*
G75*
G02*
X148612500Y-112035000I-137500J0D01*
G01*
X146887500Y-112035000D01*
G75*
G02*
X146750000Y-111897500I0J137500D01*
G01*
X146750000Y-111622500D01*
G75*
G02*
X146887500Y-111485000I137500J0D01*
G01*
X148612500Y-111485000D01*
G75*
G02*
X148750000Y-111622500I0J-137500D01*
G01*
G37*
G36*
G01*
X175925000Y-101505000D02*
X175925000Y-99905000D01*
G75*
G02*
X175995000Y-99835000I70000J0D01*
G01*
X176295000Y-99835000D01*
G75*
G02*
X176365000Y-99905000I0J-70000D01*
G01*
X176365000Y-101505000D01*
G75*
G02*
X176295000Y-101575000I-70000J0D01*
G01*
X175995000Y-101575000D01*
G75*
G02*
X175925000Y-101505000I0J70000D01*
G01*
G37*
G36*
G01*
X176575000Y-101505000D02*
X176575000Y-99905000D01*
G75*
G02*
X176645000Y-99835000I70000J0D01*
G01*
X176945000Y-99835000D01*
G75*
G02*
X177015000Y-99905000I0J-70000D01*
G01*
X177015000Y-101505000D01*
G75*
G02*
X176945000Y-101575000I-70000J0D01*
G01*
X176645000Y-101575000D01*
G75*
G02*
X176575000Y-101505000I0J70000D01*
G01*
G37*
G36*
G01*
X177225000Y-101505000D02*
X177225000Y-99905000D01*
G75*
G02*
X177295000Y-99835000I70000J0D01*
G01*
X177595000Y-99835000D01*
G75*
G02*
X177665000Y-99905000I0J-70000D01*
G01*
X177665000Y-101505000D01*
G75*
G02*
X177595000Y-101575000I-70000J0D01*
G01*
X177295000Y-101575000D01*
G75*
G02*
X177225000Y-101505000I0J70000D01*
G01*
G37*
G36*
G01*
X177875000Y-101505000D02*
X177875000Y-99905000D01*
G75*
G02*
X177945000Y-99835000I70000J0D01*
G01*
X178245000Y-99835000D01*
G75*
G02*
X178315000Y-99905000I0J-70000D01*
G01*
X178315000Y-101505000D01*
G75*
G02*
X178245000Y-101575000I-70000J0D01*
G01*
X177945000Y-101575000D01*
G75*
G02*
X177875000Y-101505000I0J70000D01*
G01*
G37*
G36*
G01*
X178525000Y-101505000D02*
X178525000Y-99905000D01*
G75*
G02*
X178595000Y-99835000I70000J0D01*
G01*
X178895000Y-99835000D01*
G75*
G02*
X178965000Y-99905000I0J-70000D01*
G01*
X178965000Y-101505000D01*
G75*
G02*
X178895000Y-101575000I-70000J0D01*
G01*
X178595000Y-101575000D01*
G75*
G02*
X178525000Y-101505000I0J70000D01*
G01*
G37*
G36*
G01*
X179175000Y-101505000D02*
X179175000Y-99905000D01*
G75*
G02*
X179245000Y-99835000I70000J0D01*
G01*
X179545000Y-99835000D01*
G75*
G02*
X179615000Y-99905000I0J-70000D01*
G01*
X179615000Y-101505000D01*
G75*
G02*
X179545000Y-101575000I-70000J0D01*
G01*
X179245000Y-101575000D01*
G75*
G02*
X179175000Y-101505000I0J70000D01*
G01*
G37*
G36*
G01*
X179825000Y-101505000D02*
X179825000Y-99905000D01*
G75*
G02*
X179895000Y-99835000I70000J0D01*
G01*
X180195000Y-99835000D01*
G75*
G02*
X180265000Y-99905000I0J-70000D01*
G01*
X180265000Y-101505000D01*
G75*
G02*
X180195000Y-101575000I-70000J0D01*
G01*
X179895000Y-101575000D01*
G75*
G02*
X179825000Y-101505000I0J70000D01*
G01*
G37*
G36*
G01*
X180475000Y-101505000D02*
X180475000Y-99905000D01*
G75*
G02*
X180545000Y-99835000I70000J0D01*
G01*
X180845000Y-99835000D01*
G75*
G02*
X180915000Y-99905000I0J-70000D01*
G01*
X180915000Y-101505000D01*
G75*
G02*
X180845000Y-101575000I-70000J0D01*
G01*
X180545000Y-101575000D01*
G75*
G02*
X180475000Y-101505000I0J70000D01*
G01*
G37*
G36*
G01*
X181125000Y-101505000D02*
X181125000Y-99905000D01*
G75*
G02*
X181195000Y-99835000I70000J0D01*
G01*
X181495000Y-99835000D01*
G75*
G02*
X181565000Y-99905000I0J-70000D01*
G01*
X181565000Y-101505000D01*
G75*
G02*
X181495000Y-101575000I-70000J0D01*
G01*
X181195000Y-101575000D01*
G75*
G02*
X181125000Y-101505000I0J70000D01*
G01*
G37*
G36*
G01*
X181775000Y-101505000D02*
X181775000Y-99905000D01*
G75*
G02*
X181845000Y-99835000I70000J0D01*
G01*
X182145000Y-99835000D01*
G75*
G02*
X182215000Y-99905000I0J-70000D01*
G01*
X182215000Y-101505000D01*
G75*
G02*
X182145000Y-101575000I-70000J0D01*
G01*
X181845000Y-101575000D01*
G75*
G02*
X181775000Y-101505000I0J70000D01*
G01*
G37*
G36*
G01*
X181775000Y-107105000D02*
X181775000Y-105505000D01*
G75*
G02*
X181845000Y-105435000I70000J0D01*
G01*
X182145000Y-105435000D01*
G75*
G02*
X182215000Y-105505000I0J-70000D01*
G01*
X182215000Y-107105000D01*
G75*
G02*
X182145000Y-107175000I-70000J0D01*
G01*
X181845000Y-107175000D01*
G75*
G02*
X181775000Y-107105000I0J70000D01*
G01*
G37*
G36*
G01*
X181125000Y-107105000D02*
X181125000Y-105505000D01*
G75*
G02*
X181195000Y-105435000I70000J0D01*
G01*
X181495000Y-105435000D01*
G75*
G02*
X181565000Y-105505000I0J-70000D01*
G01*
X181565000Y-107105000D01*
G75*
G02*
X181495000Y-107175000I-70000J0D01*
G01*
X181195000Y-107175000D01*
G75*
G02*
X181125000Y-107105000I0J70000D01*
G01*
G37*
G36*
G01*
X180475000Y-107105000D02*
X180475000Y-105505000D01*
G75*
G02*
X180545000Y-105435000I70000J0D01*
G01*
X180845000Y-105435000D01*
G75*
G02*
X180915000Y-105505000I0J-70000D01*
G01*
X180915000Y-107105000D01*
G75*
G02*
X180845000Y-107175000I-70000J0D01*
G01*
X180545000Y-107175000D01*
G75*
G02*
X180475000Y-107105000I0J70000D01*
G01*
G37*
G36*
G01*
X179825000Y-107105000D02*
X179825000Y-105505000D01*
G75*
G02*
X179895000Y-105435000I70000J0D01*
G01*
X180195000Y-105435000D01*
G75*
G02*
X180265000Y-105505000I0J-70000D01*
G01*
X180265000Y-107105000D01*
G75*
G02*
X180195000Y-107175000I-70000J0D01*
G01*
X179895000Y-107175000D01*
G75*
G02*
X179825000Y-107105000I0J70000D01*
G01*
G37*
G36*
G01*
X179175000Y-107105000D02*
X179175000Y-105505000D01*
G75*
G02*
X179245000Y-105435000I70000J0D01*
G01*
X179545000Y-105435000D01*
G75*
G02*
X179615000Y-105505000I0J-70000D01*
G01*
X179615000Y-107105000D01*
G75*
G02*
X179545000Y-107175000I-70000J0D01*
G01*
X179245000Y-107175000D01*
G75*
G02*
X179175000Y-107105000I0J70000D01*
G01*
G37*
G36*
G01*
X178525000Y-107105000D02*
X178525000Y-105505000D01*
G75*
G02*
X178595000Y-105435000I70000J0D01*
G01*
X178895000Y-105435000D01*
G75*
G02*
X178965000Y-105505000I0J-70000D01*
G01*
X178965000Y-107105000D01*
G75*
G02*
X178895000Y-107175000I-70000J0D01*
G01*
X178595000Y-107175000D01*
G75*
G02*
X178525000Y-107105000I0J70000D01*
G01*
G37*
G36*
G01*
X177875000Y-107105000D02*
X177875000Y-105505000D01*
G75*
G02*
X177945000Y-105435000I70000J0D01*
G01*
X178245000Y-105435000D01*
G75*
G02*
X178315000Y-105505000I0J-70000D01*
G01*
X178315000Y-107105000D01*
G75*
G02*
X178245000Y-107175000I-70000J0D01*
G01*
X177945000Y-107175000D01*
G75*
G02*
X177875000Y-107105000I0J70000D01*
G01*
G37*
G36*
G01*
X177225000Y-107105000D02*
X177225000Y-105505000D01*
G75*
G02*
X177295000Y-105435000I70000J0D01*
G01*
X177595000Y-105435000D01*
G75*
G02*
X177665000Y-105505000I0J-70000D01*
G01*
X177665000Y-107105000D01*
G75*
G02*
X177595000Y-107175000I-70000J0D01*
G01*
X177295000Y-107175000D01*
G75*
G02*
X177225000Y-107105000I0J70000D01*
G01*
G37*
G36*
G01*
X176575000Y-107105000D02*
X176575000Y-105505000D01*
G75*
G02*
X176645000Y-105435000I70000J0D01*
G01*
X176945000Y-105435000D01*
G75*
G02*
X177015000Y-105505000I0J-70000D01*
G01*
X177015000Y-107105000D01*
G75*
G02*
X176945000Y-107175000I-70000J0D01*
G01*
X176645000Y-107175000D01*
G75*
G02*
X176575000Y-107105000I0J70000D01*
G01*
G37*
G36*
G01*
X175925000Y-107105000D02*
X175925000Y-105505000D01*
G75*
G02*
X175995000Y-105435000I70000J0D01*
G01*
X176295000Y-105435000D01*
G75*
G02*
X176365000Y-105505000I0J-70000D01*
G01*
X176365000Y-107105000D01*
G75*
G02*
X176295000Y-107175000I-70000J0D01*
G01*
X175995000Y-107175000D01*
G75*
G02*
X175925000Y-107105000I0J70000D01*
G01*
G37*
D13*
X144860000Y-93345000D03*
X142160000Y-93345000D03*
D24*
X165575000Y-103505000D03*
X165575000Y-104775000D03*
X165575000Y-106045000D03*
X165575000Y-107315000D03*
X165575000Y-108585000D03*
X165575000Y-109855000D03*
X165575000Y-111125000D03*
X170975000Y-111125000D03*
X170975000Y-109855000D03*
X170975000Y-108585000D03*
X170975000Y-107315000D03*
X170975000Y-106045000D03*
X170975000Y-104775000D03*
X170975000Y-103505000D03*
D13*
X176450000Y-87630000D03*
X179150000Y-87630000D03*
X176450000Y-85090000D03*
X179150000Y-85090000D03*
D25*
X144000000Y-34000000D03*
X143992600Y-119913400D03*
X187000000Y-34000000D03*
D26*
X197000000Y-110000000D03*
D27*
X199400000Y-110000000D03*
X198697056Y-111697056D03*
X197000000Y-112400000D03*
X195302944Y-111697056D03*
X194600000Y-110000000D03*
X195302944Y-108302944D03*
X197000000Y-107600000D03*
X198697056Y-108302944D03*
D25*
X236000000Y-34000000D03*
X236000000Y-123000000D03*
X195000000Y-34000000D03*
D27*
X188691856Y-105287744D03*
X186994800Y-104584800D03*
X185297744Y-105287744D03*
X184594800Y-106984800D03*
X185297744Y-108681856D03*
X186994800Y-109384800D03*
X188691856Y-108681856D03*
X189394800Y-106984800D03*
D26*
X186994800Y-106984800D03*
D14*
X174010000Y-113030000D03*
X176510000Y-113030000D03*
X234930000Y-98425000D03*
X232430000Y-98425000D03*
D21*
X163195000Y-95965000D03*
X163195000Y-93265000D03*
D15*
X231394000Y-88793000D03*
X231394000Y-91293000D03*
D16*
X206477600Y-100406200D03*
X209777600Y-100406200D03*
D21*
X198323200Y-69930000D03*
X198323200Y-67230000D03*
D13*
X234953800Y-103098600D03*
X232253800Y-103098600D03*
X212600000Y-93250000D03*
X209900000Y-93250000D03*
D18*
X148849080Y-94361000D03*
D19*
X151389080Y-94361000D03*
M02*
