G04 #@! TF.GenerationSoftware,KiCad,Pcbnew,(5.1.9-0-10_14)*
G04 #@! TF.CreationDate,2021-08-01T14:36:09+09:00*
G04 #@! TF.ProjectId,ADAT-IO-x4,41444154-2d49-44f2-9d78-342e6b696361,rev?*
G04 #@! TF.SameCoordinates,Original*
G04 #@! TF.FileFunction,Legend,Bot*
G04 #@! TF.FilePolarity,Positive*
%FSLAX46Y46*%
G04 Gerber Fmt 4.6, Leading zero omitted, Abs format (unit mm)*
G04 Created by KiCad (PCBNEW (5.1.9-0-10_14)) date 2021-08-01 14:36:09*
%MOMM*%
%LPD*%
G01*
G04 APERTURE LIST*
%ADD10C,0.150000*%
%ADD11C,0.120000*%
%ADD12C,0.300000*%
G04 APERTURE END LIST*
D10*
X206188980Y-81837708D02*
X206188980Y-82837708D01*
X207556360Y-82647232D02*
X207080170Y-82313899D01*
X207556360Y-82075803D02*
X206556360Y-82075803D01*
X206556360Y-82456756D01*
X206603980Y-82551994D01*
X206651599Y-82599613D01*
X206746837Y-82647232D01*
X206889694Y-82647232D01*
X206984932Y-82599613D01*
X207032551Y-82551994D01*
X207080170Y-82456756D01*
X207080170Y-82075803D01*
X206188980Y-82837708D02*
X206188980Y-83742470D01*
X207032551Y-83075803D02*
X207032551Y-83409137D01*
X207556360Y-83551994D02*
X207556360Y-83075803D01*
X206556360Y-83075803D01*
X206556360Y-83551994D01*
X206188980Y-83742470D02*
X206188980Y-84694851D01*
X207508741Y-83932946D02*
X207556360Y-84075803D01*
X207556360Y-84313899D01*
X207508741Y-84409137D01*
X207461122Y-84456756D01*
X207365884Y-84504375D01*
X207270646Y-84504375D01*
X207175408Y-84456756D01*
X207127789Y-84409137D01*
X207080170Y-84313899D01*
X207032551Y-84123422D01*
X206984932Y-84028184D01*
X206937313Y-83980565D01*
X206842075Y-83932946D01*
X206746837Y-83932946D01*
X206651599Y-83980565D01*
X206603980Y-84028184D01*
X206556360Y-84123422D01*
X206556360Y-84361518D01*
X206603980Y-84504375D01*
X208789940Y-89567308D02*
X208789940Y-90710165D01*
X210157320Y-89805403D02*
X209157320Y-89805403D01*
X209871606Y-90138737D01*
X209157320Y-90472070D01*
X210157320Y-90472070D01*
X208789940Y-90710165D02*
X208789940Y-91757784D01*
X209157320Y-90948260D02*
X209966844Y-90948260D01*
X210062082Y-90995880D01*
X210109701Y-91043499D01*
X210157320Y-91138737D01*
X210157320Y-91329213D01*
X210109701Y-91424451D01*
X210062082Y-91472070D01*
X209966844Y-91519689D01*
X209157320Y-91519689D01*
X208789940Y-91757784D02*
X208789940Y-92519689D01*
X209157320Y-91853022D02*
X209157320Y-92424451D01*
X210157320Y-92138737D02*
X209157320Y-92138737D01*
X208789940Y-92519689D02*
X208789940Y-93424451D01*
X209633511Y-92757784D02*
X209633511Y-93091118D01*
X210157320Y-93233975D02*
X210157320Y-92757784D01*
X209157320Y-92757784D01*
X209157320Y-93233975D01*
X148285580Y-96245775D02*
X148237960Y-96150537D01*
X148237960Y-96007680D01*
X148285580Y-95864822D01*
X148380818Y-95769584D01*
X148476056Y-95721965D01*
X148666532Y-95674346D01*
X148809389Y-95674346D01*
X148999865Y-95721965D01*
X149095103Y-95769584D01*
X149190341Y-95864822D01*
X149237960Y-96007680D01*
X149237960Y-96102918D01*
X149190341Y-96245775D01*
X149142722Y-96293394D01*
X148809389Y-96293394D01*
X148809389Y-96102918D01*
X149237960Y-96721965D02*
X148237960Y-96721965D01*
X149237960Y-97293394D01*
X148237960Y-97293394D01*
X149237960Y-97769584D02*
X148237960Y-97769584D01*
X148237960Y-98007680D01*
X148285580Y-98150537D01*
X148380818Y-98245775D01*
X148476056Y-98293394D01*
X148666532Y-98341013D01*
X148809389Y-98341013D01*
X148999865Y-98293394D01*
X149095103Y-98245775D01*
X149190341Y-98150537D01*
X149237960Y-98007680D01*
X149237960Y-97769584D01*
X151776061Y-95663238D02*
X151823680Y-95806095D01*
X151823680Y-96044190D01*
X151776061Y-96139428D01*
X151728442Y-96187047D01*
X151633204Y-96234666D01*
X151537966Y-96234666D01*
X151442728Y-96187047D01*
X151395109Y-96139428D01*
X151347490Y-96044190D01*
X151299871Y-95853714D01*
X151252252Y-95758476D01*
X151204633Y-95710857D01*
X151109395Y-95663238D01*
X151014157Y-95663238D01*
X150918919Y-95710857D01*
X150871300Y-95758476D01*
X150823680Y-95853714D01*
X150823680Y-96091809D01*
X150871300Y-96234666D01*
X151823680Y-96663238D02*
X150823680Y-96663238D01*
X151537966Y-96996571D01*
X150823680Y-97329904D01*
X151823680Y-97329904D01*
X150823680Y-97806095D02*
X151633204Y-97806095D01*
X151728442Y-97853714D01*
X151776061Y-97901333D01*
X151823680Y-97996571D01*
X151823680Y-98187047D01*
X151776061Y-98282285D01*
X151728442Y-98329904D01*
X151633204Y-98377523D01*
X150823680Y-98377523D01*
X150823680Y-98758476D02*
X151823680Y-99425142D01*
X150823680Y-99425142D02*
X151823680Y-98758476D01*
X151442728Y-99806095D02*
X151442728Y-100568000D01*
X150823680Y-101234666D02*
X150823680Y-101425142D01*
X150871300Y-101520380D01*
X150966538Y-101615619D01*
X151157014Y-101663238D01*
X151490347Y-101663238D01*
X151680823Y-101615619D01*
X151776061Y-101520380D01*
X151823680Y-101425142D01*
X151823680Y-101234666D01*
X151776061Y-101139428D01*
X151680823Y-101044190D01*
X151490347Y-100996571D01*
X151157014Y-100996571D01*
X150966538Y-101044190D01*
X150871300Y-101139428D01*
X150823680Y-101234666D01*
X150823680Y-102091809D02*
X151633204Y-102091809D01*
X151728442Y-102139428D01*
X151776061Y-102187047D01*
X151823680Y-102282285D01*
X151823680Y-102472761D01*
X151776061Y-102568000D01*
X151728442Y-102615619D01*
X151633204Y-102663238D01*
X150823680Y-102663238D01*
X150823680Y-102996571D02*
X150823680Y-103568000D01*
X151823680Y-103282285D02*
X150823680Y-103282285D01*
X229112700Y-124485304D02*
X229160319Y-124580542D01*
X229160319Y-124723400D01*
X229112700Y-124866257D01*
X229017461Y-124961495D01*
X228922223Y-125009114D01*
X228731747Y-125056733D01*
X228588890Y-125056733D01*
X228398414Y-125009114D01*
X228303176Y-124961495D01*
X228207938Y-124866257D01*
X228160319Y-124723400D01*
X228160319Y-124628161D01*
X228207938Y-124485304D01*
X228255557Y-124437685D01*
X228588890Y-124437685D01*
X228588890Y-124628161D01*
X228160319Y-124009114D02*
X229160319Y-124009114D01*
X228160319Y-123437685D01*
X229160319Y-123437685D01*
X228160319Y-122961495D02*
X229160319Y-122961495D01*
X229160319Y-122723400D01*
X229112700Y-122580542D01*
X229017461Y-122485304D01*
X228922223Y-122437685D01*
X228731747Y-122390066D01*
X228588890Y-122390066D01*
X228398414Y-122437685D01*
X228303176Y-122485304D01*
X228207938Y-122580542D01*
X228160319Y-122723400D01*
X228160319Y-122961495D01*
X169326820Y-89577444D02*
X168326820Y-89577444D01*
X169041106Y-89910778D01*
X168326820Y-90244111D01*
X169326820Y-90244111D01*
X169231582Y-91291730D02*
X169279201Y-91244111D01*
X169326820Y-91101254D01*
X169326820Y-91006016D01*
X169279201Y-90863159D01*
X169183963Y-90767920D01*
X169088725Y-90720301D01*
X168898249Y-90672682D01*
X168755392Y-90672682D01*
X168564916Y-90720301D01*
X168469678Y-90767920D01*
X168374440Y-90863159D01*
X168326820Y-91006016D01*
X168326820Y-91101254D01*
X168374440Y-91244111D01*
X168422059Y-91291730D01*
X169326820Y-92196492D02*
X169326820Y-91720301D01*
X168326820Y-91720301D01*
X169326820Y-92529825D02*
X168326820Y-92529825D01*
X169326820Y-93101254D02*
X168755392Y-92672682D01*
X168326820Y-93101254D02*
X168898249Y-92529825D01*
X160722060Y-89846969D02*
X160722060Y-90037445D01*
X160769680Y-90132683D01*
X160864918Y-90227921D01*
X161055394Y-90275540D01*
X161388727Y-90275540D01*
X161579203Y-90227921D01*
X161674441Y-90132683D01*
X161722060Y-90037445D01*
X161722060Y-89846969D01*
X161674441Y-89751731D01*
X161579203Y-89656493D01*
X161388727Y-89608874D01*
X161055394Y-89608874D01*
X160864918Y-89656493D01*
X160769680Y-89751731D01*
X160722060Y-89846969D01*
X160722060Y-90704112D02*
X161531584Y-90704112D01*
X161626822Y-90751731D01*
X161674441Y-90799350D01*
X161722060Y-90894588D01*
X161722060Y-91085064D01*
X161674441Y-91180302D01*
X161626822Y-91227921D01*
X161531584Y-91275540D01*
X160722060Y-91275540D01*
X160722060Y-91608874D02*
X160722060Y-92180302D01*
X161722060Y-91894588D02*
X160722060Y-91894588D01*
X160817299Y-92466017D02*
X160769680Y-92513636D01*
X160722060Y-92608874D01*
X160722060Y-92846969D01*
X160769680Y-92942207D01*
X160817299Y-92989826D01*
X160912537Y-93037445D01*
X161007775Y-93037445D01*
X161150632Y-92989826D01*
X161722060Y-92418398D01*
X161722060Y-93037445D01*
X164189041Y-89642463D02*
X164236660Y-89785320D01*
X164236660Y-90023416D01*
X164189041Y-90118654D01*
X164141422Y-90166273D01*
X164046184Y-90213892D01*
X163950946Y-90213892D01*
X163855708Y-90166273D01*
X163808089Y-90118654D01*
X163760470Y-90023416D01*
X163712851Y-89832940D01*
X163665232Y-89737701D01*
X163617613Y-89690082D01*
X163522375Y-89642463D01*
X163427137Y-89642463D01*
X163331899Y-89690082D01*
X163284280Y-89737701D01*
X163236660Y-89832940D01*
X163236660Y-90071035D01*
X163284280Y-90213892D01*
X164141422Y-91213892D02*
X164189041Y-91166273D01*
X164236660Y-91023416D01*
X164236660Y-90928178D01*
X164189041Y-90785320D01*
X164093803Y-90690082D01*
X163998565Y-90642463D01*
X163808089Y-90594844D01*
X163665232Y-90594844D01*
X163474756Y-90642463D01*
X163379518Y-90690082D01*
X163284280Y-90785320D01*
X163236660Y-90928178D01*
X163236660Y-91023416D01*
X163284280Y-91166273D01*
X163331899Y-91213892D01*
X164236660Y-92118654D02*
X164236660Y-91642463D01*
X163236660Y-91642463D01*
X165723320Y-89796098D02*
X166723320Y-90034193D01*
X166009035Y-90224669D01*
X166723320Y-90415145D01*
X165723320Y-90653240D01*
X166675701Y-90986574D02*
X166723320Y-91129431D01*
X166723320Y-91367526D01*
X166675701Y-91462764D01*
X166628082Y-91510383D01*
X166532844Y-91558002D01*
X166437606Y-91558002D01*
X166342368Y-91510383D01*
X166294749Y-91462764D01*
X166247130Y-91367526D01*
X166199511Y-91177050D01*
X166151892Y-91081812D01*
X166104273Y-91034193D01*
X166009035Y-90986574D01*
X165913797Y-90986574D01*
X165818559Y-91034193D01*
X165770940Y-91081812D01*
X165723320Y-91177050D01*
X165723320Y-91415145D01*
X165770940Y-91558002D01*
X158242380Y-90220895D02*
X158194760Y-90125657D01*
X158194760Y-89982800D01*
X158242380Y-89839942D01*
X158337618Y-89744704D01*
X158432856Y-89697085D01*
X158623332Y-89649466D01*
X158766189Y-89649466D01*
X158956665Y-89697085D01*
X159051903Y-89744704D01*
X159147141Y-89839942D01*
X159194760Y-89982800D01*
X159194760Y-90078038D01*
X159147141Y-90220895D01*
X159099522Y-90268514D01*
X158766189Y-90268514D01*
X158766189Y-90078038D01*
X159194760Y-90697085D02*
X158194760Y-90697085D01*
X159194760Y-91268514D01*
X158194760Y-91268514D01*
X159194760Y-91744704D02*
X158194760Y-91744704D01*
X158194760Y-91982800D01*
X158242380Y-92125657D01*
X158337618Y-92220895D01*
X158432856Y-92268514D01*
X158623332Y-92316133D01*
X158766189Y-92316133D01*
X158956665Y-92268514D01*
X159051903Y-92220895D01*
X159147141Y-92125657D01*
X159194760Y-91982800D01*
X159194760Y-91744704D01*
X153236680Y-81444649D02*
X153236680Y-81635125D01*
X153284300Y-81730363D01*
X153379538Y-81825601D01*
X153570014Y-81873220D01*
X153903347Y-81873220D01*
X154093823Y-81825601D01*
X154189061Y-81730363D01*
X154236680Y-81635125D01*
X154236680Y-81444649D01*
X154189061Y-81349411D01*
X154093823Y-81254173D01*
X153903347Y-81206554D01*
X153570014Y-81206554D01*
X153379538Y-81254173D01*
X153284300Y-81349411D01*
X153236680Y-81444649D01*
X153236680Y-82301792D02*
X154046204Y-82301792D01*
X154141442Y-82349411D01*
X154189061Y-82397030D01*
X154236680Y-82492268D01*
X154236680Y-82682744D01*
X154189061Y-82777982D01*
X154141442Y-82825601D01*
X154046204Y-82873220D01*
X153236680Y-82873220D01*
X153236680Y-83206554D02*
X153236680Y-83777982D01*
X154236680Y-83492268D02*
X153236680Y-83492268D01*
X154236680Y-84635125D02*
X154236680Y-84063697D01*
X154236680Y-84349411D02*
X153236680Y-84349411D01*
X153379538Y-84254173D01*
X153474776Y-84158935D01*
X153522395Y-84063697D01*
X150579840Y-89819029D02*
X150579840Y-90009505D01*
X150627460Y-90104743D01*
X150722698Y-90199981D01*
X150913174Y-90247600D01*
X151246507Y-90247600D01*
X151436983Y-90199981D01*
X151532221Y-90104743D01*
X151579840Y-90009505D01*
X151579840Y-89819029D01*
X151532221Y-89723791D01*
X151436983Y-89628553D01*
X151246507Y-89580934D01*
X150913174Y-89580934D01*
X150722698Y-89628553D01*
X150627460Y-89723791D01*
X150579840Y-89819029D01*
X150579840Y-90676172D02*
X151389364Y-90676172D01*
X151484602Y-90723791D01*
X151532221Y-90771410D01*
X151579840Y-90866648D01*
X151579840Y-91057124D01*
X151532221Y-91152362D01*
X151484602Y-91199981D01*
X151389364Y-91247600D01*
X150579840Y-91247600D01*
X150579840Y-91580934D02*
X150579840Y-92152362D01*
X151579840Y-91866648D02*
X150579840Y-91866648D01*
X150579840Y-92676172D02*
X150579840Y-92771410D01*
X150627460Y-92866648D01*
X150675079Y-92914267D01*
X150770317Y-92961886D01*
X150960793Y-93009505D01*
X151198888Y-93009505D01*
X151389364Y-92961886D01*
X151484602Y-92914267D01*
X151532221Y-92866648D01*
X151579840Y-92771410D01*
X151579840Y-92676172D01*
X151532221Y-92580934D01*
X151484602Y-92533315D01*
X151389364Y-92485696D01*
X151198888Y-92438077D01*
X150960793Y-92438077D01*
X150770317Y-92485696D01*
X150675079Y-92533315D01*
X150627460Y-92580934D01*
X150579840Y-92676172D01*
X220028401Y-89695803D02*
X220076020Y-89838660D01*
X220076020Y-90076756D01*
X220028401Y-90171994D01*
X219980782Y-90219613D01*
X219885544Y-90267232D01*
X219790306Y-90267232D01*
X219695068Y-90219613D01*
X219647449Y-90171994D01*
X219599830Y-90076756D01*
X219552211Y-89886280D01*
X219504592Y-89791041D01*
X219456973Y-89743422D01*
X219361735Y-89695803D01*
X219266497Y-89695803D01*
X219171259Y-89743422D01*
X219123640Y-89791041D01*
X219076020Y-89886280D01*
X219076020Y-90124375D01*
X219123640Y-90267232D01*
X219980782Y-91267232D02*
X220028401Y-91219613D01*
X220076020Y-91076756D01*
X220076020Y-90981518D01*
X220028401Y-90838660D01*
X219933163Y-90743422D01*
X219837925Y-90695803D01*
X219647449Y-90648184D01*
X219504592Y-90648184D01*
X219314116Y-90695803D01*
X219218878Y-90743422D01*
X219123640Y-90838660D01*
X219076020Y-90981518D01*
X219076020Y-91076756D01*
X219123640Y-91219613D01*
X219171259Y-91267232D01*
X220076020Y-92171994D02*
X220076020Y-91695803D01*
X219076020Y-91695803D01*
X221730320Y-89732598D02*
X222730320Y-89970693D01*
X222016035Y-90161169D01*
X222730320Y-90351645D01*
X221730320Y-90589740D01*
X222682701Y-90923074D02*
X222730320Y-91065931D01*
X222730320Y-91304026D01*
X222682701Y-91399264D01*
X222635082Y-91446883D01*
X222539844Y-91494502D01*
X222444606Y-91494502D01*
X222349368Y-91446883D01*
X222301749Y-91399264D01*
X222254130Y-91304026D01*
X222206511Y-91113550D01*
X222158892Y-91018312D01*
X222111273Y-90970693D01*
X222016035Y-90923074D01*
X221920797Y-90923074D01*
X221825559Y-90970693D01*
X221777940Y-91018312D01*
X221730320Y-91113550D01*
X221730320Y-91351645D01*
X221777940Y-91494502D01*
X217523320Y-89639900D02*
X216523320Y-89639900D01*
X217523320Y-90116090D02*
X216523320Y-90116090D01*
X217523320Y-90687519D01*
X216523320Y-90687519D01*
X216618559Y-91116090D02*
X216570940Y-91163709D01*
X216523320Y-91258947D01*
X216523320Y-91497042D01*
X216570940Y-91592280D01*
X216618559Y-91639900D01*
X216713797Y-91687519D01*
X216809035Y-91687519D01*
X216951892Y-91639900D01*
X217523320Y-91068471D01*
X217523320Y-91687519D01*
X207388720Y-89647520D02*
X206388720Y-89647520D01*
X207388720Y-90123710D02*
X206388720Y-90123710D01*
X207388720Y-90695139D01*
X206388720Y-90695139D01*
X206388720Y-91361805D02*
X206388720Y-91457043D01*
X206436340Y-91552281D01*
X206483959Y-91599900D01*
X206579197Y-91647520D01*
X206769673Y-91695139D01*
X207007768Y-91695139D01*
X207198244Y-91647520D01*
X207293482Y-91599900D01*
X207341101Y-91552281D01*
X207388720Y-91457043D01*
X207388720Y-91361805D01*
X207341101Y-91266567D01*
X207293482Y-91218948D01*
X207198244Y-91171329D01*
X207007768Y-91123710D01*
X206769673Y-91123710D01*
X206579197Y-91171329D01*
X206483959Y-91218948D01*
X206436340Y-91266567D01*
X206388720Y-91361805D01*
X209852520Y-82543140D02*
X208852520Y-82543140D01*
X209852520Y-83019330D02*
X208852520Y-83019330D01*
X209852520Y-83590759D01*
X208852520Y-83590759D01*
X209852520Y-84590759D02*
X209852520Y-84019330D01*
X209852520Y-84305044D02*
X208852520Y-84305044D01*
X208995378Y-84209806D01*
X209090616Y-84114568D01*
X209138235Y-84019330D01*
X214122380Y-90246295D02*
X214074760Y-90151057D01*
X214074760Y-90008200D01*
X214122380Y-89865342D01*
X214217618Y-89770104D01*
X214312856Y-89722485D01*
X214503332Y-89674866D01*
X214646189Y-89674866D01*
X214836665Y-89722485D01*
X214931903Y-89770104D01*
X215027141Y-89865342D01*
X215074760Y-90008200D01*
X215074760Y-90103438D01*
X215027141Y-90246295D01*
X214979522Y-90293914D01*
X214646189Y-90293914D01*
X214646189Y-90103438D01*
X215074760Y-90722485D02*
X214074760Y-90722485D01*
X215074760Y-91293914D01*
X214074760Y-91293914D01*
X215074760Y-91770104D02*
X214074760Y-91770104D01*
X214074760Y-92008200D01*
X214122380Y-92151057D01*
X214217618Y-92246295D01*
X214312856Y-92293914D01*
X214503332Y-92341533D01*
X214646189Y-92341533D01*
X214836665Y-92293914D01*
X214931903Y-92246295D01*
X215027141Y-92151057D01*
X215074760Y-92008200D01*
X215074760Y-91770104D01*
X225176340Y-89585064D02*
X224176340Y-89585064D01*
X224890626Y-89918398D01*
X224176340Y-90251731D01*
X225176340Y-90251731D01*
X225081102Y-91299350D02*
X225128721Y-91251731D01*
X225176340Y-91108874D01*
X225176340Y-91013636D01*
X225128721Y-90870779D01*
X225033483Y-90775540D01*
X224938245Y-90727921D01*
X224747769Y-90680302D01*
X224604912Y-90680302D01*
X224414436Y-90727921D01*
X224319198Y-90775540D01*
X224223960Y-90870779D01*
X224176340Y-91013636D01*
X224176340Y-91108874D01*
X224223960Y-91251731D01*
X224271579Y-91299350D01*
X225176340Y-92204112D02*
X225176340Y-91727921D01*
X224176340Y-91727921D01*
X225176340Y-92537445D02*
X224176340Y-92537445D01*
X225176340Y-93108874D02*
X224604912Y-92680302D01*
X224176340Y-93108874D02*
X224747769Y-92537445D01*
X203613420Y-78642388D02*
X203613420Y-79642388D01*
X204980800Y-79451912D02*
X204504610Y-79118579D01*
X204980800Y-78880483D02*
X203980800Y-78880483D01*
X203980800Y-79261436D01*
X204028420Y-79356674D01*
X204076039Y-79404293D01*
X204171277Y-79451912D01*
X204314134Y-79451912D01*
X204409372Y-79404293D01*
X204456991Y-79356674D01*
X204504610Y-79261436D01*
X204504610Y-78880483D01*
X203613420Y-79642388D02*
X203613420Y-80547150D01*
X204456991Y-79880483D02*
X204456991Y-80213817D01*
X204980800Y-80356674D02*
X204980800Y-79880483D01*
X203980800Y-79880483D01*
X203980800Y-80356674D01*
X203613420Y-80547150D02*
X203613420Y-81499531D01*
X204933181Y-80737626D02*
X204980800Y-80880483D01*
X204980800Y-81118579D01*
X204933181Y-81213817D01*
X204885562Y-81261436D01*
X204790324Y-81309055D01*
X204695086Y-81309055D01*
X204599848Y-81261436D01*
X204552229Y-81213817D01*
X204504610Y-81118579D01*
X204456991Y-80928102D01*
X204409372Y-80832864D01*
X204361753Y-80785245D01*
X204266515Y-80737626D01*
X204171277Y-80737626D01*
X204076039Y-80785245D01*
X204028420Y-80832864D01*
X203980800Y-80928102D01*
X203980800Y-81166198D01*
X204028420Y-81309055D01*
X220182653Y-95308088D02*
X220135034Y-95260469D01*
X219992177Y-95165231D01*
X219896939Y-95117612D01*
X219754081Y-95069993D01*
X219515986Y-95022374D01*
X219325510Y-95022374D01*
X219087415Y-95069993D01*
X218944558Y-95117612D01*
X218849320Y-95165231D01*
X218706462Y-95260469D01*
X218658843Y-95308088D01*
X219135034Y-96117612D02*
X219801700Y-96117612D01*
X218754081Y-95879517D02*
X219468367Y-95641421D01*
X219468367Y-96260469D01*
X219230272Y-96784279D02*
X219182653Y-96689040D01*
X219135034Y-96641421D01*
X219039796Y-96593802D01*
X218992177Y-96593802D01*
X218896939Y-96641421D01*
X218849320Y-96689040D01*
X218801700Y-96784279D01*
X218801700Y-96974755D01*
X218849320Y-97069993D01*
X218896939Y-97117612D01*
X218992177Y-97165231D01*
X219039796Y-97165231D01*
X219135034Y-97117612D01*
X219182653Y-97069993D01*
X219230272Y-96974755D01*
X219230272Y-96784279D01*
X219277891Y-96689040D01*
X219325510Y-96641421D01*
X219420748Y-96593802D01*
X219611224Y-96593802D01*
X219706462Y-96641421D01*
X219754081Y-96689040D01*
X219801700Y-96784279D01*
X219801700Y-96974755D01*
X219754081Y-97069993D01*
X219706462Y-97117612D01*
X219611224Y-97165231D01*
X219420748Y-97165231D01*
X219325510Y-97117612D01*
X219277891Y-97069993D01*
X219230272Y-96974755D01*
X219801700Y-97593802D02*
X218801700Y-97593802D01*
X219420748Y-97689040D02*
X219801700Y-97974755D01*
X219135034Y-97974755D02*
X219515986Y-97593802D01*
X219801700Y-98403326D02*
X218801700Y-98403326D01*
X219277891Y-98403326D02*
X219277891Y-98974755D01*
X219801700Y-98974755D02*
X218801700Y-98974755D01*
X219135034Y-99355707D02*
X219135034Y-99879517D01*
X219801700Y-99355707D01*
X219801700Y-99879517D01*
X220182653Y-100165231D02*
X220135034Y-100212850D01*
X219992177Y-100308088D01*
X219896939Y-100355707D01*
X219754081Y-100403326D01*
X219515986Y-100450945D01*
X219325510Y-100450945D01*
X219087415Y-100403326D01*
X218944558Y-100355707D01*
X218849320Y-100308088D01*
X218706462Y-100212850D01*
X218658843Y-100165231D01*
X157170333Y-92437888D02*
X157122714Y-92390269D01*
X156979857Y-92295031D01*
X156884619Y-92247412D01*
X156741761Y-92199793D01*
X156503666Y-92152174D01*
X156313190Y-92152174D01*
X156075095Y-92199793D01*
X155932238Y-92247412D01*
X155837000Y-92295031D01*
X155694142Y-92390269D01*
X155646523Y-92437888D01*
X156122714Y-93247412D02*
X156789380Y-93247412D01*
X155741761Y-93009317D02*
X156456047Y-92771221D01*
X156456047Y-93390269D01*
X156217952Y-93914079D02*
X156170333Y-93818840D01*
X156122714Y-93771221D01*
X156027476Y-93723602D01*
X155979857Y-93723602D01*
X155884619Y-93771221D01*
X155837000Y-93818840D01*
X155789380Y-93914079D01*
X155789380Y-94104555D01*
X155837000Y-94199793D01*
X155884619Y-94247412D01*
X155979857Y-94295031D01*
X156027476Y-94295031D01*
X156122714Y-94247412D01*
X156170333Y-94199793D01*
X156217952Y-94104555D01*
X156217952Y-93914079D01*
X156265571Y-93818840D01*
X156313190Y-93771221D01*
X156408428Y-93723602D01*
X156598904Y-93723602D01*
X156694142Y-93771221D01*
X156741761Y-93818840D01*
X156789380Y-93914079D01*
X156789380Y-94104555D01*
X156741761Y-94199793D01*
X156694142Y-94247412D01*
X156598904Y-94295031D01*
X156408428Y-94295031D01*
X156313190Y-94247412D01*
X156265571Y-94199793D01*
X156217952Y-94104555D01*
X156789380Y-94723602D02*
X155789380Y-94723602D01*
X156408428Y-94818840D02*
X156789380Y-95104555D01*
X156122714Y-95104555D02*
X156503666Y-94723602D01*
X156789380Y-95533126D02*
X155789380Y-95533126D01*
X156265571Y-95533126D02*
X156265571Y-96104555D01*
X156789380Y-96104555D02*
X155789380Y-96104555D01*
X156122714Y-96485507D02*
X156122714Y-97009317D01*
X156789380Y-96485507D01*
X156789380Y-97009317D01*
X157170333Y-97295031D02*
X157122714Y-97342650D01*
X156979857Y-97437888D01*
X156884619Y-97485507D01*
X156741761Y-97533126D01*
X156503666Y-97580745D01*
X156313190Y-97580745D01*
X156075095Y-97533126D01*
X155932238Y-97485507D01*
X155837000Y-97437888D01*
X155694142Y-97342650D01*
X155646523Y-97295031D01*
X153718592Y-94270841D02*
X153670973Y-94175603D01*
X153623354Y-94127984D01*
X153528116Y-94080365D01*
X153480497Y-94080365D01*
X153385259Y-94127984D01*
X153337640Y-94175603D01*
X153290020Y-94270841D01*
X153290020Y-94461318D01*
X153337640Y-94556556D01*
X153385259Y-94604175D01*
X153480497Y-94651794D01*
X153528116Y-94651794D01*
X153623354Y-94604175D01*
X153670973Y-94556556D01*
X153718592Y-94461318D01*
X153718592Y-94270841D01*
X153766211Y-94175603D01*
X153813830Y-94127984D01*
X153909068Y-94080365D01*
X154099544Y-94080365D01*
X154194782Y-94127984D01*
X154242401Y-94175603D01*
X154290020Y-94270841D01*
X154290020Y-94461318D01*
X154242401Y-94556556D01*
X154194782Y-94604175D01*
X154099544Y-94651794D01*
X153909068Y-94651794D01*
X153813830Y-94604175D01*
X153766211Y-94556556D01*
X153718592Y-94461318D01*
X216591212Y-97384881D02*
X216543593Y-97289643D01*
X216495974Y-97242024D01*
X216400736Y-97194405D01*
X216353117Y-97194405D01*
X216257879Y-97242024D01*
X216210260Y-97289643D01*
X216162640Y-97384881D01*
X216162640Y-97575358D01*
X216210260Y-97670596D01*
X216257879Y-97718215D01*
X216353117Y-97765834D01*
X216400736Y-97765834D01*
X216495974Y-97718215D01*
X216543593Y-97670596D01*
X216591212Y-97575358D01*
X216591212Y-97384881D01*
X216638831Y-97289643D01*
X216686450Y-97242024D01*
X216781688Y-97194405D01*
X216972164Y-97194405D01*
X217067402Y-97242024D01*
X217115021Y-97289643D01*
X217162640Y-97384881D01*
X217162640Y-97575358D01*
X217115021Y-97670596D01*
X217067402Y-97718215D01*
X216972164Y-97765834D01*
X216781688Y-97765834D01*
X216686450Y-97718215D01*
X216638831Y-97670596D01*
X216591212Y-97575358D01*
D11*
X217688160Y-110553500D02*
X217672920Y-117345460D01*
X215821820Y-110537960D02*
X215821820Y-106037960D01*
X219321820Y-110537960D02*
X215821820Y-110537960D01*
X219321820Y-106037960D02*
X219321820Y-110537960D01*
X215821820Y-106037960D02*
X219321820Y-106037960D01*
D10*
X217001886Y-106615740D02*
X217001886Y-107091931D01*
X217287600Y-106520502D02*
X216287600Y-106853836D01*
X217287600Y-107187169D01*
X217287600Y-107520502D02*
X216287600Y-107520502D01*
X216287600Y-107758598D01*
X216335220Y-107901455D01*
X216430458Y-107996693D01*
X216525696Y-108044312D01*
X216716172Y-108091931D01*
X216859029Y-108091931D01*
X217049505Y-108044312D01*
X217144743Y-107996693D01*
X217239981Y-107901455D01*
X217287600Y-107758598D01*
X217287600Y-107520502D01*
X217001886Y-108472883D02*
X217001886Y-108949074D01*
X217287600Y-108377645D02*
X216287600Y-108710979D01*
X217287600Y-109044312D01*
X216287600Y-109234788D02*
X216287600Y-109806217D01*
X217287600Y-109520502D02*
X216287600Y-109520502D01*
X218413791Y-106925264D02*
X218413791Y-107258598D01*
X218937600Y-107401455D02*
X218937600Y-106925264D01*
X217937600Y-106925264D01*
X217937600Y-107401455D01*
X218937600Y-107830026D02*
X217937600Y-107830026D01*
X218937600Y-108401455D01*
X217937600Y-108401455D01*
X218842362Y-109449074D02*
X218889981Y-109401455D01*
X218937600Y-109258598D01*
X218937600Y-109163360D01*
X218889981Y-109020502D01*
X218794743Y-108925264D01*
X218699505Y-108877645D01*
X218509029Y-108830026D01*
X218366172Y-108830026D01*
X218175696Y-108877645D01*
X218080458Y-108925264D01*
X217985220Y-109020502D01*
X217937600Y-109163360D01*
X217937600Y-109258598D01*
X217985220Y-109401455D01*
X218032839Y-109449074D01*
D11*
X154462480Y-101081840D02*
X154475180Y-96329500D01*
X152789180Y-105587500D02*
X152789180Y-101087500D01*
X156289180Y-105587500D02*
X152789180Y-105587500D01*
X156289180Y-101087500D02*
X156289180Y-105587500D01*
X152789180Y-101087500D02*
X156289180Y-101087500D01*
D10*
X153969246Y-101665280D02*
X153969246Y-102141471D01*
X154254960Y-101570042D02*
X153254960Y-101903376D01*
X154254960Y-102236709D01*
X154254960Y-102570042D02*
X153254960Y-102570042D01*
X153254960Y-102808138D01*
X153302580Y-102950995D01*
X153397818Y-103046233D01*
X153493056Y-103093852D01*
X153683532Y-103141471D01*
X153826389Y-103141471D01*
X154016865Y-103093852D01*
X154112103Y-103046233D01*
X154207341Y-102950995D01*
X154254960Y-102808138D01*
X154254960Y-102570042D01*
X153969246Y-103522423D02*
X153969246Y-103998614D01*
X154254960Y-103427185D02*
X153254960Y-103760519D01*
X154254960Y-104093852D01*
X153254960Y-104284328D02*
X153254960Y-104855757D01*
X154254960Y-104570042D02*
X153254960Y-104570042D01*
X155904960Y-101998614D02*
X154904960Y-101998614D01*
X154904960Y-102236709D01*
X154952580Y-102379566D01*
X155047818Y-102474804D01*
X155143056Y-102522423D01*
X155333532Y-102570042D01*
X155476389Y-102570042D01*
X155666865Y-102522423D01*
X155762103Y-102474804D01*
X155857341Y-102379566D01*
X155904960Y-102236709D01*
X155904960Y-101998614D01*
X155381151Y-102998614D02*
X155381151Y-103331947D01*
X155904960Y-103474804D02*
X155904960Y-102998614D01*
X154904960Y-102998614D01*
X154904960Y-103474804D01*
X155809722Y-104474804D02*
X155857341Y-104427185D01*
X155904960Y-104284328D01*
X155904960Y-104189090D01*
X155857341Y-104046233D01*
X155762103Y-103950995D01*
X155666865Y-103903376D01*
X155476389Y-103855757D01*
X155333532Y-103855757D01*
X155143056Y-103903376D01*
X155047818Y-103950995D01*
X154952580Y-104046233D01*
X154904960Y-104189090D01*
X154904960Y-104284328D01*
X154952580Y-104427185D01*
X155000199Y-104474804D01*
X193559180Y-119624838D02*
X193559180Y-120196266D01*
X194559180Y-119910552D02*
X193559180Y-119910552D01*
X193559180Y-120434361D02*
X194559180Y-121101028D01*
X193559180Y-121101028D02*
X194559180Y-120434361D01*
X194178228Y-121481980D02*
X194178228Y-122243885D01*
X193606800Y-123243885D02*
X193559180Y-123148647D01*
X193559180Y-123005790D01*
X193606800Y-122862933D01*
X193702038Y-122767695D01*
X193797276Y-122720076D01*
X193987752Y-122672457D01*
X194130609Y-122672457D01*
X194321085Y-122720076D01*
X194416323Y-122767695D01*
X194511561Y-122862933D01*
X194559180Y-123005790D01*
X194559180Y-123101028D01*
X194511561Y-123243885D01*
X194463942Y-123291504D01*
X194130609Y-123291504D01*
X194130609Y-123101028D01*
X194559180Y-123720076D02*
X193559180Y-123720076D01*
X194559180Y-124291504D01*
X193559180Y-124291504D01*
X194559180Y-124767695D02*
X193559180Y-124767695D01*
X193559180Y-125005790D01*
X193606800Y-125148647D01*
X193702038Y-125243885D01*
X193797276Y-125291504D01*
X193987752Y-125339123D01*
X194130609Y-125339123D01*
X194321085Y-125291504D01*
X194416323Y-125243885D01*
X194511561Y-125148647D01*
X194559180Y-125005790D01*
X194559180Y-124767695D01*
X181960780Y-120296276D02*
X181484590Y-119962942D01*
X181960780Y-119724847D02*
X180960780Y-119724847D01*
X180960780Y-120105800D01*
X181008400Y-120201038D01*
X181056019Y-120248657D01*
X181151257Y-120296276D01*
X181294114Y-120296276D01*
X181389352Y-120248657D01*
X181436971Y-120201038D01*
X181484590Y-120105800D01*
X181484590Y-119724847D01*
X180960780Y-120629609D02*
X181960780Y-121296276D01*
X180960780Y-121296276D02*
X181960780Y-120629609D01*
X181579828Y-121677228D02*
X181579828Y-122439133D01*
X181008400Y-123439133D02*
X180960780Y-123343895D01*
X180960780Y-123201038D01*
X181008400Y-123058180D01*
X181103638Y-122962942D01*
X181198876Y-122915323D01*
X181389352Y-122867704D01*
X181532209Y-122867704D01*
X181722685Y-122915323D01*
X181817923Y-122962942D01*
X181913161Y-123058180D01*
X181960780Y-123201038D01*
X181960780Y-123296276D01*
X181913161Y-123439133D01*
X181865542Y-123486752D01*
X181532209Y-123486752D01*
X181532209Y-123296276D01*
X181960780Y-123915323D02*
X180960780Y-123915323D01*
X181960780Y-124486752D01*
X180960780Y-124486752D01*
X181960780Y-124962942D02*
X180960780Y-124962942D01*
X180960780Y-125201038D01*
X181008400Y-125343895D01*
X181103638Y-125439133D01*
X181198876Y-125486752D01*
X181389352Y-125534371D01*
X181532209Y-125534371D01*
X181722685Y-125486752D01*
X181817923Y-125439133D01*
X181913161Y-125343895D01*
X181960780Y-125201038D01*
X181960780Y-124962942D01*
X194102028Y-114309685D02*
X194102028Y-115071590D01*
X194482980Y-114690638D02*
X193721076Y-114690638D01*
X193482980Y-116023971D02*
X193482980Y-115547780D01*
X193959171Y-115500161D01*
X193911552Y-115547780D01*
X193863933Y-115643019D01*
X193863933Y-115881114D01*
X193911552Y-115976352D01*
X193959171Y-116023971D01*
X194054409Y-116071590D01*
X194292504Y-116071590D01*
X194387742Y-116023971D01*
X194435361Y-115976352D01*
X194482980Y-115881114D01*
X194482980Y-115643019D01*
X194435361Y-115547780D01*
X194387742Y-115500161D01*
X193482980Y-116357304D02*
X194482980Y-116690638D01*
X193482980Y-117023971D01*
X181452828Y-114309685D02*
X181452828Y-115071590D01*
X181833780Y-114690638D02*
X181071876Y-114690638D01*
X180833780Y-116023971D02*
X180833780Y-115547780D01*
X181309971Y-115500161D01*
X181262352Y-115547780D01*
X181214733Y-115643019D01*
X181214733Y-115881114D01*
X181262352Y-115976352D01*
X181309971Y-116023971D01*
X181405209Y-116071590D01*
X181643304Y-116071590D01*
X181738542Y-116023971D01*
X181786161Y-115976352D01*
X181833780Y-115881114D01*
X181833780Y-115643019D01*
X181786161Y-115547780D01*
X181738542Y-115500161D01*
X180833780Y-116357304D02*
X181833780Y-116690638D01*
X180833780Y-117023971D01*
X155262971Y-93397865D02*
X153762971Y-93397865D01*
X155191542Y-95183580D02*
X155262971Y-95397865D01*
X155262971Y-95755008D01*
X155191542Y-95897865D01*
X155120114Y-95969294D01*
X154977257Y-96040722D01*
X154834400Y-96040722D01*
X154691542Y-95969294D01*
X154620114Y-95897865D01*
X154548685Y-95755008D01*
X154477257Y-95469294D01*
X154405828Y-95326437D01*
X154334400Y-95255008D01*
X154191542Y-95183580D01*
X154048685Y-95183580D01*
X153905828Y-95255008D01*
X153834400Y-95326437D01*
X153762971Y-95469294D01*
X153762971Y-95826437D01*
X153834400Y-96040722D01*
X218224491Y-96544925D02*
X216724491Y-96544925D01*
X218153062Y-98330640D02*
X218224491Y-98544925D01*
X218224491Y-98902068D01*
X218153062Y-99044925D01*
X218081634Y-99116354D01*
X217938777Y-99187782D01*
X217795920Y-99187782D01*
X217653062Y-99116354D01*
X217581634Y-99044925D01*
X217510205Y-98902068D01*
X217438777Y-98616354D01*
X217367348Y-98473497D01*
X217295920Y-98402068D01*
X217153062Y-98330640D01*
X217010205Y-98330640D01*
X216867348Y-98402068D01*
X216795920Y-98473497D01*
X216724491Y-98616354D01*
X216724491Y-98973497D01*
X216795920Y-99187782D01*
D11*
X218671140Y-100975160D02*
X216308940Y-102041960D01*
D10*
X177315523Y-128849380D02*
X177315523Y-127849380D01*
X176934571Y-127849380D01*
X176839333Y-127897000D01*
X176791714Y-127944619D01*
X176744095Y-128039857D01*
X176744095Y-128182714D01*
X176791714Y-128277952D01*
X176839333Y-128325571D01*
X176934571Y-128373190D01*
X177315523Y-128373190D01*
X176125047Y-127849380D02*
X175934571Y-127849380D01*
X175839333Y-127897000D01*
X175744095Y-127992238D01*
X175696476Y-128182714D01*
X175696476Y-128516047D01*
X175744095Y-128706523D01*
X175839333Y-128801761D01*
X175934571Y-128849380D01*
X176125047Y-128849380D01*
X176220285Y-128801761D01*
X176315523Y-128706523D01*
X176363142Y-128516047D01*
X176363142Y-128182714D01*
X176315523Y-127992238D01*
X176220285Y-127897000D01*
X176125047Y-127849380D01*
X175363142Y-127849380D02*
X175125047Y-128849380D01*
X174934571Y-128135095D01*
X174744095Y-128849380D01*
X174506000Y-127849380D01*
X174125047Y-128325571D02*
X173791714Y-128325571D01*
X173648857Y-128849380D02*
X174125047Y-128849380D01*
X174125047Y-127849380D01*
X173648857Y-127849380D01*
X172648857Y-128849380D02*
X172982190Y-128373190D01*
X173220285Y-128849380D02*
X173220285Y-127849380D01*
X172839333Y-127849380D01*
X172744095Y-127897000D01*
X172696476Y-127944619D01*
X172648857Y-128039857D01*
X172648857Y-128182714D01*
X172696476Y-128277952D01*
X172744095Y-128325571D01*
X172839333Y-128373190D01*
X173220285Y-128373190D01*
D11*
X165778180Y-109766100D02*
X154602180Y-109766100D01*
X165778180Y-117411500D02*
X164000180Y-114363500D01*
X165778180Y-117411500D02*
X167556180Y-114236500D01*
X165778180Y-109766100D02*
X165778180Y-117411500D01*
X154475180Y-96329500D02*
X156253180Y-99377500D01*
X154475180Y-96329500D02*
X152697180Y-99504500D01*
X154498040Y-117462300D02*
X154475180Y-105587500D01*
X217680540Y-117358160D02*
X215902540Y-114310160D01*
X217680540Y-117358160D02*
X219458540Y-114183160D01*
X217535760Y-99913440D02*
X217540840Y-106039920D01*
D12*
X188337000Y-65899428D02*
X188337000Y-66470857D01*
X188765571Y-65785142D02*
X187265571Y-66185142D01*
X188765571Y-66585142D01*
X188765571Y-66985142D02*
X187265571Y-66985142D01*
X187265571Y-67270857D01*
X187337000Y-67442285D01*
X187479857Y-67556571D01*
X187622714Y-67613714D01*
X187908428Y-67670857D01*
X188122714Y-67670857D01*
X188408428Y-67613714D01*
X188551285Y-67556571D01*
X188694142Y-67442285D01*
X188765571Y-67270857D01*
X188765571Y-66985142D01*
X188337000Y-68128000D02*
X188337000Y-68699428D01*
X188765571Y-68013714D02*
X187265571Y-68413714D01*
X188765571Y-68813714D01*
X187265571Y-69042285D02*
X187265571Y-69728000D01*
X188765571Y-69385142D02*
X187265571Y-69385142D01*
X188194142Y-70128000D02*
X188194142Y-71042285D01*
X187265571Y-71842285D02*
X187265571Y-72070857D01*
X187337000Y-72185142D01*
X187479857Y-72299428D01*
X187765571Y-72356571D01*
X188265571Y-72356571D01*
X188551285Y-72299428D01*
X188694142Y-72185142D01*
X188765571Y-72070857D01*
X188765571Y-71842285D01*
X188694142Y-71728000D01*
X188551285Y-71613714D01*
X188265571Y-71556571D01*
X187765571Y-71556571D01*
X187479857Y-71613714D01*
X187337000Y-71728000D01*
X187265571Y-71842285D01*
X188765571Y-72870857D02*
X187265571Y-72870857D01*
X187265571Y-73328000D01*
X187337000Y-73442285D01*
X187408428Y-73499428D01*
X187551285Y-73556571D01*
X187765571Y-73556571D01*
X187908428Y-73499428D01*
X187979857Y-73442285D01*
X188051285Y-73328000D01*
X188051285Y-72870857D01*
X187265571Y-73899428D02*
X187265571Y-74585142D01*
X188765571Y-74242285D02*
X187265571Y-74242285D01*
X188765571Y-74985142D02*
X187265571Y-74985142D01*
X188622714Y-76242285D02*
X188694142Y-76185142D01*
X188765571Y-76013714D01*
X188765571Y-75899428D01*
X188694142Y-75728000D01*
X188551285Y-75613714D01*
X188408428Y-75556571D01*
X188122714Y-75499428D01*
X187908428Y-75499428D01*
X187622714Y-75556571D01*
X187479857Y-75613714D01*
X187337000Y-75728000D01*
X187265571Y-75899428D01*
X187265571Y-76013714D01*
X187337000Y-76185142D01*
X187408428Y-76242285D01*
X188337000Y-76699428D02*
X188337000Y-77270857D01*
X188765571Y-76585142D02*
X187265571Y-76985142D01*
X188765571Y-77385142D01*
X188765571Y-78356571D02*
X188765571Y-77785142D01*
X187265571Y-77785142D01*
X187265571Y-79499428D02*
X187265571Y-80185142D01*
X188765571Y-79842285D02*
X187265571Y-79842285D01*
X187265571Y-80813714D02*
X187265571Y-81042285D01*
X187337000Y-81156571D01*
X187479857Y-81270857D01*
X187765571Y-81328000D01*
X188265571Y-81328000D01*
X188551285Y-81270857D01*
X188694142Y-81156571D01*
X188765571Y-81042285D01*
X188765571Y-80813714D01*
X188694142Y-80699428D01*
X188551285Y-80585142D01*
X188265571Y-80528000D01*
X187765571Y-80528000D01*
X187479857Y-80585142D01*
X187337000Y-80699428D01*
X187265571Y-80813714D01*
X187979857Y-83156571D02*
X187979857Y-82756571D01*
X188765571Y-82756571D02*
X187265571Y-82756571D01*
X187265571Y-83328000D01*
X188765571Y-83785142D02*
X187765571Y-83785142D01*
X188051285Y-83785142D02*
X187908428Y-83842285D01*
X187837000Y-83899428D01*
X187765571Y-84013714D01*
X187765571Y-84128000D01*
X188694142Y-84985142D02*
X188765571Y-84870857D01*
X188765571Y-84642285D01*
X188694142Y-84528000D01*
X188551285Y-84470857D01*
X187979857Y-84470857D01*
X187837000Y-84528000D01*
X187765571Y-84642285D01*
X187765571Y-84870857D01*
X187837000Y-84985142D01*
X187979857Y-85042285D01*
X188122714Y-85042285D01*
X188265571Y-84470857D01*
X188694142Y-86013714D02*
X188765571Y-85899428D01*
X188765571Y-85670857D01*
X188694142Y-85556571D01*
X188551285Y-85499428D01*
X187979857Y-85499428D01*
X187837000Y-85556571D01*
X187765571Y-85670857D01*
X187765571Y-85899428D01*
X187837000Y-86013714D01*
X187979857Y-86070857D01*
X188122714Y-86070857D01*
X188265571Y-85499428D01*
X188765571Y-86585142D02*
X187265571Y-86585142D01*
X187265571Y-86870857D01*
X187337000Y-87042285D01*
X187479857Y-87156571D01*
X187622714Y-87213714D01*
X187908428Y-87270857D01*
X188122714Y-87270857D01*
X188408428Y-87213714D01*
X188551285Y-87156571D01*
X188694142Y-87042285D01*
X188765571Y-86870857D01*
X188765571Y-86585142D01*
X188694142Y-87728000D02*
X188765571Y-87899428D01*
X188765571Y-88185142D01*
X188694142Y-88299428D01*
X188622714Y-88356571D01*
X188479857Y-88413714D01*
X188337000Y-88413714D01*
X188194142Y-88356571D01*
X188122714Y-88299428D01*
X188051285Y-88185142D01*
X187979857Y-87956571D01*
X187908428Y-87842285D01*
X187837000Y-87785142D01*
X187694142Y-87728000D01*
X187551285Y-87728000D01*
X187408428Y-87785142D01*
X187337000Y-87842285D01*
X187265571Y-87956571D01*
X187265571Y-88242285D01*
X187337000Y-88413714D01*
X188765571Y-88928000D02*
X187265571Y-88928000D01*
X187265571Y-89385142D01*
X187337000Y-89499428D01*
X187408428Y-89556571D01*
X187551285Y-89613714D01*
X187765571Y-89613714D01*
X187908428Y-89556571D01*
X187979857Y-89499428D01*
X188051285Y-89385142D01*
X188051285Y-88928000D01*
X188765571Y-91042285D02*
X187265571Y-91042285D01*
X187908428Y-91785142D02*
X187837000Y-91670857D01*
X187765571Y-91613714D01*
X187622714Y-91556571D01*
X187551285Y-91556571D01*
X187408428Y-91613714D01*
X187337000Y-91670857D01*
X187265571Y-91785142D01*
X187265571Y-92013714D01*
X187337000Y-92128000D01*
X187408428Y-92185142D01*
X187551285Y-92242285D01*
X187622714Y-92242285D01*
X187765571Y-92185142D01*
X187837000Y-92128000D01*
X187908428Y-92013714D01*
X187908428Y-91785142D01*
X187979857Y-91670857D01*
X188051285Y-91613714D01*
X188194142Y-91556571D01*
X188479857Y-91556571D01*
X188622714Y-91613714D01*
X188694142Y-91670857D01*
X188765571Y-91785142D01*
X188765571Y-92013714D01*
X188694142Y-92128000D01*
X188622714Y-92185142D01*
X188479857Y-92242285D01*
X188194142Y-92242285D01*
X188051285Y-92185142D01*
X187979857Y-92128000D01*
X187908428Y-92013714D01*
X188694142Y-92699428D02*
X188765571Y-92870857D01*
X188765571Y-93156571D01*
X188694142Y-93270857D01*
X188622714Y-93328000D01*
X188479857Y-93385142D01*
X188337000Y-93385142D01*
X188194142Y-93328000D01*
X188122714Y-93270857D01*
X188051285Y-93156571D01*
X187979857Y-92928000D01*
X187908428Y-92813714D01*
X187837000Y-92756571D01*
X187694142Y-92699428D01*
X187551285Y-92699428D01*
X187408428Y-92756571D01*
X187337000Y-92813714D01*
X187265571Y-92928000D01*
X187265571Y-93213714D01*
X187337000Y-93385142D01*
X188765571Y-95499428D02*
X188051285Y-95099428D01*
X188765571Y-94813714D02*
X187265571Y-94813714D01*
X187265571Y-95270857D01*
X187337000Y-95385142D01*
X187408428Y-95442285D01*
X187551285Y-95499428D01*
X187765571Y-95499428D01*
X187908428Y-95442285D01*
X187979857Y-95385142D01*
X188051285Y-95270857D01*
X188051285Y-94813714D01*
X187979857Y-96013714D02*
X187979857Y-96413714D01*
X188765571Y-96585142D02*
X188765571Y-96013714D01*
X187265571Y-96013714D01*
X187265571Y-96585142D01*
X188622714Y-97785142D02*
X188694142Y-97728000D01*
X188765571Y-97556571D01*
X188765571Y-97442285D01*
X188694142Y-97270857D01*
X188551285Y-97156571D01*
X188408428Y-97099428D01*
X188122714Y-97042285D01*
X187908428Y-97042285D01*
X187622714Y-97099428D01*
X187479857Y-97156571D01*
X187337000Y-97270857D01*
X187265571Y-97442285D01*
X187265571Y-97556571D01*
X187337000Y-97728000D01*
X187408428Y-97785142D01*
X188765571Y-98299428D02*
X187265571Y-98299428D01*
X187979857Y-98870857D02*
X187979857Y-99270857D01*
X188765571Y-99442285D02*
X188765571Y-98870857D01*
X187265571Y-98870857D01*
X187265571Y-99442285D01*
X187265571Y-99785142D02*
X188765571Y-100185142D01*
X187265571Y-100585142D01*
X187979857Y-100985142D02*
X187979857Y-101385142D01*
X188765571Y-101556571D02*
X188765571Y-100985142D01*
X187265571Y-100985142D01*
X187265571Y-101556571D01*
X188765571Y-102756571D02*
X188051285Y-102356571D01*
X188765571Y-102070857D02*
X187265571Y-102070857D01*
X187265571Y-102528000D01*
X187337000Y-102642285D01*
X187408428Y-102699428D01*
X187551285Y-102756571D01*
X187765571Y-102756571D01*
X187908428Y-102699428D01*
X187979857Y-102642285D01*
X188051285Y-102528000D01*
X188051285Y-102070857D01*
X236747857Y-63642142D02*
X236747857Y-63242142D01*
X237533571Y-63242142D02*
X236033571Y-63242142D01*
X236033571Y-63813571D01*
X237533571Y-64270714D02*
X236533571Y-64270714D01*
X236819285Y-64270714D02*
X236676428Y-64327857D01*
X236605000Y-64385000D01*
X236533571Y-64499285D01*
X236533571Y-64613571D01*
X237462142Y-65470714D02*
X237533571Y-65356428D01*
X237533571Y-65127857D01*
X237462142Y-65013571D01*
X237319285Y-64956428D01*
X236747857Y-64956428D01*
X236605000Y-65013571D01*
X236533571Y-65127857D01*
X236533571Y-65356428D01*
X236605000Y-65470714D01*
X236747857Y-65527857D01*
X236890714Y-65527857D01*
X237033571Y-64956428D01*
X237462142Y-66499285D02*
X237533571Y-66385000D01*
X237533571Y-66156428D01*
X237462142Y-66042142D01*
X237319285Y-65985000D01*
X236747857Y-65985000D01*
X236605000Y-66042142D01*
X236533571Y-66156428D01*
X236533571Y-66385000D01*
X236605000Y-66499285D01*
X236747857Y-66556428D01*
X236890714Y-66556428D01*
X237033571Y-65985000D01*
X237533571Y-67070714D02*
X236033571Y-67070714D01*
X236033571Y-67356428D01*
X236105000Y-67527857D01*
X236247857Y-67642142D01*
X236390714Y-67699285D01*
X236676428Y-67756428D01*
X236890714Y-67756428D01*
X237176428Y-67699285D01*
X237319285Y-67642142D01*
X237462142Y-67527857D01*
X237533571Y-67356428D01*
X237533571Y-67070714D01*
X237462142Y-68213571D02*
X237533571Y-68385000D01*
X237533571Y-68670714D01*
X237462142Y-68785000D01*
X237390714Y-68842142D01*
X237247857Y-68899285D01*
X237105000Y-68899285D01*
X236962142Y-68842142D01*
X236890714Y-68785000D01*
X236819285Y-68670714D01*
X236747857Y-68442142D01*
X236676428Y-68327857D01*
X236605000Y-68270714D01*
X236462142Y-68213571D01*
X236319285Y-68213571D01*
X236176428Y-68270714D01*
X236105000Y-68327857D01*
X236033571Y-68442142D01*
X236033571Y-68727857D01*
X236105000Y-68899285D01*
X237533571Y-69413571D02*
X236033571Y-69413571D01*
X236033571Y-69870714D01*
X236105000Y-69985000D01*
X236176428Y-70042142D01*
X236319285Y-70099285D01*
X236533571Y-70099285D01*
X236676428Y-70042142D01*
X236747857Y-69985000D01*
X236819285Y-69870714D01*
X236819285Y-69413571D01*
X237533571Y-71527857D02*
X236033571Y-71527857D01*
X236676428Y-72270714D02*
X236605000Y-72156428D01*
X236533571Y-72099285D01*
X236390714Y-72042142D01*
X236319285Y-72042142D01*
X236176428Y-72099285D01*
X236105000Y-72156428D01*
X236033571Y-72270714D01*
X236033571Y-72499285D01*
X236105000Y-72613571D01*
X236176428Y-72670714D01*
X236319285Y-72727857D01*
X236390714Y-72727857D01*
X236533571Y-72670714D01*
X236605000Y-72613571D01*
X236676428Y-72499285D01*
X236676428Y-72270714D01*
X236747857Y-72156428D01*
X236819285Y-72099285D01*
X236962142Y-72042142D01*
X237247857Y-72042142D01*
X237390714Y-72099285D01*
X237462142Y-72156428D01*
X237533571Y-72270714D01*
X237533571Y-72499285D01*
X237462142Y-72613571D01*
X237390714Y-72670714D01*
X237247857Y-72727857D01*
X236962142Y-72727857D01*
X236819285Y-72670714D01*
X236747857Y-72613571D01*
X236676428Y-72499285D01*
X237462142Y-73185000D02*
X237533571Y-73356428D01*
X237533571Y-73642142D01*
X237462142Y-73756428D01*
X237390714Y-73813571D01*
X237247857Y-73870714D01*
X237105000Y-73870714D01*
X236962142Y-73813571D01*
X236890714Y-73756428D01*
X236819285Y-73642142D01*
X236747857Y-73413571D01*
X236676428Y-73299285D01*
X236605000Y-73242142D01*
X236462142Y-73185000D01*
X236319285Y-73185000D01*
X236176428Y-73242142D01*
X236105000Y-73299285D01*
X236033571Y-73413571D01*
X236033571Y-73699285D01*
X236105000Y-73870714D01*
X236033571Y-75127857D02*
X236033571Y-75813571D01*
X237533571Y-75470714D02*
X236033571Y-75470714D01*
X236033571Y-76442142D02*
X236033571Y-76670714D01*
X236105000Y-76785000D01*
X236247857Y-76899285D01*
X236533571Y-76956428D01*
X237033571Y-76956428D01*
X237319285Y-76899285D01*
X237462142Y-76785000D01*
X237533571Y-76670714D01*
X237533571Y-76442142D01*
X237462142Y-76327857D01*
X237319285Y-76213571D01*
X237033571Y-76156428D01*
X236533571Y-76156428D01*
X236247857Y-76213571D01*
X236105000Y-76327857D01*
X236033571Y-76442142D01*
X237105000Y-78327857D02*
X237105000Y-78899285D01*
X237533571Y-78213571D02*
X236033571Y-78613571D01*
X237533571Y-79013571D01*
X237533571Y-79413571D02*
X236033571Y-79413571D01*
X236033571Y-79699285D01*
X236105000Y-79870714D01*
X236247857Y-79985000D01*
X236390714Y-80042142D01*
X236676428Y-80099285D01*
X236890714Y-80099285D01*
X237176428Y-80042142D01*
X237319285Y-79985000D01*
X237462142Y-79870714D01*
X237533571Y-79699285D01*
X237533571Y-79413571D01*
X237105000Y-80556428D02*
X237105000Y-81127857D01*
X237533571Y-80442142D02*
X236033571Y-80842142D01*
X237533571Y-81242142D01*
X236033571Y-81470714D02*
X236033571Y-82156428D01*
X237533571Y-81813571D02*
X236033571Y-81813571D01*
X236962142Y-82556428D02*
X236962142Y-83470714D01*
X236033571Y-84270714D02*
X236033571Y-84499285D01*
X236105000Y-84613571D01*
X236247857Y-84727857D01*
X236533571Y-84785000D01*
X237033571Y-84785000D01*
X237319285Y-84727857D01*
X237462142Y-84613571D01*
X237533571Y-84499285D01*
X237533571Y-84270714D01*
X237462142Y-84156428D01*
X237319285Y-84042142D01*
X237033571Y-83985000D01*
X236533571Y-83985000D01*
X236247857Y-84042142D01*
X236105000Y-84156428D01*
X236033571Y-84270714D01*
X237533571Y-85299285D02*
X236033571Y-85299285D01*
X236033571Y-85756428D01*
X236105000Y-85870714D01*
X236176428Y-85927857D01*
X236319285Y-85985000D01*
X236533571Y-85985000D01*
X236676428Y-85927857D01*
X236747857Y-85870714D01*
X236819285Y-85756428D01*
X236819285Y-85299285D01*
X236033571Y-86327857D02*
X236033571Y-87013571D01*
X237533571Y-86670714D02*
X236033571Y-86670714D01*
X237533571Y-87413571D02*
X236033571Y-87413571D01*
X237390714Y-88670714D02*
X237462142Y-88613571D01*
X237533571Y-88442142D01*
X237533571Y-88327857D01*
X237462142Y-88156428D01*
X237319285Y-88042142D01*
X237176428Y-87985000D01*
X236890714Y-87927857D01*
X236676428Y-87927857D01*
X236390714Y-87985000D01*
X236247857Y-88042142D01*
X236105000Y-88156428D01*
X236033571Y-88327857D01*
X236033571Y-88442142D01*
X236105000Y-88613571D01*
X236176428Y-88670714D01*
X237105000Y-89127857D02*
X237105000Y-89699285D01*
X237533571Y-89013571D02*
X236033571Y-89413571D01*
X237533571Y-89813571D01*
X237533571Y-90785000D02*
X237533571Y-90213571D01*
X236033571Y-90213571D01*
X236033571Y-91927857D02*
X236033571Y-92613571D01*
X237533571Y-92270714D02*
X236033571Y-92270714D01*
X237533571Y-93699285D02*
X236819285Y-93299285D01*
X237533571Y-93013571D02*
X236033571Y-93013571D01*
X236033571Y-93470714D01*
X236105000Y-93585000D01*
X236176428Y-93642142D01*
X236319285Y-93699285D01*
X236533571Y-93699285D01*
X236676428Y-93642142D01*
X236747857Y-93585000D01*
X236819285Y-93470714D01*
X236819285Y-93013571D01*
X237105000Y-94156428D02*
X237105000Y-94727857D01*
X237533571Y-94042142D02*
X236033571Y-94442142D01*
X237533571Y-94842142D01*
X237533571Y-95242142D02*
X236033571Y-95242142D01*
X237533571Y-95927857D01*
X236033571Y-95927857D01*
X237462142Y-96442142D02*
X237533571Y-96613571D01*
X237533571Y-96899285D01*
X237462142Y-97013571D01*
X237390714Y-97070714D01*
X237247857Y-97127857D01*
X237105000Y-97127857D01*
X236962142Y-97070714D01*
X236890714Y-97013571D01*
X236819285Y-96899285D01*
X236747857Y-96670714D01*
X236676428Y-96556428D01*
X236605000Y-96499285D01*
X236462142Y-96442142D01*
X236319285Y-96442142D01*
X236176428Y-96499285D01*
X236105000Y-96556428D01*
X236033571Y-96670714D01*
X236033571Y-96956428D01*
X236105000Y-97127857D01*
X237533571Y-97642142D02*
X236033571Y-97642142D01*
X237105000Y-98042142D01*
X236033571Y-98442142D01*
X237533571Y-98442142D01*
X237533571Y-99013571D02*
X236033571Y-99013571D01*
X236033571Y-99413571D02*
X236033571Y-100099285D01*
X237533571Y-99756428D02*
X236033571Y-99756428D01*
X236033571Y-100327857D02*
X236033571Y-101013571D01*
X237533571Y-100670714D02*
X236033571Y-100670714D01*
X236747857Y-101413571D02*
X236747857Y-101813571D01*
X237533571Y-101985000D02*
X237533571Y-101413571D01*
X236033571Y-101413571D01*
X236033571Y-101985000D01*
X237533571Y-103185000D02*
X236819285Y-102785000D01*
X237533571Y-102499285D02*
X236033571Y-102499285D01*
X236033571Y-102956428D01*
X236105000Y-103070714D01*
X236176428Y-103127857D01*
X236319285Y-103185000D01*
X236533571Y-103185000D01*
X236676428Y-103127857D01*
X236747857Y-103070714D01*
X236819285Y-102956428D01*
X236819285Y-102499285D01*
D10*
X215161761Y-71429714D02*
X215209380Y-71572571D01*
X215209380Y-71810666D01*
X215161761Y-71905904D01*
X215114142Y-71953523D01*
X215018904Y-72001142D01*
X214923666Y-72001142D01*
X214828428Y-71953523D01*
X214780809Y-71905904D01*
X214733190Y-71810666D01*
X214685571Y-71620190D01*
X214637952Y-71524952D01*
X214590333Y-71477333D01*
X214495095Y-71429714D01*
X214399857Y-71429714D01*
X214304619Y-71477333D01*
X214257000Y-71524952D01*
X214209380Y-71620190D01*
X214209380Y-71858285D01*
X214257000Y-72001142D01*
X215209380Y-72429714D02*
X214209380Y-72429714D01*
X214209380Y-72667809D01*
X214257000Y-72810666D01*
X214352238Y-72905904D01*
X214447476Y-72953523D01*
X214637952Y-73001142D01*
X214780809Y-73001142D01*
X214971285Y-72953523D01*
X215066523Y-72905904D01*
X215161761Y-72810666D01*
X215209380Y-72667809D01*
X215209380Y-72429714D01*
X214923666Y-73382095D02*
X214923666Y-73858285D01*
X215209380Y-73286857D02*
X214209380Y-73620190D01*
X215209380Y-73953523D01*
X220114761Y-78692523D02*
X220162380Y-78835380D01*
X220162380Y-79073476D01*
X220114761Y-79168714D01*
X220067142Y-79216333D01*
X219971904Y-79263952D01*
X219876666Y-79263952D01*
X219781428Y-79216333D01*
X219733809Y-79168714D01*
X219686190Y-79073476D01*
X219638571Y-78883000D01*
X219590952Y-78787761D01*
X219543333Y-78740142D01*
X219448095Y-78692523D01*
X219352857Y-78692523D01*
X219257619Y-78740142D01*
X219210000Y-78787761D01*
X219162380Y-78883000D01*
X219162380Y-79121095D01*
X219210000Y-79263952D01*
X220067142Y-80263952D02*
X220114761Y-80216333D01*
X220162380Y-80073476D01*
X220162380Y-79978238D01*
X220114761Y-79835380D01*
X220019523Y-79740142D01*
X219924285Y-79692523D01*
X219733809Y-79644904D01*
X219590952Y-79644904D01*
X219400476Y-79692523D01*
X219305238Y-79740142D01*
X219210000Y-79835380D01*
X219162380Y-79978238D01*
X219162380Y-80073476D01*
X219210000Y-80216333D01*
X219257619Y-80263952D01*
X220162380Y-81168714D02*
X220162380Y-80692523D01*
X219162380Y-80692523D01*
D11*
X228600000Y-72898000D02*
X228600000Y-79248000D01*
D10*
X226830000Y-79375095D02*
X226782380Y-79279857D01*
X226782380Y-79137000D01*
X226830000Y-78994142D01*
X226925238Y-78898904D01*
X227020476Y-78851285D01*
X227210952Y-78803666D01*
X227353809Y-78803666D01*
X227544285Y-78851285D01*
X227639523Y-78898904D01*
X227734761Y-78994142D01*
X227782380Y-79137000D01*
X227782380Y-79232238D01*
X227734761Y-79375095D01*
X227687142Y-79422714D01*
X227353809Y-79422714D01*
X227353809Y-79232238D01*
X227782380Y-79851285D02*
X226782380Y-79851285D01*
X227782380Y-80422714D01*
X226782380Y-80422714D01*
X227782380Y-80898904D02*
X226782380Y-80898904D01*
X226782380Y-81137000D01*
X226830000Y-81279857D01*
X226925238Y-81375095D01*
X227020476Y-81422714D01*
X227210952Y-81470333D01*
X227353809Y-81470333D01*
X227544285Y-81422714D01*
X227639523Y-81375095D01*
X227734761Y-81279857D01*
X227782380Y-81137000D01*
X227782380Y-80898904D01*
X201509380Y-78644904D02*
X201509380Y-79263952D01*
X201890333Y-78930619D01*
X201890333Y-79073476D01*
X201937952Y-79168714D01*
X201985571Y-79216333D01*
X202080809Y-79263952D01*
X202318904Y-79263952D01*
X202414142Y-79216333D01*
X202461761Y-79168714D01*
X202509380Y-79073476D01*
X202509380Y-78787761D01*
X202461761Y-78692523D01*
X202414142Y-78644904D01*
X201509380Y-79549666D02*
X202509380Y-79883000D01*
X201509380Y-80216333D01*
X201509380Y-80454428D02*
X201509380Y-81073476D01*
X201890333Y-80740142D01*
X201890333Y-80883000D01*
X201937952Y-80978238D01*
X201985571Y-81025857D01*
X202080809Y-81073476D01*
X202318904Y-81073476D01*
X202414142Y-81025857D01*
X202461761Y-80978238D01*
X202509380Y-80883000D01*
X202509380Y-80597285D01*
X202461761Y-80502047D01*
X202414142Y-80454428D01*
X212542380Y-78756000D02*
X211542380Y-78756000D01*
X212542380Y-79232190D02*
X211542380Y-79232190D01*
X212542380Y-79803619D01*
X211542380Y-79803619D01*
X211542380Y-80470285D02*
X211542380Y-80565523D01*
X211590000Y-80660761D01*
X211637619Y-80708380D01*
X211732857Y-80756000D01*
X211923333Y-80803619D01*
X212161428Y-80803619D01*
X212351904Y-80756000D01*
X212447142Y-80708380D01*
X212494761Y-80660761D01*
X212542380Y-80565523D01*
X212542380Y-80470285D01*
X212494761Y-80375047D01*
X212447142Y-80327428D01*
X212351904Y-80279809D01*
X212161428Y-80232190D01*
X211923333Y-80232190D01*
X211732857Y-80279809D01*
X211637619Y-80327428D01*
X211590000Y-80375047D01*
X211542380Y-80470285D01*
X225242380Y-78652904D02*
X224242380Y-78652904D01*
X224956666Y-78986238D01*
X224242380Y-79319571D01*
X225242380Y-79319571D01*
X225147142Y-80367190D02*
X225194761Y-80319571D01*
X225242380Y-80176714D01*
X225242380Y-80081476D01*
X225194761Y-79938619D01*
X225099523Y-79843380D01*
X225004285Y-79795761D01*
X224813809Y-79748142D01*
X224670952Y-79748142D01*
X224480476Y-79795761D01*
X224385238Y-79843380D01*
X224290000Y-79938619D01*
X224242380Y-80081476D01*
X224242380Y-80176714D01*
X224290000Y-80319571D01*
X224337619Y-80367190D01*
X225242380Y-81271952D02*
X225242380Y-80795761D01*
X224242380Y-80795761D01*
X225242380Y-81605285D02*
X224242380Y-81605285D01*
X225242380Y-82176714D02*
X224670952Y-81748142D01*
X224242380Y-82176714D02*
X224813809Y-81605285D01*
X201509380Y-71278904D02*
X201509380Y-71897952D01*
X201890333Y-71564619D01*
X201890333Y-71707476D01*
X201937952Y-71802714D01*
X201985571Y-71850333D01*
X202080809Y-71897952D01*
X202318904Y-71897952D01*
X202414142Y-71850333D01*
X202461761Y-71802714D01*
X202509380Y-71707476D01*
X202509380Y-71421761D01*
X202461761Y-71326523D01*
X202414142Y-71278904D01*
X201509380Y-72183666D02*
X202509380Y-72517000D01*
X201509380Y-72850333D01*
X201509380Y-73088428D02*
X201509380Y-73707476D01*
X201890333Y-73374142D01*
X201890333Y-73517000D01*
X201937952Y-73612238D01*
X201985571Y-73659857D01*
X202080809Y-73707476D01*
X202318904Y-73707476D01*
X202414142Y-73659857D01*
X202461761Y-73612238D01*
X202509380Y-73517000D01*
X202509380Y-73231285D01*
X202461761Y-73136047D01*
X202414142Y-73088428D01*
X211669380Y-71993238D02*
X212669380Y-72231333D01*
X211955095Y-72421809D01*
X212669380Y-72612285D01*
X211669380Y-72850380D01*
X212621761Y-73183714D02*
X212669380Y-73326571D01*
X212669380Y-73564666D01*
X212621761Y-73659904D01*
X212574142Y-73707523D01*
X212478904Y-73755142D01*
X212383666Y-73755142D01*
X212288428Y-73707523D01*
X212240809Y-73659904D01*
X212193190Y-73564666D01*
X212145571Y-73374190D01*
X212097952Y-73278952D01*
X212050333Y-73231333D01*
X211955095Y-73183714D01*
X211859857Y-73183714D01*
X211764619Y-73231333D01*
X211717000Y-73278952D01*
X211669380Y-73374190D01*
X211669380Y-73612285D01*
X211717000Y-73755142D01*
X217749380Y-71771000D02*
X216749380Y-71771000D01*
X217749380Y-72247190D02*
X216749380Y-72247190D01*
X217749380Y-72818619D01*
X216749380Y-72818619D01*
X216749380Y-73199571D02*
X216749380Y-73818619D01*
X217130333Y-73485285D01*
X217130333Y-73628142D01*
X217177952Y-73723380D01*
X217225571Y-73771000D01*
X217320809Y-73818619D01*
X217558904Y-73818619D01*
X217654142Y-73771000D01*
X217701761Y-73723380D01*
X217749380Y-73628142D01*
X217749380Y-73342428D01*
X217701761Y-73247190D01*
X217654142Y-73199571D01*
X222829380Y-78756000D02*
X221829380Y-78756000D01*
X222829380Y-79232190D02*
X221829380Y-79232190D01*
X222829380Y-79803619D01*
X221829380Y-79803619D01*
X221924619Y-80232190D02*
X221877000Y-80279809D01*
X221829380Y-80375047D01*
X221829380Y-80613142D01*
X221877000Y-80708380D01*
X221924619Y-80756000D01*
X222019857Y-80803619D01*
X222115095Y-80803619D01*
X222257952Y-80756000D01*
X222829380Y-80184571D01*
X222829380Y-80803619D01*
X210002380Y-71898000D02*
X209002380Y-71898000D01*
X210002380Y-72374190D02*
X209002380Y-72374190D01*
X210002380Y-72945619D01*
X209002380Y-72945619D01*
X210002380Y-73945619D02*
X210002380Y-73374190D01*
X210002380Y-73659904D02*
X209002380Y-73659904D01*
X209145238Y-73564666D01*
X209240476Y-73469428D01*
X209288095Y-73374190D01*
X215082380Y-68905523D02*
X215082380Y-68429333D01*
X214082380Y-68429333D01*
X215082380Y-69810285D02*
X214606190Y-69476952D01*
X215082380Y-69238857D02*
X214082380Y-69238857D01*
X214082380Y-69619809D01*
X214130000Y-69715047D01*
X214177619Y-69762666D01*
X214272857Y-69810285D01*
X214415714Y-69810285D01*
X214510952Y-69762666D01*
X214558571Y-69715047D01*
X214606190Y-69619809D01*
X214606190Y-69238857D01*
X215082380Y-70238857D02*
X214082380Y-70238857D01*
X215082380Y-70810285D02*
X214510952Y-70381714D01*
X214082380Y-70810285D02*
X214653809Y-70238857D01*
X220114761Y-68405523D02*
X220162380Y-68548380D01*
X220162380Y-68786476D01*
X220114761Y-68881714D01*
X220067142Y-68929333D01*
X219971904Y-68976952D01*
X219876666Y-68976952D01*
X219781428Y-68929333D01*
X219733809Y-68881714D01*
X219686190Y-68786476D01*
X219638571Y-68596000D01*
X219590952Y-68500761D01*
X219543333Y-68453142D01*
X219448095Y-68405523D01*
X219352857Y-68405523D01*
X219257619Y-68453142D01*
X219210000Y-68500761D01*
X219162380Y-68596000D01*
X219162380Y-68834095D01*
X219210000Y-68976952D01*
X220067142Y-69976952D02*
X220114761Y-69929333D01*
X220162380Y-69786476D01*
X220162380Y-69691238D01*
X220114761Y-69548380D01*
X220019523Y-69453142D01*
X219924285Y-69405523D01*
X219733809Y-69357904D01*
X219590952Y-69357904D01*
X219400476Y-69405523D01*
X219305238Y-69453142D01*
X219210000Y-69548380D01*
X219162380Y-69691238D01*
X219162380Y-69786476D01*
X219210000Y-69929333D01*
X219257619Y-69976952D01*
X220162380Y-70881714D02*
X220162380Y-70405523D01*
X219162380Y-70405523D01*
X202564904Y-64524000D02*
X202660142Y-64476380D01*
X202803000Y-64476380D01*
X202945857Y-64524000D01*
X203041095Y-64619238D01*
X203088714Y-64714476D01*
X203136333Y-64904952D01*
X203136333Y-65047809D01*
X203088714Y-65238285D01*
X203041095Y-65333523D01*
X202945857Y-65428761D01*
X202803000Y-65476380D01*
X202707761Y-65476380D01*
X202564904Y-65428761D01*
X202517285Y-65381142D01*
X202517285Y-65047809D01*
X202707761Y-65047809D01*
X202088714Y-65476380D02*
X202088714Y-64476380D01*
X201517285Y-65476380D01*
X201517285Y-64476380D01*
X201041095Y-65476380D02*
X201041095Y-64476380D01*
X200803000Y-64476380D01*
X200660142Y-64524000D01*
X200564904Y-64619238D01*
X200517285Y-64714476D01*
X200469666Y-64904952D01*
X200469666Y-65047809D01*
X200517285Y-65238285D01*
X200564904Y-65333523D01*
X200660142Y-65428761D01*
X200803000Y-65476380D01*
X201041095Y-65476380D01*
X207176666Y-68508714D02*
X207176666Y-68984904D01*
X207462380Y-68413476D02*
X206462380Y-68746809D01*
X207462380Y-69080142D01*
X207462380Y-69413476D02*
X206462380Y-69413476D01*
X206462380Y-69651571D01*
X206510000Y-69794428D01*
X206605238Y-69889666D01*
X206700476Y-69937285D01*
X206890952Y-69984904D01*
X207033809Y-69984904D01*
X207224285Y-69937285D01*
X207319523Y-69889666D01*
X207414761Y-69794428D01*
X207462380Y-69651571D01*
X207462380Y-69413476D01*
X206462380Y-70603952D02*
X206462380Y-70699190D01*
X206510000Y-70794428D01*
X206557619Y-70842047D01*
X206652857Y-70889666D01*
X206843333Y-70937285D01*
X207081428Y-70937285D01*
X207271904Y-70889666D01*
X207367142Y-70842047D01*
X207414761Y-70794428D01*
X207462380Y-70699190D01*
X207462380Y-70603952D01*
X207414761Y-70508714D01*
X207367142Y-70461095D01*
X207271904Y-70413476D01*
X207081428Y-70365857D01*
X206843333Y-70365857D01*
X206652857Y-70413476D01*
X206557619Y-70461095D01*
X206510000Y-70508714D01*
X206462380Y-70603952D01*
X204049380Y-68484904D02*
X204049380Y-69103952D01*
X204430333Y-68770619D01*
X204430333Y-68913476D01*
X204477952Y-69008714D01*
X204525571Y-69056333D01*
X204620809Y-69103952D01*
X204858904Y-69103952D01*
X204954142Y-69056333D01*
X205001761Y-69008714D01*
X205049380Y-68913476D01*
X205049380Y-68627761D01*
X205001761Y-68532523D01*
X204954142Y-68484904D01*
X204049380Y-69389666D02*
X205049380Y-69723000D01*
X204049380Y-70056333D01*
X204049380Y-70294428D02*
X204049380Y-70913476D01*
X204430333Y-70580142D01*
X204430333Y-70723000D01*
X204477952Y-70818238D01*
X204525571Y-70865857D01*
X204620809Y-70913476D01*
X204858904Y-70913476D01*
X204954142Y-70865857D01*
X205001761Y-70818238D01*
X205049380Y-70723000D01*
X205049380Y-70437285D01*
X205001761Y-70342047D01*
X204954142Y-70294428D01*
X217574761Y-68381714D02*
X217622380Y-68524571D01*
X217622380Y-68762666D01*
X217574761Y-68857904D01*
X217527142Y-68905523D01*
X217431904Y-68953142D01*
X217336666Y-68953142D01*
X217241428Y-68905523D01*
X217193809Y-68857904D01*
X217146190Y-68762666D01*
X217098571Y-68572190D01*
X217050952Y-68476952D01*
X217003333Y-68429333D01*
X216908095Y-68381714D01*
X216812857Y-68381714D01*
X216717619Y-68429333D01*
X216670000Y-68476952D01*
X216622380Y-68572190D01*
X216622380Y-68810285D01*
X216670000Y-68953142D01*
X217622380Y-69381714D02*
X216622380Y-69381714D01*
X216622380Y-69619809D01*
X216670000Y-69762666D01*
X216765238Y-69857904D01*
X216860476Y-69905523D01*
X217050952Y-69953142D01*
X217193809Y-69953142D01*
X217384285Y-69905523D01*
X217479523Y-69857904D01*
X217574761Y-69762666D01*
X217622380Y-69619809D01*
X217622380Y-69381714D01*
X217336666Y-70334095D02*
X217336666Y-70810285D01*
X217622380Y-70238857D02*
X216622380Y-70572190D01*
X217622380Y-70905523D01*
X222702380Y-68492904D02*
X221702380Y-68492904D01*
X222416666Y-68826238D01*
X221702380Y-69159571D01*
X222702380Y-69159571D01*
X222607142Y-70207190D02*
X222654761Y-70159571D01*
X222702380Y-70016714D01*
X222702380Y-69921476D01*
X222654761Y-69778619D01*
X222559523Y-69683380D01*
X222464285Y-69635761D01*
X222273809Y-69588142D01*
X222130952Y-69588142D01*
X221940476Y-69635761D01*
X221845238Y-69683380D01*
X221750000Y-69778619D01*
X221702380Y-69921476D01*
X221702380Y-70016714D01*
X221750000Y-70159571D01*
X221797619Y-70207190D01*
X222702380Y-71111952D02*
X222702380Y-70635761D01*
X221702380Y-70635761D01*
X222702380Y-71445285D02*
X221702380Y-71445285D01*
X222702380Y-72016714D02*
X222130952Y-71588142D01*
X221702380Y-72016714D02*
X222273809Y-71445285D01*
X210129380Y-68596000D02*
X209129380Y-68596000D01*
X210129380Y-69072190D02*
X209129380Y-69072190D01*
X210129380Y-69643619D01*
X209129380Y-69643619D01*
X209129380Y-70024571D02*
X209129380Y-70643619D01*
X209510333Y-70310285D01*
X209510333Y-70453142D01*
X209557952Y-70548380D01*
X209605571Y-70596000D01*
X209700809Y-70643619D01*
X209938904Y-70643619D01*
X210034142Y-70596000D01*
X210081761Y-70548380D01*
X210129380Y-70453142D01*
X210129380Y-70167428D01*
X210081761Y-70072190D01*
X210034142Y-70024571D01*
X212145571Y-68794428D02*
X212193190Y-68937285D01*
X212240809Y-68984904D01*
X212336047Y-69032523D01*
X212478904Y-69032523D01*
X212574142Y-68984904D01*
X212621761Y-68937285D01*
X212669380Y-68842047D01*
X212669380Y-68461095D01*
X211669380Y-68461095D01*
X211669380Y-68794428D01*
X211717000Y-68889666D01*
X211764619Y-68937285D01*
X211859857Y-68984904D01*
X211955095Y-68984904D01*
X212050333Y-68937285D01*
X212097952Y-68889666D01*
X212145571Y-68794428D01*
X212145571Y-68461095D01*
X212574142Y-70032523D02*
X212621761Y-69984904D01*
X212669380Y-69842047D01*
X212669380Y-69746809D01*
X212621761Y-69603952D01*
X212526523Y-69508714D01*
X212431285Y-69461095D01*
X212240809Y-69413476D01*
X212097952Y-69413476D01*
X211907476Y-69461095D01*
X211812238Y-69508714D01*
X211717000Y-69603952D01*
X211669380Y-69746809D01*
X211669380Y-69842047D01*
X211717000Y-69984904D01*
X211764619Y-70032523D01*
X212669380Y-70461095D02*
X211669380Y-70461095D01*
X212669380Y-71032523D02*
X212097952Y-70603952D01*
X211669380Y-71032523D02*
X212240809Y-70461095D01*
X225932904Y-64651000D02*
X226028142Y-64603380D01*
X226171000Y-64603380D01*
X226313857Y-64651000D01*
X226409095Y-64746238D01*
X226456714Y-64841476D01*
X226504333Y-65031952D01*
X226504333Y-65174809D01*
X226456714Y-65365285D01*
X226409095Y-65460523D01*
X226313857Y-65555761D01*
X226171000Y-65603380D01*
X226075761Y-65603380D01*
X225932904Y-65555761D01*
X225885285Y-65508142D01*
X225885285Y-65174809D01*
X226075761Y-65174809D01*
X225456714Y-65603380D02*
X225456714Y-64603380D01*
X224885285Y-65603380D01*
X224885285Y-64603380D01*
X224409095Y-65603380D02*
X224409095Y-64603380D01*
X224171000Y-64603380D01*
X224028142Y-64651000D01*
X223932904Y-64746238D01*
X223885285Y-64841476D01*
X223837666Y-65031952D01*
X223837666Y-65174809D01*
X223885285Y-65365285D01*
X223932904Y-65460523D01*
X224028142Y-65555761D01*
X224171000Y-65603380D01*
X224409095Y-65603380D01*
X204049380Y-58705904D02*
X204049380Y-59324952D01*
X204430333Y-58991619D01*
X204430333Y-59134476D01*
X204477952Y-59229714D01*
X204525571Y-59277333D01*
X204620809Y-59324952D01*
X204858904Y-59324952D01*
X204954142Y-59277333D01*
X205001761Y-59229714D01*
X205049380Y-59134476D01*
X205049380Y-58848761D01*
X205001761Y-58753523D01*
X204954142Y-58705904D01*
X204049380Y-59610666D02*
X205049380Y-59944000D01*
X204049380Y-60277333D01*
X204049380Y-60515428D02*
X204049380Y-61134476D01*
X204430333Y-60801142D01*
X204430333Y-60944000D01*
X204477952Y-61039238D01*
X204525571Y-61086857D01*
X204620809Y-61134476D01*
X204858904Y-61134476D01*
X204954142Y-61086857D01*
X205001761Y-61039238D01*
X205049380Y-60944000D01*
X205049380Y-60658285D01*
X205001761Y-60563047D01*
X204954142Y-60515428D01*
X215209380Y-59126523D02*
X215209380Y-58650333D01*
X214209380Y-58650333D01*
X215209380Y-60031285D02*
X214733190Y-59697952D01*
X215209380Y-59459857D02*
X214209380Y-59459857D01*
X214209380Y-59840809D01*
X214257000Y-59936047D01*
X214304619Y-59983666D01*
X214399857Y-60031285D01*
X214542714Y-60031285D01*
X214637952Y-59983666D01*
X214685571Y-59936047D01*
X214733190Y-59840809D01*
X214733190Y-59459857D01*
X215209380Y-60459857D02*
X214209380Y-60459857D01*
X215209380Y-61031285D02*
X214637952Y-60602714D01*
X214209380Y-61031285D02*
X214780809Y-60459857D01*
X217574761Y-58729714D02*
X217622380Y-58872571D01*
X217622380Y-59110666D01*
X217574761Y-59205904D01*
X217527142Y-59253523D01*
X217431904Y-59301142D01*
X217336666Y-59301142D01*
X217241428Y-59253523D01*
X217193809Y-59205904D01*
X217146190Y-59110666D01*
X217098571Y-58920190D01*
X217050952Y-58824952D01*
X217003333Y-58777333D01*
X216908095Y-58729714D01*
X216812857Y-58729714D01*
X216717619Y-58777333D01*
X216670000Y-58824952D01*
X216622380Y-58920190D01*
X216622380Y-59158285D01*
X216670000Y-59301142D01*
X217622380Y-59729714D02*
X216622380Y-59729714D01*
X216622380Y-59967809D01*
X216670000Y-60110666D01*
X216765238Y-60205904D01*
X216860476Y-60253523D01*
X217050952Y-60301142D01*
X217193809Y-60301142D01*
X217384285Y-60253523D01*
X217479523Y-60205904D01*
X217574761Y-60110666D01*
X217622380Y-59967809D01*
X217622380Y-59729714D01*
X217336666Y-60682095D02*
X217336666Y-61158285D01*
X217622380Y-60586857D02*
X216622380Y-60920190D01*
X217622380Y-61253523D01*
X202564904Y-54364000D02*
X202660142Y-54316380D01*
X202803000Y-54316380D01*
X202945857Y-54364000D01*
X203041095Y-54459238D01*
X203088714Y-54554476D01*
X203136333Y-54744952D01*
X203136333Y-54887809D01*
X203088714Y-55078285D01*
X203041095Y-55173523D01*
X202945857Y-55268761D01*
X202803000Y-55316380D01*
X202707761Y-55316380D01*
X202564904Y-55268761D01*
X202517285Y-55221142D01*
X202517285Y-54887809D01*
X202707761Y-54887809D01*
X202088714Y-55316380D02*
X202088714Y-54316380D01*
X201517285Y-55316380D01*
X201517285Y-54316380D01*
X201041095Y-55316380D02*
X201041095Y-54316380D01*
X200803000Y-54316380D01*
X200660142Y-54364000D01*
X200564904Y-54459238D01*
X200517285Y-54554476D01*
X200469666Y-54744952D01*
X200469666Y-54887809D01*
X200517285Y-55078285D01*
X200564904Y-55173523D01*
X200660142Y-55268761D01*
X200803000Y-55316380D01*
X201041095Y-55316380D01*
X212145571Y-59015428D02*
X212193190Y-59158285D01*
X212240809Y-59205904D01*
X212336047Y-59253523D01*
X212478904Y-59253523D01*
X212574142Y-59205904D01*
X212621761Y-59158285D01*
X212669380Y-59063047D01*
X212669380Y-58682095D01*
X211669380Y-58682095D01*
X211669380Y-59015428D01*
X211717000Y-59110666D01*
X211764619Y-59158285D01*
X211859857Y-59205904D01*
X211955095Y-59205904D01*
X212050333Y-59158285D01*
X212097952Y-59110666D01*
X212145571Y-59015428D01*
X212145571Y-58682095D01*
X212574142Y-60253523D02*
X212621761Y-60205904D01*
X212669380Y-60063047D01*
X212669380Y-59967809D01*
X212621761Y-59824952D01*
X212526523Y-59729714D01*
X212431285Y-59682095D01*
X212240809Y-59634476D01*
X212097952Y-59634476D01*
X211907476Y-59682095D01*
X211812238Y-59729714D01*
X211717000Y-59824952D01*
X211669380Y-59967809D01*
X211669380Y-60063047D01*
X211717000Y-60205904D01*
X211764619Y-60253523D01*
X212669380Y-60682095D02*
X211669380Y-60682095D01*
X212669380Y-61253523D02*
X212097952Y-60824952D01*
X211669380Y-61253523D02*
X212240809Y-60682095D01*
X225805904Y-54237000D02*
X225901142Y-54189380D01*
X226044000Y-54189380D01*
X226186857Y-54237000D01*
X226282095Y-54332238D01*
X226329714Y-54427476D01*
X226377333Y-54617952D01*
X226377333Y-54760809D01*
X226329714Y-54951285D01*
X226282095Y-55046523D01*
X226186857Y-55141761D01*
X226044000Y-55189380D01*
X225948761Y-55189380D01*
X225805904Y-55141761D01*
X225758285Y-55094142D01*
X225758285Y-54760809D01*
X225948761Y-54760809D01*
X225329714Y-55189380D02*
X225329714Y-54189380D01*
X224758285Y-55189380D01*
X224758285Y-54189380D01*
X224282095Y-55189380D02*
X224282095Y-54189380D01*
X224044000Y-54189380D01*
X223901142Y-54237000D01*
X223805904Y-54332238D01*
X223758285Y-54427476D01*
X223710666Y-54617952D01*
X223710666Y-54760809D01*
X223758285Y-54951285D01*
X223805904Y-55046523D01*
X223901142Y-55141761D01*
X224044000Y-55189380D01*
X224282095Y-55189380D01*
X222829380Y-58586904D02*
X221829380Y-58586904D01*
X222543666Y-58920238D01*
X221829380Y-59253571D01*
X222829380Y-59253571D01*
X222734142Y-60301190D02*
X222781761Y-60253571D01*
X222829380Y-60110714D01*
X222829380Y-60015476D01*
X222781761Y-59872619D01*
X222686523Y-59777380D01*
X222591285Y-59729761D01*
X222400809Y-59682142D01*
X222257952Y-59682142D01*
X222067476Y-59729761D01*
X221972238Y-59777380D01*
X221877000Y-59872619D01*
X221829380Y-60015476D01*
X221829380Y-60110714D01*
X221877000Y-60253571D01*
X221924619Y-60301190D01*
X222829380Y-61205952D02*
X222829380Y-60729761D01*
X221829380Y-60729761D01*
X222829380Y-61539285D02*
X221829380Y-61539285D01*
X222829380Y-62110714D02*
X222257952Y-61682142D01*
X221829380Y-62110714D02*
X222400809Y-61539285D01*
X220241761Y-58626523D02*
X220289380Y-58769380D01*
X220289380Y-59007476D01*
X220241761Y-59102714D01*
X220194142Y-59150333D01*
X220098904Y-59197952D01*
X220003666Y-59197952D01*
X219908428Y-59150333D01*
X219860809Y-59102714D01*
X219813190Y-59007476D01*
X219765571Y-58817000D01*
X219717952Y-58721761D01*
X219670333Y-58674142D01*
X219575095Y-58626523D01*
X219479857Y-58626523D01*
X219384619Y-58674142D01*
X219337000Y-58721761D01*
X219289380Y-58817000D01*
X219289380Y-59055095D01*
X219337000Y-59197952D01*
X220194142Y-60197952D02*
X220241761Y-60150333D01*
X220289380Y-60007476D01*
X220289380Y-59912238D01*
X220241761Y-59769380D01*
X220146523Y-59674142D01*
X220051285Y-59626523D01*
X219860809Y-59578904D01*
X219717952Y-59578904D01*
X219527476Y-59626523D01*
X219432238Y-59674142D01*
X219337000Y-59769380D01*
X219289380Y-59912238D01*
X219289380Y-60007476D01*
X219337000Y-60150333D01*
X219384619Y-60197952D01*
X220289380Y-61102714D02*
X220289380Y-60626523D01*
X219289380Y-60626523D01*
X210129380Y-58817000D02*
X209129380Y-58817000D01*
X210129380Y-59293190D02*
X209129380Y-59293190D01*
X210129380Y-59864619D01*
X209129380Y-59864619D01*
X209224619Y-60293190D02*
X209177000Y-60340809D01*
X209129380Y-60436047D01*
X209129380Y-60674142D01*
X209177000Y-60769380D01*
X209224619Y-60817000D01*
X209319857Y-60864619D01*
X209415095Y-60864619D01*
X209557952Y-60817000D01*
X210129380Y-60245571D01*
X210129380Y-60864619D01*
X207303666Y-58729714D02*
X207303666Y-59205904D01*
X207589380Y-58634476D02*
X206589380Y-58967809D01*
X207589380Y-59301142D01*
X207589380Y-59634476D02*
X206589380Y-59634476D01*
X206589380Y-59872571D01*
X206637000Y-60015428D01*
X206732238Y-60110666D01*
X206827476Y-60158285D01*
X207017952Y-60205904D01*
X207160809Y-60205904D01*
X207351285Y-60158285D01*
X207446523Y-60110666D01*
X207541761Y-60015428D01*
X207589380Y-59872571D01*
X207589380Y-59634476D01*
X206589380Y-60824952D02*
X206589380Y-60920190D01*
X206637000Y-61015428D01*
X206684619Y-61063047D01*
X206779857Y-61110666D01*
X206970333Y-61158285D01*
X207208428Y-61158285D01*
X207398904Y-61110666D01*
X207494142Y-61063047D01*
X207541761Y-61015428D01*
X207589380Y-60920190D01*
X207589380Y-60824952D01*
X207541761Y-60729714D01*
X207494142Y-60682095D01*
X207398904Y-60634476D01*
X207208428Y-60586857D01*
X206970333Y-60586857D01*
X206779857Y-60634476D01*
X206684619Y-60682095D01*
X206637000Y-60729714D01*
X206589380Y-60824952D01*
X212145571Y-48855428D02*
X212193190Y-48998285D01*
X212240809Y-49045904D01*
X212336047Y-49093523D01*
X212478904Y-49093523D01*
X212574142Y-49045904D01*
X212621761Y-48998285D01*
X212669380Y-48903047D01*
X212669380Y-48522095D01*
X211669380Y-48522095D01*
X211669380Y-48855428D01*
X211717000Y-48950666D01*
X211764619Y-48998285D01*
X211859857Y-49045904D01*
X211955095Y-49045904D01*
X212050333Y-48998285D01*
X212097952Y-48950666D01*
X212145571Y-48855428D01*
X212145571Y-48522095D01*
X212574142Y-50093523D02*
X212621761Y-50045904D01*
X212669380Y-49903047D01*
X212669380Y-49807809D01*
X212621761Y-49664952D01*
X212526523Y-49569714D01*
X212431285Y-49522095D01*
X212240809Y-49474476D01*
X212097952Y-49474476D01*
X211907476Y-49522095D01*
X211812238Y-49569714D01*
X211717000Y-49664952D01*
X211669380Y-49807809D01*
X211669380Y-49903047D01*
X211717000Y-50045904D01*
X211764619Y-50093523D01*
X212669380Y-50522095D02*
X211669380Y-50522095D01*
X212669380Y-51093523D02*
X212097952Y-50664952D01*
X211669380Y-51093523D02*
X212240809Y-50522095D01*
X210002380Y-48657000D02*
X209002380Y-48657000D01*
X210002380Y-49133190D02*
X209002380Y-49133190D01*
X210002380Y-49704619D01*
X209002380Y-49704619D01*
X210002380Y-50704619D02*
X210002380Y-50133190D01*
X210002380Y-50418904D02*
X209002380Y-50418904D01*
X209145238Y-50323666D01*
X209240476Y-50228428D01*
X209288095Y-50133190D01*
X202564904Y-44204000D02*
X202660142Y-44156380D01*
X202803000Y-44156380D01*
X202945857Y-44204000D01*
X203041095Y-44299238D01*
X203088714Y-44394476D01*
X203136333Y-44584952D01*
X203136333Y-44727809D01*
X203088714Y-44918285D01*
X203041095Y-45013523D01*
X202945857Y-45108761D01*
X202803000Y-45156380D01*
X202707761Y-45156380D01*
X202564904Y-45108761D01*
X202517285Y-45061142D01*
X202517285Y-44727809D01*
X202707761Y-44727809D01*
X202088714Y-45156380D02*
X202088714Y-44156380D01*
X201517285Y-45156380D01*
X201517285Y-44156380D01*
X201041095Y-45156380D02*
X201041095Y-44156380D01*
X200803000Y-44156380D01*
X200660142Y-44204000D01*
X200564904Y-44299238D01*
X200517285Y-44394476D01*
X200469666Y-44584952D01*
X200469666Y-44727809D01*
X200517285Y-44918285D01*
X200564904Y-45013523D01*
X200660142Y-45108761D01*
X200803000Y-45156380D01*
X201041095Y-45156380D01*
X204049380Y-48545904D02*
X204049380Y-49164952D01*
X204430333Y-48831619D01*
X204430333Y-48974476D01*
X204477952Y-49069714D01*
X204525571Y-49117333D01*
X204620809Y-49164952D01*
X204858904Y-49164952D01*
X204954142Y-49117333D01*
X205001761Y-49069714D01*
X205049380Y-48974476D01*
X205049380Y-48688761D01*
X205001761Y-48593523D01*
X204954142Y-48545904D01*
X204049380Y-49450666D02*
X205049380Y-49784000D01*
X204049380Y-50117333D01*
X204049380Y-50355428D02*
X204049380Y-50974476D01*
X204430333Y-50641142D01*
X204430333Y-50784000D01*
X204477952Y-50879238D01*
X204525571Y-50926857D01*
X204620809Y-50974476D01*
X204858904Y-50974476D01*
X204954142Y-50926857D01*
X205001761Y-50879238D01*
X205049380Y-50784000D01*
X205049380Y-50498285D01*
X205001761Y-50403047D01*
X204954142Y-50355428D01*
X220241761Y-48466523D02*
X220289380Y-48609380D01*
X220289380Y-48847476D01*
X220241761Y-48942714D01*
X220194142Y-48990333D01*
X220098904Y-49037952D01*
X220003666Y-49037952D01*
X219908428Y-48990333D01*
X219860809Y-48942714D01*
X219813190Y-48847476D01*
X219765571Y-48657000D01*
X219717952Y-48561761D01*
X219670333Y-48514142D01*
X219575095Y-48466523D01*
X219479857Y-48466523D01*
X219384619Y-48514142D01*
X219337000Y-48561761D01*
X219289380Y-48657000D01*
X219289380Y-48895095D01*
X219337000Y-49037952D01*
X220194142Y-50037952D02*
X220241761Y-49990333D01*
X220289380Y-49847476D01*
X220289380Y-49752238D01*
X220241761Y-49609380D01*
X220146523Y-49514142D01*
X220051285Y-49466523D01*
X219860809Y-49418904D01*
X219717952Y-49418904D01*
X219527476Y-49466523D01*
X219432238Y-49514142D01*
X219337000Y-49609380D01*
X219289380Y-49752238D01*
X219289380Y-49847476D01*
X219337000Y-49990333D01*
X219384619Y-50037952D01*
X220289380Y-50942714D02*
X220289380Y-50466523D01*
X219289380Y-50466523D01*
X217574761Y-48569714D02*
X217622380Y-48712571D01*
X217622380Y-48950666D01*
X217574761Y-49045904D01*
X217527142Y-49093523D01*
X217431904Y-49141142D01*
X217336666Y-49141142D01*
X217241428Y-49093523D01*
X217193809Y-49045904D01*
X217146190Y-48950666D01*
X217098571Y-48760190D01*
X217050952Y-48664952D01*
X217003333Y-48617333D01*
X216908095Y-48569714D01*
X216812857Y-48569714D01*
X216717619Y-48617333D01*
X216670000Y-48664952D01*
X216622380Y-48760190D01*
X216622380Y-48998285D01*
X216670000Y-49141142D01*
X217622380Y-49569714D02*
X216622380Y-49569714D01*
X216622380Y-49807809D01*
X216670000Y-49950666D01*
X216765238Y-50045904D01*
X216860476Y-50093523D01*
X217050952Y-50141142D01*
X217193809Y-50141142D01*
X217384285Y-50093523D01*
X217479523Y-50045904D01*
X217574761Y-49950666D01*
X217622380Y-49807809D01*
X217622380Y-49569714D01*
X217336666Y-50522095D02*
X217336666Y-50998285D01*
X217622380Y-50426857D02*
X216622380Y-50760190D01*
X217622380Y-51093523D01*
X215209380Y-48966523D02*
X215209380Y-48490333D01*
X214209380Y-48490333D01*
X215209380Y-49871285D02*
X214733190Y-49537952D01*
X215209380Y-49299857D02*
X214209380Y-49299857D01*
X214209380Y-49680809D01*
X214257000Y-49776047D01*
X214304619Y-49823666D01*
X214399857Y-49871285D01*
X214542714Y-49871285D01*
X214637952Y-49823666D01*
X214685571Y-49776047D01*
X214733190Y-49680809D01*
X214733190Y-49299857D01*
X215209380Y-50299857D02*
X214209380Y-50299857D01*
X215209380Y-50871285D02*
X214637952Y-50442714D01*
X214209380Y-50871285D02*
X214780809Y-50299857D01*
X225932904Y-44331000D02*
X226028142Y-44283380D01*
X226171000Y-44283380D01*
X226313857Y-44331000D01*
X226409095Y-44426238D01*
X226456714Y-44521476D01*
X226504333Y-44711952D01*
X226504333Y-44854809D01*
X226456714Y-45045285D01*
X226409095Y-45140523D01*
X226313857Y-45235761D01*
X226171000Y-45283380D01*
X226075761Y-45283380D01*
X225932904Y-45235761D01*
X225885285Y-45188142D01*
X225885285Y-44854809D01*
X226075761Y-44854809D01*
X225456714Y-45283380D02*
X225456714Y-44283380D01*
X224885285Y-45283380D01*
X224885285Y-44283380D01*
X224409095Y-45283380D02*
X224409095Y-44283380D01*
X224171000Y-44283380D01*
X224028142Y-44331000D01*
X223932904Y-44426238D01*
X223885285Y-44521476D01*
X223837666Y-44711952D01*
X223837666Y-44854809D01*
X223885285Y-45045285D01*
X223932904Y-45140523D01*
X224028142Y-45235761D01*
X224171000Y-45283380D01*
X224409095Y-45283380D01*
X207303666Y-48569714D02*
X207303666Y-49045904D01*
X207589380Y-48474476D02*
X206589380Y-48807809D01*
X207589380Y-49141142D01*
X207589380Y-49474476D02*
X206589380Y-49474476D01*
X206589380Y-49712571D01*
X206637000Y-49855428D01*
X206732238Y-49950666D01*
X206827476Y-49998285D01*
X207017952Y-50045904D01*
X207160809Y-50045904D01*
X207351285Y-49998285D01*
X207446523Y-49950666D01*
X207541761Y-49855428D01*
X207589380Y-49712571D01*
X207589380Y-49474476D01*
X206589380Y-50664952D02*
X206589380Y-50760190D01*
X206637000Y-50855428D01*
X206684619Y-50903047D01*
X206779857Y-50950666D01*
X206970333Y-50998285D01*
X207208428Y-50998285D01*
X207398904Y-50950666D01*
X207494142Y-50903047D01*
X207541761Y-50855428D01*
X207589380Y-50760190D01*
X207589380Y-50664952D01*
X207541761Y-50569714D01*
X207494142Y-50522095D01*
X207398904Y-50474476D01*
X207208428Y-50426857D01*
X206970333Y-50426857D01*
X206779857Y-50474476D01*
X206684619Y-50522095D01*
X206637000Y-50569714D01*
X206589380Y-50664952D01*
X222829380Y-48426904D02*
X221829380Y-48426904D01*
X222543666Y-48760238D01*
X221829380Y-49093571D01*
X222829380Y-49093571D01*
X222734142Y-50141190D02*
X222781761Y-50093571D01*
X222829380Y-49950714D01*
X222829380Y-49855476D01*
X222781761Y-49712619D01*
X222686523Y-49617380D01*
X222591285Y-49569761D01*
X222400809Y-49522142D01*
X222257952Y-49522142D01*
X222067476Y-49569761D01*
X221972238Y-49617380D01*
X221877000Y-49712619D01*
X221829380Y-49855476D01*
X221829380Y-49950714D01*
X221877000Y-50093571D01*
X221924619Y-50141190D01*
X222829380Y-51045952D02*
X222829380Y-50569761D01*
X221829380Y-50569761D01*
X222829380Y-51379285D02*
X221829380Y-51379285D01*
X222829380Y-51950714D02*
X222257952Y-51522142D01*
X221829380Y-51950714D02*
X222400809Y-51379285D01*
X202437904Y-34044000D02*
X202533142Y-33996380D01*
X202676000Y-33996380D01*
X202818857Y-34044000D01*
X202914095Y-34139238D01*
X202961714Y-34234476D01*
X203009333Y-34424952D01*
X203009333Y-34567809D01*
X202961714Y-34758285D01*
X202914095Y-34853523D01*
X202818857Y-34948761D01*
X202676000Y-34996380D01*
X202580761Y-34996380D01*
X202437904Y-34948761D01*
X202390285Y-34901142D01*
X202390285Y-34567809D01*
X202580761Y-34567809D01*
X201961714Y-34996380D02*
X201961714Y-33996380D01*
X201390285Y-34996380D01*
X201390285Y-33996380D01*
X200914095Y-34996380D02*
X200914095Y-33996380D01*
X200676000Y-33996380D01*
X200533142Y-34044000D01*
X200437904Y-34139238D01*
X200390285Y-34234476D01*
X200342666Y-34424952D01*
X200342666Y-34567809D01*
X200390285Y-34758285D01*
X200437904Y-34853523D01*
X200533142Y-34948761D01*
X200676000Y-34996380D01*
X200914095Y-34996380D01*
X225805904Y-34171000D02*
X225901142Y-34123380D01*
X226044000Y-34123380D01*
X226186857Y-34171000D01*
X226282095Y-34266238D01*
X226329714Y-34361476D01*
X226377333Y-34551952D01*
X226377333Y-34694809D01*
X226329714Y-34885285D01*
X226282095Y-34980523D01*
X226186857Y-35075761D01*
X226044000Y-35123380D01*
X225948761Y-35123380D01*
X225805904Y-35075761D01*
X225758285Y-35028142D01*
X225758285Y-34694809D01*
X225948761Y-34694809D01*
X225329714Y-35123380D02*
X225329714Y-34123380D01*
X224758285Y-35123380D01*
X224758285Y-34123380D01*
X224282095Y-35123380D02*
X224282095Y-34123380D01*
X224044000Y-34123380D01*
X223901142Y-34171000D01*
X223805904Y-34266238D01*
X223758285Y-34361476D01*
X223710666Y-34551952D01*
X223710666Y-34694809D01*
X223758285Y-34885285D01*
X223805904Y-34980523D01*
X223901142Y-35075761D01*
X224044000Y-35123380D01*
X224282095Y-35123380D01*
X203922380Y-38385904D02*
X203922380Y-39004952D01*
X204303333Y-38671619D01*
X204303333Y-38814476D01*
X204350952Y-38909714D01*
X204398571Y-38957333D01*
X204493809Y-39004952D01*
X204731904Y-39004952D01*
X204827142Y-38957333D01*
X204874761Y-38909714D01*
X204922380Y-38814476D01*
X204922380Y-38528761D01*
X204874761Y-38433523D01*
X204827142Y-38385904D01*
X203922380Y-39290666D02*
X204922380Y-39624000D01*
X203922380Y-39957333D01*
X203922380Y-40195428D02*
X203922380Y-40814476D01*
X204303333Y-40481142D01*
X204303333Y-40624000D01*
X204350952Y-40719238D01*
X204398571Y-40766857D01*
X204493809Y-40814476D01*
X204731904Y-40814476D01*
X204827142Y-40766857D01*
X204874761Y-40719238D01*
X204922380Y-40624000D01*
X204922380Y-40338285D01*
X204874761Y-40243047D01*
X204827142Y-40195428D01*
X222702380Y-38266904D02*
X221702380Y-38266904D01*
X222416666Y-38600238D01*
X221702380Y-38933571D01*
X222702380Y-38933571D01*
X222607142Y-39981190D02*
X222654761Y-39933571D01*
X222702380Y-39790714D01*
X222702380Y-39695476D01*
X222654761Y-39552619D01*
X222559523Y-39457380D01*
X222464285Y-39409761D01*
X222273809Y-39362142D01*
X222130952Y-39362142D01*
X221940476Y-39409761D01*
X221845238Y-39457380D01*
X221750000Y-39552619D01*
X221702380Y-39695476D01*
X221702380Y-39790714D01*
X221750000Y-39933571D01*
X221797619Y-39981190D01*
X222702380Y-40885952D02*
X222702380Y-40409761D01*
X221702380Y-40409761D01*
X222702380Y-41219285D02*
X221702380Y-41219285D01*
X222702380Y-41790714D02*
X222130952Y-41362142D01*
X221702380Y-41790714D02*
X222273809Y-41219285D01*
X212018571Y-38695428D02*
X212066190Y-38838285D01*
X212113809Y-38885904D01*
X212209047Y-38933523D01*
X212351904Y-38933523D01*
X212447142Y-38885904D01*
X212494761Y-38838285D01*
X212542380Y-38743047D01*
X212542380Y-38362095D01*
X211542380Y-38362095D01*
X211542380Y-38695428D01*
X211590000Y-38790666D01*
X211637619Y-38838285D01*
X211732857Y-38885904D01*
X211828095Y-38885904D01*
X211923333Y-38838285D01*
X211970952Y-38790666D01*
X212018571Y-38695428D01*
X212018571Y-38362095D01*
X212447142Y-39933523D02*
X212494761Y-39885904D01*
X212542380Y-39743047D01*
X212542380Y-39647809D01*
X212494761Y-39504952D01*
X212399523Y-39409714D01*
X212304285Y-39362095D01*
X212113809Y-39314476D01*
X211970952Y-39314476D01*
X211780476Y-39362095D01*
X211685238Y-39409714D01*
X211590000Y-39504952D01*
X211542380Y-39647809D01*
X211542380Y-39743047D01*
X211590000Y-39885904D01*
X211637619Y-39933523D01*
X212542380Y-40362095D02*
X211542380Y-40362095D01*
X212542380Y-40933523D02*
X211970952Y-40504952D01*
X211542380Y-40933523D02*
X212113809Y-40362095D01*
X210002380Y-38370000D02*
X209002380Y-38370000D01*
X210002380Y-38846190D02*
X209002380Y-38846190D01*
X210002380Y-39417619D01*
X209002380Y-39417619D01*
X209002380Y-40084285D02*
X209002380Y-40179523D01*
X209050000Y-40274761D01*
X209097619Y-40322380D01*
X209192857Y-40370000D01*
X209383333Y-40417619D01*
X209621428Y-40417619D01*
X209811904Y-40370000D01*
X209907142Y-40322380D01*
X209954761Y-40274761D01*
X210002380Y-40179523D01*
X210002380Y-40084285D01*
X209954761Y-39989047D01*
X209907142Y-39941428D01*
X209811904Y-39893809D01*
X209621428Y-39846190D01*
X209383333Y-39846190D01*
X209192857Y-39893809D01*
X209097619Y-39941428D01*
X209050000Y-39989047D01*
X209002380Y-40084285D01*
X220114761Y-38306523D02*
X220162380Y-38449380D01*
X220162380Y-38687476D01*
X220114761Y-38782714D01*
X220067142Y-38830333D01*
X219971904Y-38877952D01*
X219876666Y-38877952D01*
X219781428Y-38830333D01*
X219733809Y-38782714D01*
X219686190Y-38687476D01*
X219638571Y-38497000D01*
X219590952Y-38401761D01*
X219543333Y-38354142D01*
X219448095Y-38306523D01*
X219352857Y-38306523D01*
X219257619Y-38354142D01*
X219210000Y-38401761D01*
X219162380Y-38497000D01*
X219162380Y-38735095D01*
X219210000Y-38877952D01*
X220067142Y-39877952D02*
X220114761Y-39830333D01*
X220162380Y-39687476D01*
X220162380Y-39592238D01*
X220114761Y-39449380D01*
X220019523Y-39354142D01*
X219924285Y-39306523D01*
X219733809Y-39258904D01*
X219590952Y-39258904D01*
X219400476Y-39306523D01*
X219305238Y-39354142D01*
X219210000Y-39449380D01*
X219162380Y-39592238D01*
X219162380Y-39687476D01*
X219210000Y-39830333D01*
X219257619Y-39877952D01*
X220162380Y-40782714D02*
X220162380Y-40306523D01*
X219162380Y-40306523D01*
X207176666Y-38409714D02*
X207176666Y-38885904D01*
X207462380Y-38314476D02*
X206462380Y-38647809D01*
X207462380Y-38981142D01*
X207462380Y-39314476D02*
X206462380Y-39314476D01*
X206462380Y-39552571D01*
X206510000Y-39695428D01*
X206605238Y-39790666D01*
X206700476Y-39838285D01*
X206890952Y-39885904D01*
X207033809Y-39885904D01*
X207224285Y-39838285D01*
X207319523Y-39790666D01*
X207414761Y-39695428D01*
X207462380Y-39552571D01*
X207462380Y-39314476D01*
X206462380Y-40504952D02*
X206462380Y-40600190D01*
X206510000Y-40695428D01*
X206557619Y-40743047D01*
X206652857Y-40790666D01*
X206843333Y-40838285D01*
X207081428Y-40838285D01*
X207271904Y-40790666D01*
X207367142Y-40743047D01*
X207414761Y-40695428D01*
X207462380Y-40600190D01*
X207462380Y-40504952D01*
X207414761Y-40409714D01*
X207367142Y-40362095D01*
X207271904Y-40314476D01*
X207081428Y-40266857D01*
X206843333Y-40266857D01*
X206652857Y-40314476D01*
X206557619Y-40362095D01*
X206510000Y-40409714D01*
X206462380Y-40504952D01*
X217447761Y-38409714D02*
X217495380Y-38552571D01*
X217495380Y-38790666D01*
X217447761Y-38885904D01*
X217400142Y-38933523D01*
X217304904Y-38981142D01*
X217209666Y-38981142D01*
X217114428Y-38933523D01*
X217066809Y-38885904D01*
X217019190Y-38790666D01*
X216971571Y-38600190D01*
X216923952Y-38504952D01*
X216876333Y-38457333D01*
X216781095Y-38409714D01*
X216685857Y-38409714D01*
X216590619Y-38457333D01*
X216543000Y-38504952D01*
X216495380Y-38600190D01*
X216495380Y-38838285D01*
X216543000Y-38981142D01*
X217495380Y-39409714D02*
X216495380Y-39409714D01*
X216495380Y-39647809D01*
X216543000Y-39790666D01*
X216638238Y-39885904D01*
X216733476Y-39933523D01*
X216923952Y-39981142D01*
X217066809Y-39981142D01*
X217257285Y-39933523D01*
X217352523Y-39885904D01*
X217447761Y-39790666D01*
X217495380Y-39647809D01*
X217495380Y-39409714D01*
X217209666Y-40362095D02*
X217209666Y-40838285D01*
X217495380Y-40266857D02*
X216495380Y-40600190D01*
X217495380Y-40933523D01*
X215082380Y-38806523D02*
X215082380Y-38330333D01*
X214082380Y-38330333D01*
X215082380Y-39711285D02*
X214606190Y-39377952D01*
X215082380Y-39139857D02*
X214082380Y-39139857D01*
X214082380Y-39520809D01*
X214130000Y-39616047D01*
X214177619Y-39663666D01*
X214272857Y-39711285D01*
X214415714Y-39711285D01*
X214510952Y-39663666D01*
X214558571Y-39616047D01*
X214606190Y-39520809D01*
X214606190Y-39139857D01*
X215082380Y-40139857D02*
X214082380Y-40139857D01*
X215082380Y-40711285D02*
X214510952Y-40282714D01*
X214082380Y-40711285D02*
X214653809Y-40139857D01*
D11*
X172720000Y-73025000D02*
X172720000Y-79375000D01*
D10*
X152145904Y-34044000D02*
X152241142Y-33996380D01*
X152384000Y-33996380D01*
X152526857Y-34044000D01*
X152622095Y-34139238D01*
X152669714Y-34234476D01*
X152717333Y-34424952D01*
X152717333Y-34567809D01*
X152669714Y-34758285D01*
X152622095Y-34853523D01*
X152526857Y-34948761D01*
X152384000Y-34996380D01*
X152288761Y-34996380D01*
X152145904Y-34948761D01*
X152098285Y-34901142D01*
X152098285Y-34567809D01*
X152288761Y-34567809D01*
X151669714Y-34996380D02*
X151669714Y-33996380D01*
X151098285Y-34996380D01*
X151098285Y-33996380D01*
X150622095Y-34996380D02*
X150622095Y-33996380D01*
X150384000Y-33996380D01*
X150241142Y-34044000D01*
X150145904Y-34139238D01*
X150098285Y-34234476D01*
X150050666Y-34424952D01*
X150050666Y-34567809D01*
X150098285Y-34758285D01*
X150145904Y-34853523D01*
X150241142Y-34948761D01*
X150384000Y-34996380D01*
X150622095Y-34996380D01*
X152018904Y-44077000D02*
X152114142Y-44029380D01*
X152257000Y-44029380D01*
X152399857Y-44077000D01*
X152495095Y-44172238D01*
X152542714Y-44267476D01*
X152590333Y-44457952D01*
X152590333Y-44600809D01*
X152542714Y-44791285D01*
X152495095Y-44886523D01*
X152399857Y-44981761D01*
X152257000Y-45029380D01*
X152161761Y-45029380D01*
X152018904Y-44981761D01*
X151971285Y-44934142D01*
X151971285Y-44600809D01*
X152161761Y-44600809D01*
X151542714Y-45029380D02*
X151542714Y-44029380D01*
X150971285Y-45029380D01*
X150971285Y-44029380D01*
X150495095Y-45029380D02*
X150495095Y-44029380D01*
X150257000Y-44029380D01*
X150114142Y-44077000D01*
X150018904Y-44172238D01*
X149971285Y-44267476D01*
X149923666Y-44457952D01*
X149923666Y-44600809D01*
X149971285Y-44791285D01*
X150018904Y-44886523D01*
X150114142Y-44981761D01*
X150257000Y-45029380D01*
X150495095Y-45029380D01*
X152018904Y-54110000D02*
X152114142Y-54062380D01*
X152257000Y-54062380D01*
X152399857Y-54110000D01*
X152495095Y-54205238D01*
X152542714Y-54300476D01*
X152590333Y-54490952D01*
X152590333Y-54633809D01*
X152542714Y-54824285D01*
X152495095Y-54919523D01*
X152399857Y-55014761D01*
X152257000Y-55062380D01*
X152161761Y-55062380D01*
X152018904Y-55014761D01*
X151971285Y-54967142D01*
X151971285Y-54633809D01*
X152161761Y-54633809D01*
X151542714Y-55062380D02*
X151542714Y-54062380D01*
X150971285Y-55062380D01*
X150971285Y-54062380D01*
X150495095Y-55062380D02*
X150495095Y-54062380D01*
X150257000Y-54062380D01*
X150114142Y-54110000D01*
X150018904Y-54205238D01*
X149971285Y-54300476D01*
X149923666Y-54490952D01*
X149923666Y-54633809D01*
X149971285Y-54824285D01*
X150018904Y-54919523D01*
X150114142Y-55014761D01*
X150257000Y-55062380D01*
X150495095Y-55062380D01*
X152018904Y-64397000D02*
X152114142Y-64349380D01*
X152257000Y-64349380D01*
X152399857Y-64397000D01*
X152495095Y-64492238D01*
X152542714Y-64587476D01*
X152590333Y-64777952D01*
X152590333Y-64920809D01*
X152542714Y-65111285D01*
X152495095Y-65206523D01*
X152399857Y-65301761D01*
X152257000Y-65349380D01*
X152161761Y-65349380D01*
X152018904Y-65301761D01*
X151971285Y-65254142D01*
X151971285Y-64920809D01*
X152161761Y-64920809D01*
X151542714Y-65349380D02*
X151542714Y-64349380D01*
X150971285Y-65349380D01*
X150971285Y-64349380D01*
X150495095Y-65349380D02*
X150495095Y-64349380D01*
X150257000Y-64349380D01*
X150114142Y-64397000D01*
X150018904Y-64492238D01*
X149971285Y-64587476D01*
X149923666Y-64777952D01*
X149923666Y-64920809D01*
X149971285Y-65111285D01*
X150018904Y-65206523D01*
X150114142Y-65301761D01*
X150257000Y-65349380D01*
X150495095Y-65349380D01*
X145629380Y-78771904D02*
X145629380Y-79390952D01*
X146010333Y-79057619D01*
X146010333Y-79200476D01*
X146057952Y-79295714D01*
X146105571Y-79343333D01*
X146200809Y-79390952D01*
X146438904Y-79390952D01*
X146534142Y-79343333D01*
X146581761Y-79295714D01*
X146629380Y-79200476D01*
X146629380Y-78914761D01*
X146581761Y-78819523D01*
X146534142Y-78771904D01*
X145629380Y-79676666D02*
X146629380Y-80010000D01*
X145629380Y-80343333D01*
X145629380Y-80581428D02*
X145629380Y-81200476D01*
X146010333Y-80867142D01*
X146010333Y-81010000D01*
X146057952Y-81105238D01*
X146105571Y-81152857D01*
X146200809Y-81200476D01*
X146438904Y-81200476D01*
X146534142Y-81152857D01*
X146581761Y-81105238D01*
X146629380Y-81010000D01*
X146629380Y-80724285D01*
X146581761Y-80629047D01*
X146534142Y-80581428D01*
X145629380Y-71151904D02*
X145629380Y-71770952D01*
X146010333Y-71437619D01*
X146010333Y-71580476D01*
X146057952Y-71675714D01*
X146105571Y-71723333D01*
X146200809Y-71770952D01*
X146438904Y-71770952D01*
X146534142Y-71723333D01*
X146581761Y-71675714D01*
X146629380Y-71580476D01*
X146629380Y-71294761D01*
X146581761Y-71199523D01*
X146534142Y-71151904D01*
X145629380Y-72056666D02*
X146629380Y-72390000D01*
X145629380Y-72723333D01*
X145629380Y-72961428D02*
X145629380Y-73580476D01*
X146010333Y-73247142D01*
X146010333Y-73390000D01*
X146057952Y-73485238D01*
X146105571Y-73532857D01*
X146200809Y-73580476D01*
X146438904Y-73580476D01*
X146534142Y-73532857D01*
X146581761Y-73485238D01*
X146629380Y-73390000D01*
X146629380Y-73104285D01*
X146581761Y-73009047D01*
X146534142Y-72961428D01*
X163996666Y-72310714D02*
X163996666Y-72786904D01*
X164282380Y-72215476D02*
X163282380Y-72548809D01*
X164282380Y-72882142D01*
X163282380Y-73120238D02*
X163282380Y-73739285D01*
X163663333Y-73405952D01*
X163663333Y-73548809D01*
X163710952Y-73644047D01*
X163758571Y-73691666D01*
X163853809Y-73739285D01*
X164091904Y-73739285D01*
X164187142Y-73691666D01*
X164234761Y-73644047D01*
X164282380Y-73548809D01*
X164282380Y-73263095D01*
X164234761Y-73167857D01*
X164187142Y-73120238D01*
X166536666Y-72310714D02*
X166536666Y-72786904D01*
X166822380Y-72215476D02*
X165822380Y-72548809D01*
X166822380Y-72882142D01*
X165917619Y-73167857D02*
X165870000Y-73215476D01*
X165822380Y-73310714D01*
X165822380Y-73548809D01*
X165870000Y-73644047D01*
X165917619Y-73691666D01*
X166012857Y-73739285D01*
X166108095Y-73739285D01*
X166250952Y-73691666D01*
X166822380Y-73120238D01*
X166822380Y-73739285D01*
X151296666Y-72310714D02*
X151296666Y-72786904D01*
X151582380Y-72215476D02*
X150582380Y-72548809D01*
X151582380Y-72882142D01*
X151582380Y-73739285D02*
X151582380Y-73167857D01*
X151582380Y-73453571D02*
X150582380Y-73453571D01*
X150725238Y-73358333D01*
X150820476Y-73263095D01*
X150868095Y-73167857D01*
X153836666Y-78787714D02*
X153836666Y-79263904D01*
X154122380Y-78692476D02*
X153122380Y-79025809D01*
X154122380Y-79359142D01*
X153122380Y-79882952D02*
X153122380Y-79978190D01*
X153170000Y-80073428D01*
X153217619Y-80121047D01*
X153312857Y-80168666D01*
X153503333Y-80216285D01*
X153741428Y-80216285D01*
X153931904Y-80168666D01*
X154027142Y-80121047D01*
X154074761Y-80073428D01*
X154122380Y-79978190D01*
X154122380Y-79882952D01*
X154074761Y-79787714D01*
X154027142Y-79740095D01*
X153931904Y-79692476D01*
X153741428Y-79644857D01*
X153503333Y-79644857D01*
X153312857Y-79692476D01*
X153217619Y-79740095D01*
X153170000Y-79787714D01*
X153122380Y-79882952D01*
X155662380Y-71866238D02*
X156662380Y-72104333D01*
X155948095Y-72294809D01*
X156662380Y-72485285D01*
X155662380Y-72723380D01*
X156614761Y-73056714D02*
X156662380Y-73199571D01*
X156662380Y-73437666D01*
X156614761Y-73532904D01*
X156567142Y-73580523D01*
X156471904Y-73628142D01*
X156376666Y-73628142D01*
X156281428Y-73580523D01*
X156233809Y-73532904D01*
X156186190Y-73437666D01*
X156138571Y-73247190D01*
X156090952Y-73151952D01*
X156043333Y-73104333D01*
X155948095Y-73056714D01*
X155852857Y-73056714D01*
X155757619Y-73104333D01*
X155710000Y-73151952D01*
X155662380Y-73247190D01*
X155662380Y-73485285D01*
X155710000Y-73628142D01*
X158805571Y-79081428D02*
X158853190Y-79224285D01*
X158900809Y-79271904D01*
X158996047Y-79319523D01*
X159138904Y-79319523D01*
X159234142Y-79271904D01*
X159281761Y-79224285D01*
X159329380Y-79129047D01*
X159329380Y-78748095D01*
X158329380Y-78748095D01*
X158329380Y-79081428D01*
X158377000Y-79176666D01*
X158424619Y-79224285D01*
X158519857Y-79271904D01*
X158615095Y-79271904D01*
X158710333Y-79224285D01*
X158757952Y-79176666D01*
X158805571Y-79081428D01*
X158805571Y-78748095D01*
X159234142Y-80319523D02*
X159281761Y-80271904D01*
X159329380Y-80129047D01*
X159329380Y-80033809D01*
X159281761Y-79890952D01*
X159186523Y-79795714D01*
X159091285Y-79748095D01*
X158900809Y-79700476D01*
X158757952Y-79700476D01*
X158567476Y-79748095D01*
X158472238Y-79795714D01*
X158377000Y-79890952D01*
X158329380Y-80033809D01*
X158329380Y-80129047D01*
X158377000Y-80271904D01*
X158424619Y-80319523D01*
X159329380Y-80748095D02*
X158329380Y-80748095D01*
X159329380Y-81319523D02*
X158757952Y-80890952D01*
X158329380Y-81319523D02*
X158900809Y-80748095D01*
X225617138Y-125694035D02*
X225569519Y-125551178D01*
X225569519Y-125313082D01*
X225617138Y-125217844D01*
X225664757Y-125170225D01*
X225759995Y-125122606D01*
X225855233Y-125122606D01*
X225950471Y-125170225D01*
X225998090Y-125217844D01*
X226045709Y-125313082D01*
X226093328Y-125503559D01*
X226140947Y-125598797D01*
X226188566Y-125646416D01*
X226283804Y-125694035D01*
X226379042Y-125694035D01*
X226474280Y-125646416D01*
X226521900Y-125598797D01*
X226569519Y-125503559D01*
X226569519Y-125265463D01*
X226521900Y-125122606D01*
X225569519Y-124694035D02*
X226569519Y-124694035D01*
X225855233Y-124360701D01*
X226569519Y-124027368D01*
X225569519Y-124027368D01*
X226569519Y-123551178D02*
X225759995Y-123551178D01*
X225664757Y-123503559D01*
X225617138Y-123455940D01*
X225569519Y-123360701D01*
X225569519Y-123170225D01*
X225617138Y-123074987D01*
X225664757Y-123027368D01*
X225759995Y-122979749D01*
X226569519Y-122979749D01*
X226569519Y-122598797D02*
X225569519Y-121932130D01*
X226569519Y-121932130D02*
X225569519Y-122598797D01*
X225950471Y-121551178D02*
X225950471Y-120789273D01*
X225569519Y-120313082D02*
X226569519Y-120313082D01*
X225569519Y-119836892D02*
X226569519Y-119836892D01*
X225569519Y-119265463D01*
X226569519Y-119265463D01*
X236116523Y-128849380D02*
X236116523Y-127849380D01*
X235735571Y-127849380D01*
X235640333Y-127897000D01*
X235592714Y-127944619D01*
X235545095Y-128039857D01*
X235545095Y-128182714D01*
X235592714Y-128277952D01*
X235640333Y-128325571D01*
X235735571Y-128373190D01*
X236116523Y-128373190D01*
X234926047Y-127849380D02*
X234735571Y-127849380D01*
X234640333Y-127897000D01*
X234545095Y-127992238D01*
X234497476Y-128182714D01*
X234497476Y-128516047D01*
X234545095Y-128706523D01*
X234640333Y-128801761D01*
X234735571Y-128849380D01*
X234926047Y-128849380D01*
X235021285Y-128801761D01*
X235116523Y-128706523D01*
X235164142Y-128516047D01*
X235164142Y-128182714D01*
X235116523Y-127992238D01*
X235021285Y-127897000D01*
X234926047Y-127849380D01*
X234164142Y-127849380D02*
X233926047Y-128849380D01*
X233735571Y-128135095D01*
X233545095Y-128849380D01*
X233307000Y-127849380D01*
X232926047Y-128325571D02*
X232592714Y-128325571D01*
X232449857Y-128849380D02*
X232926047Y-128849380D01*
X232926047Y-127849380D01*
X232449857Y-127849380D01*
X231449857Y-128849380D02*
X231783190Y-128373190D01*
X232021285Y-128849380D02*
X232021285Y-127849380D01*
X231640333Y-127849380D01*
X231545095Y-127897000D01*
X231497476Y-127944619D01*
X231449857Y-128039857D01*
X231449857Y-128182714D01*
X231497476Y-128277952D01*
X231545095Y-128325571D01*
X231640333Y-128373190D01*
X232021285Y-128373190D01*
X146214839Y-126616625D02*
X146214839Y-127092816D01*
X147214839Y-127092816D01*
X147214839Y-126092816D02*
X147214839Y-125902340D01*
X147167220Y-125807101D01*
X147071981Y-125711863D01*
X146881505Y-125664244D01*
X146548172Y-125664244D01*
X146357696Y-125711863D01*
X146262458Y-125807101D01*
X146214839Y-125902340D01*
X146214839Y-126092816D01*
X146262458Y-126188054D01*
X146357696Y-126283292D01*
X146548172Y-126330911D01*
X146881505Y-126330911D01*
X147071981Y-126283292D01*
X147167220Y-126188054D01*
X147214839Y-126092816D01*
X146310077Y-124664244D02*
X146262458Y-124711863D01*
X146214839Y-124854720D01*
X146214839Y-124949959D01*
X146262458Y-125092816D01*
X146357696Y-125188054D01*
X146452934Y-125235673D01*
X146643410Y-125283292D01*
X146786267Y-125283292D01*
X146976743Y-125235673D01*
X147071981Y-125188054D01*
X147167220Y-125092816D01*
X147214839Y-124949959D01*
X147214839Y-124854720D01*
X147167220Y-124711863D01*
X147119600Y-124664244D01*
X146214839Y-124235673D02*
X147214839Y-124235673D01*
X146214839Y-123664244D02*
X146786267Y-124092816D01*
X147214839Y-123664244D02*
X146643410Y-124235673D01*
X142804781Y-123458837D02*
X142852400Y-123601694D01*
X142852400Y-123839789D01*
X142804781Y-123935027D01*
X142757162Y-123982646D01*
X142661924Y-124030265D01*
X142566686Y-124030265D01*
X142471448Y-123982646D01*
X142423829Y-123935027D01*
X142376210Y-123839789D01*
X142328591Y-123649313D01*
X142280972Y-123554075D01*
X142233353Y-123506456D01*
X142138115Y-123458837D01*
X142042877Y-123458837D01*
X141947639Y-123506456D01*
X141900020Y-123554075D01*
X141852400Y-123649313D01*
X141852400Y-123887408D01*
X141900020Y-124030265D01*
X142852400Y-124458837D02*
X141852400Y-124458837D01*
X142566686Y-124792170D01*
X141852400Y-125125503D01*
X142852400Y-125125503D01*
X141852400Y-125601694D02*
X142661924Y-125601694D01*
X142757162Y-125649313D01*
X142804781Y-125696932D01*
X142852400Y-125792170D01*
X142852400Y-125982646D01*
X142804781Y-126077884D01*
X142757162Y-126125503D01*
X142661924Y-126173122D01*
X141852400Y-126173122D01*
X141852400Y-126554075D02*
X142852400Y-127220741D01*
X141852400Y-127220741D02*
X142852400Y-126554075D01*
X170950000Y-79502095D02*
X170902380Y-79406857D01*
X170902380Y-79264000D01*
X170950000Y-79121142D01*
X171045238Y-79025904D01*
X171140476Y-78978285D01*
X171330952Y-78930666D01*
X171473809Y-78930666D01*
X171664285Y-78978285D01*
X171759523Y-79025904D01*
X171854761Y-79121142D01*
X171902380Y-79264000D01*
X171902380Y-79359238D01*
X171854761Y-79502095D01*
X171807142Y-79549714D01*
X171473809Y-79549714D01*
X171473809Y-79359238D01*
X171902380Y-79978285D02*
X170902380Y-79978285D01*
X171902380Y-80549714D01*
X170902380Y-80549714D01*
X171902380Y-81025904D02*
X170902380Y-81025904D01*
X170902380Y-81264000D01*
X170950000Y-81406857D01*
X171045238Y-81502095D01*
X171140476Y-81549714D01*
X171330952Y-81597333D01*
X171473809Y-81597333D01*
X171664285Y-81549714D01*
X171759523Y-81502095D01*
X171854761Y-81406857D01*
X171902380Y-81264000D01*
X171902380Y-81025904D01*
X175386904Y-64524000D02*
X175482142Y-64476380D01*
X175625000Y-64476380D01*
X175767857Y-64524000D01*
X175863095Y-64619238D01*
X175910714Y-64714476D01*
X175958333Y-64904952D01*
X175958333Y-65047809D01*
X175910714Y-65238285D01*
X175863095Y-65333523D01*
X175767857Y-65428761D01*
X175625000Y-65476380D01*
X175529761Y-65476380D01*
X175386904Y-65428761D01*
X175339285Y-65381142D01*
X175339285Y-65047809D01*
X175529761Y-65047809D01*
X174910714Y-65476380D02*
X174910714Y-64476380D01*
X174339285Y-65476380D01*
X174339285Y-64476380D01*
X173863095Y-65476380D02*
X173863095Y-64476380D01*
X173625000Y-64476380D01*
X173482142Y-64524000D01*
X173386904Y-64619238D01*
X173339285Y-64714476D01*
X173291666Y-64904952D01*
X173291666Y-65047809D01*
X173339285Y-65238285D01*
X173386904Y-65333523D01*
X173482142Y-65428761D01*
X173625000Y-65476380D01*
X173863095Y-65476380D01*
X175386904Y-54364000D02*
X175482142Y-54316380D01*
X175625000Y-54316380D01*
X175767857Y-54364000D01*
X175863095Y-54459238D01*
X175910714Y-54554476D01*
X175958333Y-54744952D01*
X175958333Y-54887809D01*
X175910714Y-55078285D01*
X175863095Y-55173523D01*
X175767857Y-55268761D01*
X175625000Y-55316380D01*
X175529761Y-55316380D01*
X175386904Y-55268761D01*
X175339285Y-55221142D01*
X175339285Y-54887809D01*
X175529761Y-54887809D01*
X174910714Y-55316380D02*
X174910714Y-54316380D01*
X174339285Y-55316380D01*
X174339285Y-54316380D01*
X173863095Y-55316380D02*
X173863095Y-54316380D01*
X173625000Y-54316380D01*
X173482142Y-54364000D01*
X173386904Y-54459238D01*
X173339285Y-54554476D01*
X173291666Y-54744952D01*
X173291666Y-54887809D01*
X173339285Y-55078285D01*
X173386904Y-55173523D01*
X173482142Y-55268761D01*
X173625000Y-55316380D01*
X173863095Y-55316380D01*
X175259904Y-44204000D02*
X175355142Y-44156380D01*
X175498000Y-44156380D01*
X175640857Y-44204000D01*
X175736095Y-44299238D01*
X175783714Y-44394476D01*
X175831333Y-44584952D01*
X175831333Y-44727809D01*
X175783714Y-44918285D01*
X175736095Y-45013523D01*
X175640857Y-45108761D01*
X175498000Y-45156380D01*
X175402761Y-45156380D01*
X175259904Y-45108761D01*
X175212285Y-45061142D01*
X175212285Y-44727809D01*
X175402761Y-44727809D01*
X174783714Y-45156380D02*
X174783714Y-44156380D01*
X174212285Y-45156380D01*
X174212285Y-44156380D01*
X173736095Y-45156380D02*
X173736095Y-44156380D01*
X173498000Y-44156380D01*
X173355142Y-44204000D01*
X173259904Y-44299238D01*
X173212285Y-44394476D01*
X173164666Y-44584952D01*
X173164666Y-44727809D01*
X173212285Y-44918285D01*
X173259904Y-45013523D01*
X173355142Y-45108761D01*
X173498000Y-45156380D01*
X173736095Y-45156380D01*
X169362380Y-78779904D02*
X168362380Y-78779904D01*
X169076666Y-79113238D01*
X168362380Y-79446571D01*
X169362380Y-79446571D01*
X169267142Y-80494190D02*
X169314761Y-80446571D01*
X169362380Y-80303714D01*
X169362380Y-80208476D01*
X169314761Y-80065619D01*
X169219523Y-79970380D01*
X169124285Y-79922761D01*
X168933809Y-79875142D01*
X168790952Y-79875142D01*
X168600476Y-79922761D01*
X168505238Y-79970380D01*
X168410000Y-80065619D01*
X168362380Y-80208476D01*
X168362380Y-80303714D01*
X168410000Y-80446571D01*
X168457619Y-80494190D01*
X169362380Y-81398952D02*
X169362380Y-80922761D01*
X168362380Y-80922761D01*
X169362380Y-81732285D02*
X168362380Y-81732285D01*
X169362380Y-82303714D02*
X168790952Y-81875142D01*
X168362380Y-82303714D02*
X168933809Y-81732285D01*
X161869380Y-72286904D02*
X160869380Y-72286904D01*
X160869380Y-72525000D01*
X160917000Y-72667857D01*
X161012238Y-72763095D01*
X161107476Y-72810714D01*
X161297952Y-72858333D01*
X161440809Y-72858333D01*
X161631285Y-72810714D01*
X161726523Y-72763095D01*
X161821761Y-72667857D01*
X161869380Y-72525000D01*
X161869380Y-72286904D01*
X160869380Y-73191666D02*
X160869380Y-73810714D01*
X161250333Y-73477380D01*
X161250333Y-73620238D01*
X161297952Y-73715476D01*
X161345571Y-73763095D01*
X161440809Y-73810714D01*
X161678904Y-73810714D01*
X161774142Y-73763095D01*
X161821761Y-73715476D01*
X161869380Y-73620238D01*
X161869380Y-73334523D01*
X161821761Y-73239285D01*
X161774142Y-73191666D01*
X154122380Y-72286904D02*
X153122380Y-72286904D01*
X153122380Y-72525000D01*
X153170000Y-72667857D01*
X153265238Y-72763095D01*
X153360476Y-72810714D01*
X153550952Y-72858333D01*
X153693809Y-72858333D01*
X153884285Y-72810714D01*
X153979523Y-72763095D01*
X154074761Y-72667857D01*
X154122380Y-72525000D01*
X154122380Y-72286904D01*
X154122380Y-73810714D02*
X154122380Y-73239285D01*
X154122380Y-73525000D02*
X153122380Y-73525000D01*
X153265238Y-73429761D01*
X153360476Y-73334523D01*
X153408095Y-73239285D01*
X147802000Y-78708428D02*
X147802000Y-79708428D01*
X149169380Y-79517952D02*
X148693190Y-79184619D01*
X149169380Y-78946523D02*
X148169380Y-78946523D01*
X148169380Y-79327476D01*
X148217000Y-79422714D01*
X148264619Y-79470333D01*
X148359857Y-79517952D01*
X148502714Y-79517952D01*
X148597952Y-79470333D01*
X148645571Y-79422714D01*
X148693190Y-79327476D01*
X148693190Y-78946523D01*
X147802000Y-79708428D02*
X147802000Y-80613190D01*
X148645571Y-79946523D02*
X148645571Y-80279857D01*
X149169380Y-80422714D02*
X149169380Y-79946523D01*
X148169380Y-79946523D01*
X148169380Y-80422714D01*
X147802000Y-80613190D02*
X147802000Y-81565571D01*
X149121761Y-80803666D02*
X149169380Y-80946523D01*
X149169380Y-81184619D01*
X149121761Y-81279857D01*
X149074142Y-81327476D01*
X148978904Y-81375095D01*
X148883666Y-81375095D01*
X148788428Y-81327476D01*
X148740809Y-81279857D01*
X148693190Y-81184619D01*
X148645571Y-80994142D01*
X148597952Y-80898904D01*
X148550333Y-80851285D01*
X148455095Y-80803666D01*
X148359857Y-80803666D01*
X148264619Y-80851285D01*
X148217000Y-80898904D01*
X148169380Y-80994142D01*
X148169380Y-81232238D01*
X148217000Y-81375095D01*
X166822380Y-78763904D02*
X165822380Y-78763904D01*
X165822380Y-79002000D01*
X165870000Y-79144857D01*
X165965238Y-79240095D01*
X166060476Y-79287714D01*
X166250952Y-79335333D01*
X166393809Y-79335333D01*
X166584285Y-79287714D01*
X166679523Y-79240095D01*
X166774761Y-79144857D01*
X166822380Y-79002000D01*
X166822380Y-78763904D01*
X165917619Y-79716285D02*
X165870000Y-79763904D01*
X165822380Y-79859142D01*
X165822380Y-80097238D01*
X165870000Y-80192476D01*
X165917619Y-80240095D01*
X166012857Y-80287714D01*
X166108095Y-80287714D01*
X166250952Y-80240095D01*
X166822380Y-79668666D01*
X166822380Y-80287714D01*
X156789380Y-78763904D02*
X155789380Y-78763904D01*
X155789380Y-79002000D01*
X155837000Y-79144857D01*
X155932238Y-79240095D01*
X156027476Y-79287714D01*
X156217952Y-79335333D01*
X156360809Y-79335333D01*
X156551285Y-79287714D01*
X156646523Y-79240095D01*
X156741761Y-79144857D01*
X156789380Y-79002000D01*
X156789380Y-78763904D01*
X155789380Y-79954380D02*
X155789380Y-80049619D01*
X155837000Y-80144857D01*
X155884619Y-80192476D01*
X155979857Y-80240095D01*
X156170333Y-80287714D01*
X156408428Y-80287714D01*
X156598904Y-80240095D01*
X156694142Y-80192476D01*
X156741761Y-80144857D01*
X156789380Y-80049619D01*
X156789380Y-79954380D01*
X156741761Y-79859142D01*
X156694142Y-79811523D01*
X156598904Y-79763904D01*
X156408428Y-79716285D01*
X156170333Y-79716285D01*
X155979857Y-79763904D01*
X155884619Y-79811523D01*
X155837000Y-79859142D01*
X155789380Y-79954380D01*
X169695761Y-68659523D02*
X169743380Y-68802380D01*
X169743380Y-69040476D01*
X169695761Y-69135714D01*
X169648142Y-69183333D01*
X169552904Y-69230952D01*
X169457666Y-69230952D01*
X169362428Y-69183333D01*
X169314809Y-69135714D01*
X169267190Y-69040476D01*
X169219571Y-68850000D01*
X169171952Y-68754761D01*
X169124333Y-68707142D01*
X169029095Y-68659523D01*
X168933857Y-68659523D01*
X168838619Y-68707142D01*
X168791000Y-68754761D01*
X168743380Y-68850000D01*
X168743380Y-69088095D01*
X168791000Y-69230952D01*
X169648142Y-70230952D02*
X169695761Y-70183333D01*
X169743380Y-70040476D01*
X169743380Y-69945238D01*
X169695761Y-69802380D01*
X169600523Y-69707142D01*
X169505285Y-69659523D01*
X169314809Y-69611904D01*
X169171952Y-69611904D01*
X168981476Y-69659523D01*
X168886238Y-69707142D01*
X168791000Y-69802380D01*
X168743380Y-69945238D01*
X168743380Y-70040476D01*
X168791000Y-70183333D01*
X168838619Y-70230952D01*
X169743380Y-71135714D02*
X169743380Y-70659523D01*
X168743380Y-70659523D01*
X153503380Y-68738904D02*
X153503380Y-69357952D01*
X153884333Y-69024619D01*
X153884333Y-69167476D01*
X153931952Y-69262714D01*
X153979571Y-69310333D01*
X154074809Y-69357952D01*
X154312904Y-69357952D01*
X154408142Y-69310333D01*
X154455761Y-69262714D01*
X154503380Y-69167476D01*
X154503380Y-68881761D01*
X154455761Y-68786523D01*
X154408142Y-68738904D01*
X153503380Y-69643666D02*
X154503380Y-69977000D01*
X153503380Y-70310333D01*
X153503380Y-70548428D02*
X153503380Y-71167476D01*
X153884333Y-70834142D01*
X153884333Y-70977000D01*
X153931952Y-71072238D01*
X153979571Y-71119857D01*
X154074809Y-71167476D01*
X154312904Y-71167476D01*
X154408142Y-71119857D01*
X154455761Y-71072238D01*
X154503380Y-70977000D01*
X154503380Y-70691285D01*
X154455761Y-70596047D01*
X154408142Y-70548428D01*
X159583380Y-68691333D02*
X158583380Y-68691333D01*
X158583380Y-68929428D01*
X158631000Y-69072285D01*
X158726238Y-69167523D01*
X158821476Y-69215142D01*
X159011952Y-69262761D01*
X159154809Y-69262761D01*
X159345285Y-69215142D01*
X159440523Y-69167523D01*
X159535761Y-69072285D01*
X159583380Y-68929428D01*
X159583380Y-68691333D01*
X159297666Y-69643714D02*
X159297666Y-70119904D01*
X159583380Y-69548476D02*
X158583380Y-69881809D01*
X159583380Y-70215142D01*
X159488142Y-71119904D02*
X159535761Y-71072285D01*
X159583380Y-70929428D01*
X159583380Y-70834190D01*
X159535761Y-70691333D01*
X159440523Y-70596095D01*
X159345285Y-70548476D01*
X159154809Y-70500857D01*
X159011952Y-70500857D01*
X158821476Y-70548476D01*
X158726238Y-70596095D01*
X158631000Y-70691333D01*
X158583380Y-70834190D01*
X158583380Y-70929428D01*
X158631000Y-71072285D01*
X158678619Y-71119904D01*
X158583380Y-71738952D02*
X158583380Y-71834190D01*
X158631000Y-71929428D01*
X158678619Y-71977047D01*
X158773857Y-72024666D01*
X158964333Y-72072285D01*
X159202428Y-72072285D01*
X159392904Y-72024666D01*
X159488142Y-71977047D01*
X159535761Y-71929428D01*
X159583380Y-71834190D01*
X159583380Y-71738952D01*
X159535761Y-71643714D01*
X159488142Y-71596095D01*
X159392904Y-71548476D01*
X159202428Y-71500857D01*
X158964333Y-71500857D01*
X158773857Y-71548476D01*
X158678619Y-71596095D01*
X158631000Y-71643714D01*
X158583380Y-71738952D01*
X156757666Y-68762714D02*
X156757666Y-69238904D01*
X157043380Y-68667476D02*
X156043380Y-69000809D01*
X157043380Y-69334142D01*
X157043380Y-69667476D02*
X156043380Y-69667476D01*
X156043380Y-69905571D01*
X156091000Y-70048428D01*
X156186238Y-70143666D01*
X156281476Y-70191285D01*
X156471952Y-70238904D01*
X156614809Y-70238904D01*
X156805285Y-70191285D01*
X156900523Y-70143666D01*
X156995761Y-70048428D01*
X157043380Y-69905571D01*
X157043380Y-69667476D01*
X156043380Y-70857952D02*
X156043380Y-70953190D01*
X156091000Y-71048428D01*
X156138619Y-71096047D01*
X156233857Y-71143666D01*
X156424333Y-71191285D01*
X156662428Y-71191285D01*
X156852904Y-71143666D01*
X156948142Y-71096047D01*
X156995761Y-71048428D01*
X157043380Y-70953190D01*
X157043380Y-70857952D01*
X156995761Y-70762714D01*
X156948142Y-70715095D01*
X156852904Y-70667476D01*
X156662428Y-70619857D01*
X156424333Y-70619857D01*
X156233857Y-70667476D01*
X156138619Y-70715095D01*
X156091000Y-70762714D01*
X156043380Y-70857952D01*
X167028761Y-68762714D02*
X167076380Y-68905571D01*
X167076380Y-69143666D01*
X167028761Y-69238904D01*
X166981142Y-69286523D01*
X166885904Y-69334142D01*
X166790666Y-69334142D01*
X166695428Y-69286523D01*
X166647809Y-69238904D01*
X166600190Y-69143666D01*
X166552571Y-68953190D01*
X166504952Y-68857952D01*
X166457333Y-68810333D01*
X166362095Y-68762714D01*
X166266857Y-68762714D01*
X166171619Y-68810333D01*
X166124000Y-68857952D01*
X166076380Y-68953190D01*
X166076380Y-69191285D01*
X166124000Y-69334142D01*
X167076380Y-69762714D02*
X166076380Y-69762714D01*
X166076380Y-70000809D01*
X166124000Y-70143666D01*
X166219238Y-70238904D01*
X166314476Y-70286523D01*
X166504952Y-70334142D01*
X166647809Y-70334142D01*
X166838285Y-70286523D01*
X166933523Y-70238904D01*
X167028761Y-70143666D01*
X167076380Y-70000809D01*
X167076380Y-69762714D01*
X166790666Y-70715095D02*
X166790666Y-71191285D01*
X167076380Y-70619857D02*
X166076380Y-70953190D01*
X167076380Y-71286523D01*
X172283380Y-68619904D02*
X171283380Y-68619904D01*
X171997666Y-68953238D01*
X171283380Y-69286571D01*
X172283380Y-69286571D01*
X172188142Y-70334190D02*
X172235761Y-70286571D01*
X172283380Y-70143714D01*
X172283380Y-70048476D01*
X172235761Y-69905619D01*
X172140523Y-69810380D01*
X172045285Y-69762761D01*
X171854809Y-69715142D01*
X171711952Y-69715142D01*
X171521476Y-69762761D01*
X171426238Y-69810380D01*
X171331000Y-69905619D01*
X171283380Y-70048476D01*
X171283380Y-70143714D01*
X171331000Y-70286571D01*
X171378619Y-70334190D01*
X172283380Y-71238952D02*
X172283380Y-70762761D01*
X171283380Y-70762761D01*
X172283380Y-71572285D02*
X171283380Y-71572285D01*
X172283380Y-72143714D02*
X171711952Y-71715142D01*
X171283380Y-72143714D02*
X171854809Y-71572285D01*
X161599571Y-69048428D02*
X161647190Y-69191285D01*
X161694809Y-69238904D01*
X161790047Y-69286523D01*
X161932904Y-69286523D01*
X162028142Y-69238904D01*
X162075761Y-69191285D01*
X162123380Y-69096047D01*
X162123380Y-68715095D01*
X161123380Y-68715095D01*
X161123380Y-69048428D01*
X161171000Y-69143666D01*
X161218619Y-69191285D01*
X161313857Y-69238904D01*
X161409095Y-69238904D01*
X161504333Y-69191285D01*
X161551952Y-69143666D01*
X161599571Y-69048428D01*
X161599571Y-68715095D01*
X162028142Y-70286523D02*
X162075761Y-70238904D01*
X162123380Y-70096047D01*
X162123380Y-70000809D01*
X162075761Y-69857952D01*
X161980523Y-69762714D01*
X161885285Y-69715095D01*
X161694809Y-69667476D01*
X161551952Y-69667476D01*
X161361476Y-69715095D01*
X161266238Y-69762714D01*
X161171000Y-69857952D01*
X161123380Y-70000809D01*
X161123380Y-70096047D01*
X161171000Y-70238904D01*
X161218619Y-70286523D01*
X162123380Y-70715095D02*
X161123380Y-70715095D01*
X162123380Y-71286523D02*
X161551952Y-70857952D01*
X161123380Y-71286523D02*
X161694809Y-70715095D01*
X164663380Y-69159523D02*
X164663380Y-68683333D01*
X163663380Y-68683333D01*
X164663380Y-70064285D02*
X164187190Y-69730952D01*
X164663380Y-69492857D02*
X163663380Y-69492857D01*
X163663380Y-69873809D01*
X163711000Y-69969047D01*
X163758619Y-70016666D01*
X163853857Y-70064285D01*
X163996714Y-70064285D01*
X164091952Y-70016666D01*
X164139571Y-69969047D01*
X164187190Y-69873809D01*
X164187190Y-69492857D01*
X164663380Y-70492857D02*
X163663380Y-70492857D01*
X164663380Y-71064285D02*
X164091952Y-70635714D01*
X163663380Y-71064285D02*
X164234809Y-70492857D01*
X167155761Y-58729714D02*
X167203380Y-58872571D01*
X167203380Y-59110666D01*
X167155761Y-59205904D01*
X167108142Y-59253523D01*
X167012904Y-59301142D01*
X166917666Y-59301142D01*
X166822428Y-59253523D01*
X166774809Y-59205904D01*
X166727190Y-59110666D01*
X166679571Y-58920190D01*
X166631952Y-58824952D01*
X166584333Y-58777333D01*
X166489095Y-58729714D01*
X166393857Y-58729714D01*
X166298619Y-58777333D01*
X166251000Y-58824952D01*
X166203380Y-58920190D01*
X166203380Y-59158285D01*
X166251000Y-59301142D01*
X167203380Y-59729714D02*
X166203380Y-59729714D01*
X166203380Y-59967809D01*
X166251000Y-60110666D01*
X166346238Y-60205904D01*
X166441476Y-60253523D01*
X166631952Y-60301142D01*
X166774809Y-60301142D01*
X166965285Y-60253523D01*
X167060523Y-60205904D01*
X167155761Y-60110666D01*
X167203380Y-59967809D01*
X167203380Y-59729714D01*
X166917666Y-60682095D02*
X166917666Y-61158285D01*
X167203380Y-60586857D02*
X166203380Y-60920190D01*
X167203380Y-61253523D01*
X153630380Y-58705904D02*
X153630380Y-59324952D01*
X154011333Y-58991619D01*
X154011333Y-59134476D01*
X154058952Y-59229714D01*
X154106571Y-59277333D01*
X154201809Y-59324952D01*
X154439904Y-59324952D01*
X154535142Y-59277333D01*
X154582761Y-59229714D01*
X154630380Y-59134476D01*
X154630380Y-58848761D01*
X154582761Y-58753523D01*
X154535142Y-58705904D01*
X153630380Y-59610666D02*
X154630380Y-59944000D01*
X153630380Y-60277333D01*
X153630380Y-60515428D02*
X153630380Y-61134476D01*
X154011333Y-60801142D01*
X154011333Y-60944000D01*
X154058952Y-61039238D01*
X154106571Y-61086857D01*
X154201809Y-61134476D01*
X154439904Y-61134476D01*
X154535142Y-61086857D01*
X154582761Y-61039238D01*
X154630380Y-60944000D01*
X154630380Y-60658285D01*
X154582761Y-60563047D01*
X154535142Y-60515428D01*
X172410380Y-58586904D02*
X171410380Y-58586904D01*
X172124666Y-58920238D01*
X171410380Y-59253571D01*
X172410380Y-59253571D01*
X172315142Y-60301190D02*
X172362761Y-60253571D01*
X172410380Y-60110714D01*
X172410380Y-60015476D01*
X172362761Y-59872619D01*
X172267523Y-59777380D01*
X172172285Y-59729761D01*
X171981809Y-59682142D01*
X171838952Y-59682142D01*
X171648476Y-59729761D01*
X171553238Y-59777380D01*
X171458000Y-59872619D01*
X171410380Y-60015476D01*
X171410380Y-60110714D01*
X171458000Y-60253571D01*
X171505619Y-60301190D01*
X172410380Y-61205952D02*
X172410380Y-60729761D01*
X171410380Y-60729761D01*
X172410380Y-61539285D02*
X171410380Y-61539285D01*
X172410380Y-62110714D02*
X171838952Y-61682142D01*
X171410380Y-62110714D02*
X171981809Y-61539285D01*
X169822761Y-58626523D02*
X169870380Y-58769380D01*
X169870380Y-59007476D01*
X169822761Y-59102714D01*
X169775142Y-59150333D01*
X169679904Y-59197952D01*
X169584666Y-59197952D01*
X169489428Y-59150333D01*
X169441809Y-59102714D01*
X169394190Y-59007476D01*
X169346571Y-58817000D01*
X169298952Y-58721761D01*
X169251333Y-58674142D01*
X169156095Y-58626523D01*
X169060857Y-58626523D01*
X168965619Y-58674142D01*
X168918000Y-58721761D01*
X168870380Y-58817000D01*
X168870380Y-59055095D01*
X168918000Y-59197952D01*
X169775142Y-60197952D02*
X169822761Y-60150333D01*
X169870380Y-60007476D01*
X169870380Y-59912238D01*
X169822761Y-59769380D01*
X169727523Y-59674142D01*
X169632285Y-59626523D01*
X169441809Y-59578904D01*
X169298952Y-59578904D01*
X169108476Y-59626523D01*
X169013238Y-59674142D01*
X168918000Y-59769380D01*
X168870380Y-59912238D01*
X168870380Y-60007476D01*
X168918000Y-60150333D01*
X168965619Y-60197952D01*
X169870380Y-61102714D02*
X169870380Y-60626523D01*
X168870380Y-60626523D01*
X159710380Y-58658333D02*
X158710380Y-58658333D01*
X158710380Y-58896428D01*
X158758000Y-59039285D01*
X158853238Y-59134523D01*
X158948476Y-59182142D01*
X159138952Y-59229761D01*
X159281809Y-59229761D01*
X159472285Y-59182142D01*
X159567523Y-59134523D01*
X159662761Y-59039285D01*
X159710380Y-58896428D01*
X159710380Y-58658333D01*
X159424666Y-59610714D02*
X159424666Y-60086904D01*
X159710380Y-59515476D02*
X158710380Y-59848809D01*
X159710380Y-60182142D01*
X159615142Y-61086904D02*
X159662761Y-61039285D01*
X159710380Y-60896428D01*
X159710380Y-60801190D01*
X159662761Y-60658333D01*
X159567523Y-60563095D01*
X159472285Y-60515476D01*
X159281809Y-60467857D01*
X159138952Y-60467857D01*
X158948476Y-60515476D01*
X158853238Y-60563095D01*
X158758000Y-60658333D01*
X158710380Y-60801190D01*
X158710380Y-60896428D01*
X158758000Y-61039285D01*
X158805619Y-61086904D01*
X159710380Y-62039285D02*
X159710380Y-61467857D01*
X159710380Y-61753571D02*
X158710380Y-61753571D01*
X158853238Y-61658333D01*
X158948476Y-61563095D01*
X158996095Y-61467857D01*
X161726571Y-58991666D02*
X161774190Y-59134523D01*
X161821809Y-59182142D01*
X161917047Y-59229761D01*
X162059904Y-59229761D01*
X162155142Y-59182142D01*
X162202761Y-59134523D01*
X162250380Y-59039285D01*
X162250380Y-58658333D01*
X161250380Y-58658333D01*
X161250380Y-58991666D01*
X161298000Y-59086904D01*
X161345619Y-59134523D01*
X161440857Y-59182142D01*
X161536095Y-59182142D01*
X161631333Y-59134523D01*
X161678952Y-59086904D01*
X161726571Y-58991666D01*
X161726571Y-58658333D01*
X162155142Y-60229761D02*
X162202761Y-60182142D01*
X162250380Y-60039285D01*
X162250380Y-59944047D01*
X162202761Y-59801190D01*
X162107523Y-59705952D01*
X162012285Y-59658333D01*
X161821809Y-59610714D01*
X161678952Y-59610714D01*
X161488476Y-59658333D01*
X161393238Y-59705952D01*
X161298000Y-59801190D01*
X161250380Y-59944047D01*
X161250380Y-60039285D01*
X161298000Y-60182142D01*
X161345619Y-60229761D01*
X162250380Y-61134523D02*
X162250380Y-60658333D01*
X161250380Y-60658333D01*
X162250380Y-61467857D02*
X161250380Y-61467857D01*
X162250380Y-62039285D02*
X161678952Y-61610714D01*
X161250380Y-62039285D02*
X161821809Y-61467857D01*
X164663380Y-59261523D02*
X164663380Y-58785333D01*
X163663380Y-58785333D01*
X164663380Y-60166285D02*
X164187190Y-59832952D01*
X164663380Y-59594857D02*
X163663380Y-59594857D01*
X163663380Y-59975809D01*
X163711000Y-60071047D01*
X163758619Y-60118666D01*
X163853857Y-60166285D01*
X163996714Y-60166285D01*
X164091952Y-60118666D01*
X164139571Y-60071047D01*
X164187190Y-59975809D01*
X164187190Y-59594857D01*
X164568142Y-61166285D02*
X164615761Y-61118666D01*
X164663380Y-60975809D01*
X164663380Y-60880571D01*
X164615761Y-60737714D01*
X164520523Y-60642476D01*
X164425285Y-60594857D01*
X164234809Y-60547238D01*
X164091952Y-60547238D01*
X163901476Y-60594857D01*
X163806238Y-60642476D01*
X163711000Y-60737714D01*
X163663380Y-60880571D01*
X163663380Y-60975809D01*
X163711000Y-61118666D01*
X163758619Y-61166285D01*
X164663380Y-61594857D02*
X163663380Y-61594857D01*
X164663380Y-62166285D02*
X164091952Y-61737714D01*
X163663380Y-62166285D02*
X164234809Y-61594857D01*
X156884666Y-58729714D02*
X156884666Y-59205904D01*
X157170380Y-58634476D02*
X156170380Y-58967809D01*
X157170380Y-59301142D01*
X157170380Y-59634476D02*
X156170380Y-59634476D01*
X156170380Y-59872571D01*
X156218000Y-60015428D01*
X156313238Y-60110666D01*
X156408476Y-60158285D01*
X156598952Y-60205904D01*
X156741809Y-60205904D01*
X156932285Y-60158285D01*
X157027523Y-60110666D01*
X157122761Y-60015428D01*
X157170380Y-59872571D01*
X157170380Y-59634476D01*
X157170380Y-61158285D02*
X157170380Y-60586857D01*
X157170380Y-60872571D02*
X156170380Y-60872571D01*
X156313238Y-60777333D01*
X156408476Y-60682095D01*
X156456095Y-60586857D01*
X167028761Y-48442714D02*
X167076380Y-48585571D01*
X167076380Y-48823666D01*
X167028761Y-48918904D01*
X166981142Y-48966523D01*
X166885904Y-49014142D01*
X166790666Y-49014142D01*
X166695428Y-48966523D01*
X166647809Y-48918904D01*
X166600190Y-48823666D01*
X166552571Y-48633190D01*
X166504952Y-48537952D01*
X166457333Y-48490333D01*
X166362095Y-48442714D01*
X166266857Y-48442714D01*
X166171619Y-48490333D01*
X166124000Y-48537952D01*
X166076380Y-48633190D01*
X166076380Y-48871285D01*
X166124000Y-49014142D01*
X167076380Y-49442714D02*
X166076380Y-49442714D01*
X166076380Y-49680809D01*
X166124000Y-49823666D01*
X166219238Y-49918904D01*
X166314476Y-49966523D01*
X166504952Y-50014142D01*
X166647809Y-50014142D01*
X166838285Y-49966523D01*
X166933523Y-49918904D01*
X167028761Y-49823666D01*
X167076380Y-49680809D01*
X167076380Y-49442714D01*
X166790666Y-50395095D02*
X166790666Y-50871285D01*
X167076380Y-50299857D02*
X166076380Y-50633190D01*
X167076380Y-50966523D01*
X169695761Y-48339523D02*
X169743380Y-48482380D01*
X169743380Y-48720476D01*
X169695761Y-48815714D01*
X169648142Y-48863333D01*
X169552904Y-48910952D01*
X169457666Y-48910952D01*
X169362428Y-48863333D01*
X169314809Y-48815714D01*
X169267190Y-48720476D01*
X169219571Y-48530000D01*
X169171952Y-48434761D01*
X169124333Y-48387142D01*
X169029095Y-48339523D01*
X168933857Y-48339523D01*
X168838619Y-48387142D01*
X168791000Y-48434761D01*
X168743380Y-48530000D01*
X168743380Y-48768095D01*
X168791000Y-48910952D01*
X169648142Y-49910952D02*
X169695761Y-49863333D01*
X169743380Y-49720476D01*
X169743380Y-49625238D01*
X169695761Y-49482380D01*
X169600523Y-49387142D01*
X169505285Y-49339523D01*
X169314809Y-49291904D01*
X169171952Y-49291904D01*
X168981476Y-49339523D01*
X168886238Y-49387142D01*
X168791000Y-49482380D01*
X168743380Y-49625238D01*
X168743380Y-49720476D01*
X168791000Y-49863333D01*
X168838619Y-49910952D01*
X169743380Y-50815714D02*
X169743380Y-50339523D01*
X168743380Y-50339523D01*
X156757666Y-48442714D02*
X156757666Y-48918904D01*
X157043380Y-48347476D02*
X156043380Y-48680809D01*
X157043380Y-49014142D01*
X157043380Y-49347476D02*
X156043380Y-49347476D01*
X156043380Y-49585571D01*
X156091000Y-49728428D01*
X156186238Y-49823666D01*
X156281476Y-49871285D01*
X156471952Y-49918904D01*
X156614809Y-49918904D01*
X156805285Y-49871285D01*
X156900523Y-49823666D01*
X156995761Y-49728428D01*
X157043380Y-49585571D01*
X157043380Y-49347476D01*
X156138619Y-50299857D02*
X156091000Y-50347476D01*
X156043380Y-50442714D01*
X156043380Y-50680809D01*
X156091000Y-50776047D01*
X156138619Y-50823666D01*
X156233857Y-50871285D01*
X156329095Y-50871285D01*
X156471952Y-50823666D01*
X157043380Y-50252238D01*
X157043380Y-50871285D01*
X153503380Y-48418904D02*
X153503380Y-49037952D01*
X153884333Y-48704619D01*
X153884333Y-48847476D01*
X153931952Y-48942714D01*
X153979571Y-48990333D01*
X154074809Y-49037952D01*
X154312904Y-49037952D01*
X154408142Y-48990333D01*
X154455761Y-48942714D01*
X154503380Y-48847476D01*
X154503380Y-48561761D01*
X154455761Y-48466523D01*
X154408142Y-48418904D01*
X153503380Y-49323666D02*
X154503380Y-49657000D01*
X153503380Y-49990333D01*
X153503380Y-50228428D02*
X153503380Y-50847476D01*
X153884333Y-50514142D01*
X153884333Y-50657000D01*
X153931952Y-50752238D01*
X153979571Y-50799857D01*
X154074809Y-50847476D01*
X154312904Y-50847476D01*
X154408142Y-50799857D01*
X154455761Y-50752238D01*
X154503380Y-50657000D01*
X154503380Y-50371285D01*
X154455761Y-50276047D01*
X154408142Y-50228428D01*
X164536380Y-48974523D02*
X164536380Y-48498333D01*
X163536380Y-48498333D01*
X164536380Y-49879285D02*
X164060190Y-49545952D01*
X164536380Y-49307857D02*
X163536380Y-49307857D01*
X163536380Y-49688809D01*
X163584000Y-49784047D01*
X163631619Y-49831666D01*
X163726857Y-49879285D01*
X163869714Y-49879285D01*
X163964952Y-49831666D01*
X164012571Y-49784047D01*
X164060190Y-49688809D01*
X164060190Y-49307857D01*
X164441142Y-50879285D02*
X164488761Y-50831666D01*
X164536380Y-50688809D01*
X164536380Y-50593571D01*
X164488761Y-50450714D01*
X164393523Y-50355476D01*
X164298285Y-50307857D01*
X164107809Y-50260238D01*
X163964952Y-50260238D01*
X163774476Y-50307857D01*
X163679238Y-50355476D01*
X163584000Y-50450714D01*
X163536380Y-50593571D01*
X163536380Y-50688809D01*
X163584000Y-50831666D01*
X163631619Y-50879285D01*
X164536380Y-51307857D02*
X163536380Y-51307857D01*
X164536380Y-51879285D02*
X163964952Y-51450714D01*
X163536380Y-51879285D02*
X164107809Y-51307857D01*
X161599571Y-48704666D02*
X161647190Y-48847523D01*
X161694809Y-48895142D01*
X161790047Y-48942761D01*
X161932904Y-48942761D01*
X162028142Y-48895142D01*
X162075761Y-48847523D01*
X162123380Y-48752285D01*
X162123380Y-48371333D01*
X161123380Y-48371333D01*
X161123380Y-48704666D01*
X161171000Y-48799904D01*
X161218619Y-48847523D01*
X161313857Y-48895142D01*
X161409095Y-48895142D01*
X161504333Y-48847523D01*
X161551952Y-48799904D01*
X161599571Y-48704666D01*
X161599571Y-48371333D01*
X162028142Y-49942761D02*
X162075761Y-49895142D01*
X162123380Y-49752285D01*
X162123380Y-49657047D01*
X162075761Y-49514190D01*
X161980523Y-49418952D01*
X161885285Y-49371333D01*
X161694809Y-49323714D01*
X161551952Y-49323714D01*
X161361476Y-49371333D01*
X161266238Y-49418952D01*
X161171000Y-49514190D01*
X161123380Y-49657047D01*
X161123380Y-49752285D01*
X161171000Y-49895142D01*
X161218619Y-49942761D01*
X162123380Y-50847523D02*
X162123380Y-50371333D01*
X161123380Y-50371333D01*
X162123380Y-51180857D02*
X161123380Y-51180857D01*
X162123380Y-51752285D02*
X161551952Y-51323714D01*
X161123380Y-51752285D02*
X161694809Y-51180857D01*
X172283380Y-48299904D02*
X171283380Y-48299904D01*
X171997666Y-48633238D01*
X171283380Y-48966571D01*
X172283380Y-48966571D01*
X172188142Y-50014190D02*
X172235761Y-49966571D01*
X172283380Y-49823714D01*
X172283380Y-49728476D01*
X172235761Y-49585619D01*
X172140523Y-49490380D01*
X172045285Y-49442761D01*
X171854809Y-49395142D01*
X171711952Y-49395142D01*
X171521476Y-49442761D01*
X171426238Y-49490380D01*
X171331000Y-49585619D01*
X171283380Y-49728476D01*
X171283380Y-49823714D01*
X171331000Y-49966571D01*
X171378619Y-50014190D01*
X172283380Y-50918952D02*
X172283380Y-50442761D01*
X171283380Y-50442761D01*
X172283380Y-51252285D02*
X171283380Y-51252285D01*
X172283380Y-51823714D02*
X171711952Y-51395142D01*
X171283380Y-51823714D02*
X171854809Y-51252285D01*
X159583380Y-48371333D02*
X158583380Y-48371333D01*
X158583380Y-48609428D01*
X158631000Y-48752285D01*
X158726238Y-48847523D01*
X158821476Y-48895142D01*
X159011952Y-48942761D01*
X159154809Y-48942761D01*
X159345285Y-48895142D01*
X159440523Y-48847523D01*
X159535761Y-48752285D01*
X159583380Y-48609428D01*
X159583380Y-48371333D01*
X159297666Y-49323714D02*
X159297666Y-49799904D01*
X159583380Y-49228476D02*
X158583380Y-49561809D01*
X159583380Y-49895142D01*
X159488142Y-50799904D02*
X159535761Y-50752285D01*
X159583380Y-50609428D01*
X159583380Y-50514190D01*
X159535761Y-50371333D01*
X159440523Y-50276095D01*
X159345285Y-50228476D01*
X159154809Y-50180857D01*
X159011952Y-50180857D01*
X158821476Y-50228476D01*
X158726238Y-50276095D01*
X158631000Y-50371333D01*
X158583380Y-50514190D01*
X158583380Y-50609428D01*
X158631000Y-50752285D01*
X158678619Y-50799904D01*
X158678619Y-51180857D02*
X158631000Y-51228476D01*
X158583380Y-51323714D01*
X158583380Y-51561809D01*
X158631000Y-51657047D01*
X158678619Y-51704666D01*
X158773857Y-51752285D01*
X158869095Y-51752285D01*
X159011952Y-51704666D01*
X159583380Y-51133238D01*
X159583380Y-51752285D01*
X156884666Y-38282714D02*
X156884666Y-38758904D01*
X157170380Y-38187476D02*
X156170380Y-38520809D01*
X157170380Y-38854142D01*
X157170380Y-39187476D02*
X156170380Y-39187476D01*
X156170380Y-39425571D01*
X156218000Y-39568428D01*
X156313238Y-39663666D01*
X156408476Y-39711285D01*
X156598952Y-39758904D01*
X156741809Y-39758904D01*
X156932285Y-39711285D01*
X157027523Y-39663666D01*
X157122761Y-39568428D01*
X157170380Y-39425571D01*
X157170380Y-39187476D01*
X156170380Y-40092238D02*
X156170380Y-40711285D01*
X156551333Y-40377952D01*
X156551333Y-40520809D01*
X156598952Y-40616047D01*
X156646571Y-40663666D01*
X156741809Y-40711285D01*
X156979904Y-40711285D01*
X157075142Y-40663666D01*
X157122761Y-40616047D01*
X157170380Y-40520809D01*
X157170380Y-40235095D01*
X157122761Y-40139857D01*
X157075142Y-40092238D01*
X169822761Y-38179523D02*
X169870380Y-38322380D01*
X169870380Y-38560476D01*
X169822761Y-38655714D01*
X169775142Y-38703333D01*
X169679904Y-38750952D01*
X169584666Y-38750952D01*
X169489428Y-38703333D01*
X169441809Y-38655714D01*
X169394190Y-38560476D01*
X169346571Y-38370000D01*
X169298952Y-38274761D01*
X169251333Y-38227142D01*
X169156095Y-38179523D01*
X169060857Y-38179523D01*
X168965619Y-38227142D01*
X168918000Y-38274761D01*
X168870380Y-38370000D01*
X168870380Y-38608095D01*
X168918000Y-38750952D01*
X169775142Y-39750952D02*
X169822761Y-39703333D01*
X169870380Y-39560476D01*
X169870380Y-39465238D01*
X169822761Y-39322380D01*
X169727523Y-39227142D01*
X169632285Y-39179523D01*
X169441809Y-39131904D01*
X169298952Y-39131904D01*
X169108476Y-39179523D01*
X169013238Y-39227142D01*
X168918000Y-39322380D01*
X168870380Y-39465238D01*
X168870380Y-39560476D01*
X168918000Y-39703333D01*
X168965619Y-39750952D01*
X169870380Y-40655714D02*
X169870380Y-40179523D01*
X168870380Y-40179523D01*
X167155761Y-38282714D02*
X167203380Y-38425571D01*
X167203380Y-38663666D01*
X167155761Y-38758904D01*
X167108142Y-38806523D01*
X167012904Y-38854142D01*
X166917666Y-38854142D01*
X166822428Y-38806523D01*
X166774809Y-38758904D01*
X166727190Y-38663666D01*
X166679571Y-38473190D01*
X166631952Y-38377952D01*
X166584333Y-38330333D01*
X166489095Y-38282714D01*
X166393857Y-38282714D01*
X166298619Y-38330333D01*
X166251000Y-38377952D01*
X166203380Y-38473190D01*
X166203380Y-38711285D01*
X166251000Y-38854142D01*
X167203380Y-39282714D02*
X166203380Y-39282714D01*
X166203380Y-39520809D01*
X166251000Y-39663666D01*
X166346238Y-39758904D01*
X166441476Y-39806523D01*
X166631952Y-39854142D01*
X166774809Y-39854142D01*
X166965285Y-39806523D01*
X167060523Y-39758904D01*
X167155761Y-39663666D01*
X167203380Y-39520809D01*
X167203380Y-39282714D01*
X166917666Y-40235095D02*
X166917666Y-40711285D01*
X167203380Y-40139857D02*
X166203380Y-40473190D01*
X167203380Y-40806523D01*
X153630380Y-38258904D02*
X153630380Y-38877952D01*
X154011333Y-38544619D01*
X154011333Y-38687476D01*
X154058952Y-38782714D01*
X154106571Y-38830333D01*
X154201809Y-38877952D01*
X154439904Y-38877952D01*
X154535142Y-38830333D01*
X154582761Y-38782714D01*
X154630380Y-38687476D01*
X154630380Y-38401761D01*
X154582761Y-38306523D01*
X154535142Y-38258904D01*
X153630380Y-39163666D02*
X154630380Y-39497000D01*
X153630380Y-39830333D01*
X153630380Y-40068428D02*
X153630380Y-40687476D01*
X154011333Y-40354142D01*
X154011333Y-40497000D01*
X154058952Y-40592238D01*
X154106571Y-40639857D01*
X154201809Y-40687476D01*
X154439904Y-40687476D01*
X154535142Y-40639857D01*
X154582761Y-40592238D01*
X154630380Y-40497000D01*
X154630380Y-40211285D01*
X154582761Y-40116047D01*
X154535142Y-40068428D01*
X175386904Y-33917000D02*
X175482142Y-33869380D01*
X175625000Y-33869380D01*
X175767857Y-33917000D01*
X175863095Y-34012238D01*
X175910714Y-34107476D01*
X175958333Y-34297952D01*
X175958333Y-34440809D01*
X175910714Y-34631285D01*
X175863095Y-34726523D01*
X175767857Y-34821761D01*
X175625000Y-34869380D01*
X175529761Y-34869380D01*
X175386904Y-34821761D01*
X175339285Y-34774142D01*
X175339285Y-34440809D01*
X175529761Y-34440809D01*
X174910714Y-34869380D02*
X174910714Y-33869380D01*
X174339285Y-34869380D01*
X174339285Y-33869380D01*
X173863095Y-34869380D02*
X173863095Y-33869380D01*
X173625000Y-33869380D01*
X173482142Y-33917000D01*
X173386904Y-34012238D01*
X173339285Y-34107476D01*
X173291666Y-34297952D01*
X173291666Y-34440809D01*
X173339285Y-34631285D01*
X173386904Y-34726523D01*
X173482142Y-34821761D01*
X173625000Y-34869380D01*
X173863095Y-34869380D01*
X172410380Y-38139904D02*
X171410380Y-38139904D01*
X172124666Y-38473238D01*
X171410380Y-38806571D01*
X172410380Y-38806571D01*
X172315142Y-39854190D02*
X172362761Y-39806571D01*
X172410380Y-39663714D01*
X172410380Y-39568476D01*
X172362761Y-39425619D01*
X172267523Y-39330380D01*
X172172285Y-39282761D01*
X171981809Y-39235142D01*
X171838952Y-39235142D01*
X171648476Y-39282761D01*
X171553238Y-39330380D01*
X171458000Y-39425619D01*
X171410380Y-39568476D01*
X171410380Y-39663714D01*
X171458000Y-39806571D01*
X171505619Y-39854190D01*
X172410380Y-40758952D02*
X172410380Y-40282761D01*
X171410380Y-40282761D01*
X172410380Y-41092285D02*
X171410380Y-41092285D01*
X172410380Y-41663714D02*
X171838952Y-41235142D01*
X171410380Y-41663714D02*
X171981809Y-41092285D01*
X164663380Y-38814523D02*
X164663380Y-38338333D01*
X163663380Y-38338333D01*
X164663380Y-39719285D02*
X164187190Y-39385952D01*
X164663380Y-39147857D02*
X163663380Y-39147857D01*
X163663380Y-39528809D01*
X163711000Y-39624047D01*
X163758619Y-39671666D01*
X163853857Y-39719285D01*
X163996714Y-39719285D01*
X164091952Y-39671666D01*
X164139571Y-39624047D01*
X164187190Y-39528809D01*
X164187190Y-39147857D01*
X164568142Y-40719285D02*
X164615761Y-40671666D01*
X164663380Y-40528809D01*
X164663380Y-40433571D01*
X164615761Y-40290714D01*
X164520523Y-40195476D01*
X164425285Y-40147857D01*
X164234809Y-40100238D01*
X164091952Y-40100238D01*
X163901476Y-40147857D01*
X163806238Y-40195476D01*
X163711000Y-40290714D01*
X163663380Y-40433571D01*
X163663380Y-40528809D01*
X163711000Y-40671666D01*
X163758619Y-40719285D01*
X164663380Y-41147857D02*
X163663380Y-41147857D01*
X164663380Y-41719285D02*
X164091952Y-41290714D01*
X163663380Y-41719285D02*
X164234809Y-41147857D01*
X161726571Y-38544666D02*
X161774190Y-38687523D01*
X161821809Y-38735142D01*
X161917047Y-38782761D01*
X162059904Y-38782761D01*
X162155142Y-38735142D01*
X162202761Y-38687523D01*
X162250380Y-38592285D01*
X162250380Y-38211333D01*
X161250380Y-38211333D01*
X161250380Y-38544666D01*
X161298000Y-38639904D01*
X161345619Y-38687523D01*
X161440857Y-38735142D01*
X161536095Y-38735142D01*
X161631333Y-38687523D01*
X161678952Y-38639904D01*
X161726571Y-38544666D01*
X161726571Y-38211333D01*
X162155142Y-39782761D02*
X162202761Y-39735142D01*
X162250380Y-39592285D01*
X162250380Y-39497047D01*
X162202761Y-39354190D01*
X162107523Y-39258952D01*
X162012285Y-39211333D01*
X161821809Y-39163714D01*
X161678952Y-39163714D01*
X161488476Y-39211333D01*
X161393238Y-39258952D01*
X161298000Y-39354190D01*
X161250380Y-39497047D01*
X161250380Y-39592285D01*
X161298000Y-39735142D01*
X161345619Y-39782761D01*
X162250380Y-40687523D02*
X162250380Y-40211333D01*
X161250380Y-40211333D01*
X162250380Y-41020857D02*
X161250380Y-41020857D01*
X162250380Y-41592285D02*
X161678952Y-41163714D01*
X161250380Y-41592285D02*
X161821809Y-41020857D01*
X159710380Y-38211333D02*
X158710380Y-38211333D01*
X158710380Y-38449428D01*
X158758000Y-38592285D01*
X158853238Y-38687523D01*
X158948476Y-38735142D01*
X159138952Y-38782761D01*
X159281809Y-38782761D01*
X159472285Y-38735142D01*
X159567523Y-38687523D01*
X159662761Y-38592285D01*
X159710380Y-38449428D01*
X159710380Y-38211333D01*
X159424666Y-39163714D02*
X159424666Y-39639904D01*
X159710380Y-39068476D02*
X158710380Y-39401809D01*
X159710380Y-39735142D01*
X159615142Y-40639904D02*
X159662761Y-40592285D01*
X159710380Y-40449428D01*
X159710380Y-40354190D01*
X159662761Y-40211333D01*
X159567523Y-40116095D01*
X159472285Y-40068476D01*
X159281809Y-40020857D01*
X159138952Y-40020857D01*
X158948476Y-40068476D01*
X158853238Y-40116095D01*
X158758000Y-40211333D01*
X158710380Y-40354190D01*
X158710380Y-40449428D01*
X158758000Y-40592285D01*
X158805619Y-40639904D01*
X158710380Y-40973238D02*
X158710380Y-41592285D01*
X159091333Y-41258952D01*
X159091333Y-41401809D01*
X159138952Y-41497047D01*
X159186571Y-41544666D01*
X159281809Y-41592285D01*
X159519904Y-41592285D01*
X159615142Y-41544666D01*
X159662761Y-41497047D01*
X159710380Y-41401809D01*
X159710380Y-41116095D01*
X159662761Y-41020857D01*
X159615142Y-40973238D01*
D12*
X215820857Y-127771000D02*
X216392285Y-127771000D01*
X215706571Y-127342428D02*
X216106571Y-128842428D01*
X216506571Y-127342428D01*
X216906571Y-127342428D02*
X216906571Y-128842428D01*
X217192285Y-128842428D01*
X217363714Y-128771000D01*
X217478000Y-128628142D01*
X217535142Y-128485285D01*
X217592285Y-128199571D01*
X217592285Y-127985285D01*
X217535142Y-127699571D01*
X217478000Y-127556714D01*
X217363714Y-127413857D01*
X217192285Y-127342428D01*
X216906571Y-127342428D01*
X218049428Y-127771000D02*
X218620857Y-127771000D01*
X217935142Y-127342428D02*
X218335142Y-128842428D01*
X218735142Y-127342428D01*
X218963714Y-128842428D02*
X219649428Y-128842428D01*
X219306571Y-127342428D02*
X219306571Y-128842428D01*
X215563714Y-124863857D02*
X215735142Y-124792428D01*
X216020857Y-124792428D01*
X216135142Y-124863857D01*
X216192285Y-124935285D01*
X216249428Y-125078142D01*
X216249428Y-125221000D01*
X216192285Y-125363857D01*
X216135142Y-125435285D01*
X216020857Y-125506714D01*
X215792285Y-125578142D01*
X215678000Y-125649571D01*
X215620857Y-125721000D01*
X215563714Y-125863857D01*
X215563714Y-126006714D01*
X215620857Y-126149571D01*
X215678000Y-126221000D01*
X215792285Y-126292428D01*
X216078000Y-126292428D01*
X216249428Y-126221000D01*
X216763714Y-125578142D02*
X217163714Y-125578142D01*
X217335142Y-124792428D02*
X216763714Y-124792428D01*
X216763714Y-126292428D01*
X217335142Y-126292428D01*
X217849428Y-124792428D02*
X217849428Y-126292428D01*
X218535142Y-124792428D01*
X218535142Y-126292428D01*
X219106571Y-124792428D02*
X219106571Y-126292428D01*
X219392285Y-126292428D01*
X219563714Y-126221000D01*
X219678000Y-126078142D01*
X219735142Y-125935285D01*
X219792285Y-125649571D01*
X219792285Y-125435285D01*
X219735142Y-125149571D01*
X219678000Y-125006714D01*
X219563714Y-124863857D01*
X219392285Y-124792428D01*
X219106571Y-124792428D01*
D11*
X191135000Y-30480000D02*
X191135000Y-129540000D01*
D12*
X194850000Y-126321428D02*
X194850000Y-127821428D01*
X195135714Y-127821428D01*
X195307142Y-127750000D01*
X195421428Y-127607142D01*
X195478571Y-127464285D01*
X195535714Y-127178571D01*
X195535714Y-126964285D01*
X195478571Y-126678571D01*
X195421428Y-126535714D01*
X195307142Y-126392857D01*
X195135714Y-126321428D01*
X194850000Y-126321428D01*
X196735714Y-126464285D02*
X196678571Y-126392857D01*
X196507142Y-126321428D01*
X196392857Y-126321428D01*
X196221428Y-126392857D01*
X196107142Y-126535714D01*
X196050000Y-126678571D01*
X195992857Y-126964285D01*
X195992857Y-127178571D01*
X196050000Y-127464285D01*
X196107142Y-127607142D01*
X196221428Y-127750000D01*
X196392857Y-127821428D01*
X196507142Y-127821428D01*
X196678571Y-127750000D01*
X196735714Y-127678571D01*
X197821428Y-127821428D02*
X197250000Y-127821428D01*
X197192857Y-127107142D01*
X197250000Y-127178571D01*
X197364285Y-127250000D01*
X197650000Y-127250000D01*
X197764285Y-127178571D01*
X197821428Y-127107142D01*
X197878571Y-126964285D01*
X197878571Y-126607142D01*
X197821428Y-126464285D01*
X197764285Y-126392857D01*
X197650000Y-126321428D01*
X197364285Y-126321428D01*
X197250000Y-126392857D01*
X197192857Y-126464285D01*
X198221428Y-127821428D02*
X198621428Y-126321428D01*
X199021428Y-127821428D01*
X181896000Y-126575428D02*
X181896000Y-128075428D01*
X182181714Y-128075428D01*
X182353142Y-128004000D01*
X182467428Y-127861142D01*
X182524571Y-127718285D01*
X182581714Y-127432571D01*
X182581714Y-127218285D01*
X182524571Y-126932571D01*
X182467428Y-126789714D01*
X182353142Y-126646857D01*
X182181714Y-126575428D01*
X181896000Y-126575428D01*
X183781714Y-126718285D02*
X183724571Y-126646857D01*
X183553142Y-126575428D01*
X183438857Y-126575428D01*
X183267428Y-126646857D01*
X183153142Y-126789714D01*
X183096000Y-126932571D01*
X183038857Y-127218285D01*
X183038857Y-127432571D01*
X183096000Y-127718285D01*
X183153142Y-127861142D01*
X183267428Y-128004000D01*
X183438857Y-128075428D01*
X183553142Y-128075428D01*
X183724571Y-128004000D01*
X183781714Y-127932571D01*
X184867428Y-128075428D02*
X184296000Y-128075428D01*
X184238857Y-127361142D01*
X184296000Y-127432571D01*
X184410285Y-127504000D01*
X184696000Y-127504000D01*
X184810285Y-127432571D01*
X184867428Y-127361142D01*
X184924571Y-127218285D01*
X184924571Y-126861142D01*
X184867428Y-126718285D01*
X184810285Y-126646857D01*
X184696000Y-126575428D01*
X184410285Y-126575428D01*
X184296000Y-126646857D01*
X184238857Y-126718285D01*
X185267428Y-128075428D02*
X185667428Y-126575428D01*
X186067428Y-128075428D01*
X152828857Y-128025000D02*
X153400285Y-128025000D01*
X152714571Y-127596428D02*
X153114571Y-129096428D01*
X153514571Y-127596428D01*
X153914571Y-127596428D02*
X153914571Y-129096428D01*
X154200285Y-129096428D01*
X154371714Y-129025000D01*
X154486000Y-128882142D01*
X154543142Y-128739285D01*
X154600285Y-128453571D01*
X154600285Y-128239285D01*
X154543142Y-127953571D01*
X154486000Y-127810714D01*
X154371714Y-127667857D01*
X154200285Y-127596428D01*
X153914571Y-127596428D01*
X155057428Y-128025000D02*
X155628857Y-128025000D01*
X154943142Y-127596428D02*
X155343142Y-129096428D01*
X155743142Y-127596428D01*
X155971714Y-129096428D02*
X156657428Y-129096428D01*
X156314571Y-127596428D02*
X156314571Y-129096428D01*
X153400285Y-125046428D02*
X153000285Y-125760714D01*
X152714571Y-125046428D02*
X152714571Y-126546428D01*
X153171714Y-126546428D01*
X153286000Y-126475000D01*
X153343142Y-126403571D01*
X153400285Y-126260714D01*
X153400285Y-126046428D01*
X153343142Y-125903571D01*
X153286000Y-125832142D01*
X153171714Y-125760714D01*
X152714571Y-125760714D01*
X153914571Y-125832142D02*
X154314571Y-125832142D01*
X154486000Y-125046428D02*
X153914571Y-125046428D01*
X153914571Y-126546428D01*
X154486000Y-126546428D01*
X155686000Y-125189285D02*
X155628857Y-125117857D01*
X155457428Y-125046428D01*
X155343142Y-125046428D01*
X155171714Y-125117857D01*
X155057428Y-125260714D01*
X155000285Y-125403571D01*
X154943142Y-125689285D01*
X154943142Y-125903571D01*
X155000285Y-126189285D01*
X155057428Y-126332142D01*
X155171714Y-126475000D01*
X155343142Y-126546428D01*
X155457428Y-126546428D01*
X155628857Y-126475000D01*
X155686000Y-126403571D01*
X156028857Y-126546428D02*
X156428857Y-125046428D01*
X156828857Y-126546428D01*
X163750857Y-128025000D02*
X164322285Y-128025000D01*
X163636571Y-127596428D02*
X164036571Y-129096428D01*
X164436571Y-127596428D01*
X164836571Y-127596428D02*
X164836571Y-129096428D01*
X165122285Y-129096428D01*
X165293714Y-129025000D01*
X165408000Y-128882142D01*
X165465142Y-128739285D01*
X165522285Y-128453571D01*
X165522285Y-128239285D01*
X165465142Y-127953571D01*
X165408000Y-127810714D01*
X165293714Y-127667857D01*
X165122285Y-127596428D01*
X164836571Y-127596428D01*
X165979428Y-128025000D02*
X166550857Y-128025000D01*
X165865142Y-127596428D02*
X166265142Y-129096428D01*
X166665142Y-127596428D01*
X166893714Y-129096428D02*
X167579428Y-129096428D01*
X167236571Y-127596428D02*
X167236571Y-129096428D01*
X163408000Y-126546428D02*
X164093714Y-126546428D01*
X163750857Y-125046428D02*
X163750857Y-126546428D01*
X164493714Y-125046428D02*
X164493714Y-126546428D01*
X164493714Y-125832142D02*
X165179428Y-125832142D01*
X165179428Y-125046428D02*
X165179428Y-126546428D01*
X166436571Y-125046428D02*
X166036571Y-125760714D01*
X165750857Y-125046428D02*
X165750857Y-126546428D01*
X166208000Y-126546428D01*
X166322285Y-126475000D01*
X166379428Y-126403571D01*
X166436571Y-126260714D01*
X166436571Y-126046428D01*
X166379428Y-125903571D01*
X166322285Y-125832142D01*
X166208000Y-125760714D01*
X165750857Y-125760714D01*
X166950857Y-126546428D02*
X166950857Y-125332142D01*
X167008000Y-125189285D01*
X167065142Y-125117857D01*
X167179428Y-125046428D01*
X167408000Y-125046428D01*
X167522285Y-125117857D01*
X167579428Y-125189285D01*
X167636571Y-125332142D01*
X167636571Y-126546428D01*
D10*
X152185000Y-108450000D02*
X152185000Y-107450000D01*
X153885000Y-107450000D02*
X153885000Y-108450000D01*
X151292142Y-107307142D02*
X151339761Y-107259523D01*
X151387380Y-107116666D01*
X151387380Y-107021428D01*
X151339761Y-106878571D01*
X151244523Y-106783333D01*
X151149285Y-106735714D01*
X150958809Y-106688095D01*
X150815952Y-106688095D01*
X150625476Y-106735714D01*
X150530238Y-106783333D01*
X150435000Y-106878571D01*
X150387380Y-107021428D01*
X150387380Y-107116666D01*
X150435000Y-107259523D01*
X150482619Y-107307142D01*
X151387380Y-108259523D02*
X151387380Y-107688095D01*
X151387380Y-107973809D02*
X150387380Y-107973809D01*
X150530238Y-107878571D01*
X150625476Y-107783333D01*
X150673095Y-107688095D01*
X150387380Y-108592857D02*
X150387380Y-109211904D01*
X150768333Y-108878571D01*
X150768333Y-109021428D01*
X150815952Y-109116666D01*
X150863571Y-109164285D01*
X150958809Y-109211904D01*
X151196904Y-109211904D01*
X151292142Y-109164285D01*
X151339761Y-109116666D01*
X151387380Y-109021428D01*
X151387380Y-108735714D01*
X151339761Y-108640476D01*
X151292142Y-108592857D01*
M02*
