M48
; DRILL file {KiCad (5.1.9-0-10_14)} date Sunday, August 01, 2021 at 02:36:25 PM
; FORMAT={-:-/ absolute / metric / decimal}
; #@! TF.CreationDate,2021-08-01T14:36:25+09:00
; #@! TF.GenerationSoftware,Kicad,Pcbnew,(5.1.9-0-10_14)
FMAT,2
METRIC
T1C0.400
T2C0.500
T3C0.800
T4C1.000
T5C1.100
T6C3.200
T7C3.200
%
G90
G05
T1
X140.812Y-127.161
X142.16Y-109.232
X142.811Y-104.337
X144.813Y-65.339
X145.843Y-105.81
X146.033Y-116.181
X147.701Y-53.213
X150.515Y-113.709
X155.001Y-105.606
X157.05Y-112.657
X158.672Y-107.95
X159.677Y-48.745
X164.183Y-111.233
X164.222Y-108.497
X165.08Y-116.164
X165.548Y-63.252
X167.31Y-109.906
X167.66Y-113.7
X168.804Y-91.111
X169.623Y-105.052
X172.085Y-92.888
X172.653Y-112.748
X173.235Y-128.185
X173.782Y-91.74
X175.184Y-105.816
X175.565Y-98.882
X176.962Y-107.772
X178.232Y-97.917
X179.197Y-88.906
X179.68Y-97.79
X180.086Y-75.184
X180.543Y-86.081
X181.842Y-104.363
X183.896Y-78.867
X184.277Y-102.616
X187.052Y-113.653
X189.652Y-100.355
X192.185Y-97.725
X196.012Y-99.339
X196.442Y-100.808
X199.009Y-94.386
X199.022Y-87.572
X200.291Y-69.939
X202.954Y-71.173
X203.747Y-112.518
X203.861Y-115.249
X204.887Y-96.045
X207.899Y-91.059
X208.747Y-102.505
X208.763Y-95.733
X209.562Y-81.368
X210.434Y-84.459
X210.998Y-101.397
X211.925Y-102.591
X211.926Y-100.372
X211.929Y-105.134
X212.105Y-60.475
X214.812Y-114.349
X215.826Y-114.317
X215.925Y-72.604
X218.403Y-80.25
X220.991Y-104.131
X221.234Y-114.249
X221.535Y-109.671
X226.068Y-99.906
X228.244Y-114.224
X228.755Y-106.977
X232.805Y-127.152
X233.682Y-88.638
T2
X184.595Y-106.985
X185.298Y-105.288
X185.298Y-108.682
X186.995Y-104.585
X186.995Y-109.385
X188.692Y-105.288
X188.692Y-108.682
X189.395Y-106.985
X194.6Y-110.0
X195.303Y-108.303
X195.303Y-111.697
X197.0Y-107.6
X197.0Y-112.4
X198.697Y-108.303
X198.697Y-111.697
X199.4Y-110.0
T3
X152.03Y-119.0
X154.57Y-119.0
X157.11Y-119.0
X163.03Y-119.0
X165.57Y-119.0
X168.11Y-119.0
X215.138Y-119.0
X217.678Y-119.0
X220.218Y-119.0
T4
X146.05Y-74.93
X146.05Y-77.47
X146.05Y-85.725
X146.05Y-88.265
X148.59Y-74.93
X148.59Y-77.47
X148.59Y-85.725
X148.59Y-88.265
X148.849Y-94.361
X151.13Y-74.93
X151.13Y-77.47
X151.13Y-85.725
X151.13Y-88.265
X151.389Y-94.361
X153.67Y-74.93
X153.67Y-77.47
X153.67Y-85.725
X153.67Y-88.265
X154.095Y-34.29
X154.095Y-36.83
X154.095Y-44.45
X154.095Y-46.99
X154.095Y-54.61
X154.095Y-57.15
X154.095Y-64.77
X154.095Y-67.31
X156.21Y-74.93
X156.21Y-77.47
X156.21Y-85.725
X156.21Y-88.265
X156.635Y-34.29
X156.635Y-36.83
X156.635Y-44.45
X156.635Y-46.99
X156.635Y-54.61
X156.635Y-57.15
X156.635Y-64.77
X156.635Y-67.31
X158.75Y-74.93
X158.75Y-77.47
X158.75Y-85.725
X158.75Y-88.265
X159.175Y-34.29
X159.175Y-36.83
X159.175Y-44.45
X159.175Y-46.99
X159.175Y-54.61
X159.175Y-57.15
X159.175Y-64.77
X159.175Y-67.31
X161.29Y-74.93
X161.29Y-77.47
X161.29Y-85.725
X161.29Y-88.265
X161.715Y-34.29
X161.715Y-36.83
X161.715Y-44.45
X161.715Y-46.99
X161.715Y-54.61
X161.715Y-57.15
X161.715Y-64.77
X161.715Y-67.31
X163.83Y-74.93
X163.83Y-77.47
X163.83Y-85.725
X163.83Y-88.265
X164.255Y-34.29
X164.255Y-36.83
X164.255Y-44.45
X164.255Y-46.99
X164.255Y-54.61
X164.255Y-57.15
X164.255Y-64.77
X164.255Y-67.31
X166.37Y-74.93
X166.37Y-77.47
X166.37Y-85.725
X166.37Y-88.265
X166.795Y-34.29
X166.795Y-36.83
X166.795Y-44.45
X166.795Y-46.99
X166.795Y-54.61
X166.795Y-57.15
X166.795Y-64.77
X166.795Y-67.31
X168.91Y-74.93
X168.91Y-77.47
X168.91Y-85.725
X168.91Y-88.265
X169.335Y-34.29
X169.335Y-36.83
X169.335Y-44.45
X169.335Y-46.99
X169.335Y-54.61
X169.335Y-57.15
X169.335Y-64.77
X169.335Y-67.31
X171.45Y-74.93
X171.45Y-77.47
X171.875Y-34.29
X171.875Y-36.83
X171.875Y-44.45
X171.875Y-46.99
X171.875Y-54.61
X171.875Y-57.15
X171.875Y-64.77
X171.875Y-67.31
X173.99Y-74.93
X173.99Y-77.47
X176.53Y-74.93
X176.53Y-77.47
X201.93Y-74.93
X201.93Y-77.47
X201.94Y-85.728
X201.94Y-88.268
X204.47Y-34.29
X204.47Y-36.83
X204.47Y-44.45
X204.47Y-46.99
X204.47Y-54.61
X204.47Y-57.15
X204.47Y-64.77
X204.47Y-67.31
X204.47Y-74.93
X204.47Y-77.47
X204.48Y-85.728
X204.48Y-88.268
X207.01Y-34.29
X207.01Y-36.83
X207.01Y-44.45
X207.01Y-46.99
X207.01Y-54.61
X207.01Y-57.15
X207.01Y-64.77
X207.01Y-67.31
X207.01Y-74.93
X207.01Y-77.47
X207.02Y-85.728
X207.02Y-88.268
X209.55Y-34.29
X209.55Y-36.83
X209.55Y-44.45
X209.55Y-46.99
X209.55Y-54.61
X209.55Y-57.15
X209.55Y-64.77
X209.55Y-67.31
X209.55Y-74.93
X209.55Y-77.47
X209.56Y-85.728
X209.56Y-88.268
X212.09Y-34.29
X212.09Y-36.83
X212.09Y-44.45
X212.09Y-46.99
X212.09Y-54.61
X212.09Y-57.15
X212.09Y-64.77
X212.09Y-67.31
X212.09Y-74.93
X212.09Y-77.47
X212.1Y-85.728
X212.1Y-88.268
X214.63Y-34.29
X214.63Y-36.83
X214.63Y-44.45
X214.63Y-46.99
X214.63Y-54.61
X214.63Y-57.15
X214.63Y-64.77
X214.63Y-67.31
X214.63Y-74.93
X214.63Y-77.47
X214.64Y-85.728
X214.64Y-88.268
X217.17Y-34.29
X217.17Y-36.83
X217.17Y-44.45
X217.17Y-46.99
X217.17Y-54.61
X217.17Y-57.15
X217.17Y-64.77
X217.17Y-67.31
X217.17Y-74.93
X217.17Y-77.47
X217.18Y-85.728
X217.18Y-88.268
X219.71Y-34.29
X219.71Y-36.83
X219.71Y-44.45
X219.71Y-46.99
X219.71Y-54.61
X219.71Y-57.15
X219.71Y-64.77
X219.71Y-67.31
X219.71Y-74.93
X219.71Y-77.47
X219.72Y-85.728
X219.72Y-88.268
X222.25Y-34.29
X222.25Y-36.83
X222.25Y-44.45
X222.25Y-46.99
X222.25Y-54.61
X222.25Y-57.15
X222.25Y-64.77
X222.25Y-67.31
X222.25Y-74.93
X222.25Y-77.47
X222.26Y-85.728
X222.26Y-88.268
X224.79Y-74.93
X224.79Y-77.47
X224.8Y-85.728
X224.8Y-88.268
X226.06Y-127.0
X227.33Y-74.93
X227.33Y-77.47
X228.6Y-127.0
X229.87Y-74.93
X229.87Y-77.47
X232.41Y-74.93
X232.41Y-77.47
T5
X152.03Y-121.62
X157.11Y-121.62
X163.03Y-121.62
X168.11Y-121.62
X215.138Y-121.62
X220.218Y-121.62
T6
X186.995Y-106.985
X197.0Y-110.0
T7
X143.993Y-119.913
X144.0Y-34.0
X187.0Y-34.0
X195.0Y-34.0
X236.0Y-34.0
X236.0Y-123.0
T4
G00X183.15Y-116.205
M15
G01X185.15Y-116.205
M16
G05
G00X183.15Y-122.205
M15
G01X185.15Y-122.205
M16
G05
G00X188.85Y-120.205
M15
G01X188.85Y-118.205
M16
G05
G00X195.85Y-116.205
M15
G01X197.85Y-116.205
M16
G05
G00X195.85Y-122.205
M15
G01X197.85Y-122.205
M16
G05
G00X201.55Y-120.205
M15
G01X201.55Y-118.205
M16
G05
T0
M30
