G04 #@! TF.GenerationSoftware,KiCad,Pcbnew,(5.1.9-0-10_14)*
G04 #@! TF.CreationDate,2021-08-01T14:36:09+09:00*
G04 #@! TF.ProjectId,ADAT-IO-x4,41444154-2d49-44f2-9d78-342e6b696361,rev?*
G04 #@! TF.SameCoordinates,Original*
G04 #@! TF.FileFunction,Paste,Top*
G04 #@! TF.FilePolarity,Positive*
%FSLAX46Y46*%
G04 Gerber Fmt 4.6, Leading zero omitted, Abs format (unit mm)*
G04 Created by KiCad (PCBNEW (5.1.9-0-10_14)) date 2021-08-01 14:36:09*
%MOMM*%
%LPD*%
G01*
G04 APERTURE LIST*
%ADD10R,1.300000X0.600000*%
%ADD11R,1.500000X1.300000*%
%ADD12R,1.500000X1.250000*%
%ADD13R,1.250000X1.500000*%
%ADD14R,0.900000X1.200000*%
%ADD15R,0.800000X0.900000*%
%ADD16R,1.300000X1.500000*%
%ADD17R,3.800000X2.200000*%
%ADD18R,1.500000X2.200000*%
%ADD19R,1.600000X0.300000*%
%ADD20R,0.300000X1.600000*%
%ADD21R,1.500000X0.600000*%
G04 APERTURE END LIST*
D10*
X142460000Y-106680000D03*
X144560000Y-105730000D03*
X144560000Y-107630000D03*
D11*
X158195000Y-114935000D03*
X155495000Y-114935000D03*
D12*
X205125000Y-109855000D03*
X207625000Y-109855000D03*
D13*
X146050000Y-64790000D03*
X146050000Y-67290000D03*
X147142200Y-51821400D03*
X147142200Y-49321400D03*
D12*
X147935000Y-114935000D03*
X145435000Y-114935000D03*
D13*
X185420000Y-99080000D03*
X185420000Y-101580000D03*
D12*
X160040000Y-111760000D03*
X162540000Y-111760000D03*
X153015000Y-114935000D03*
X150515000Y-114935000D03*
X219690000Y-114300000D03*
X217190000Y-114300000D03*
X200894000Y-103251000D03*
X198394000Y-103251000D03*
X234828400Y-105664000D03*
X232328400Y-105664000D03*
X205125000Y-112395000D03*
X207625000Y-112395000D03*
X167660000Y-114935000D03*
X170160000Y-114935000D03*
D13*
X205105000Y-117455000D03*
X205105000Y-114955000D03*
D12*
X162580000Y-114935000D03*
X165080000Y-114935000D03*
G36*
G01*
X175610000Y-128507500D02*
X175610000Y-128032500D01*
G75*
G02*
X175847500Y-127795000I237500J0D01*
G01*
X176422500Y-127795000D01*
G75*
G02*
X176660000Y-128032500I0J-237500D01*
G01*
X176660000Y-128507500D01*
G75*
G02*
X176422500Y-128745000I-237500J0D01*
G01*
X175847500Y-128745000D01*
G75*
G02*
X175610000Y-128507500I0J237500D01*
G01*
G37*
G36*
G01*
X173860000Y-128507500D02*
X173860000Y-128032500D01*
G75*
G02*
X174097500Y-127795000I237500J0D01*
G01*
X174672500Y-127795000D01*
G75*
G02*
X174910000Y-128032500I0J-237500D01*
G01*
X174910000Y-128507500D01*
G75*
G02*
X174672500Y-128745000I-237500J0D01*
G01*
X174097500Y-128745000D01*
G75*
G02*
X173860000Y-128507500I0J237500D01*
G01*
G37*
G36*
G01*
X234030000Y-128507500D02*
X234030000Y-128032500D01*
G75*
G02*
X234267500Y-127795000I237500J0D01*
G01*
X234842500Y-127795000D01*
G75*
G02*
X235080000Y-128032500I0J-237500D01*
G01*
X235080000Y-128507500D01*
G75*
G02*
X234842500Y-128745000I-237500J0D01*
G01*
X234267500Y-128745000D01*
G75*
G02*
X234030000Y-128507500I0J237500D01*
G01*
G37*
G36*
G01*
X232280000Y-128507500D02*
X232280000Y-128032500D01*
G75*
G02*
X232517500Y-127795000I237500J0D01*
G01*
X233092500Y-127795000D01*
G75*
G02*
X233330000Y-128032500I0J-237500D01*
G01*
X233330000Y-128507500D01*
G75*
G02*
X233092500Y-128745000I-237500J0D01*
G01*
X232517500Y-128745000D01*
G75*
G02*
X232280000Y-128507500I0J237500D01*
G01*
G37*
D14*
X235330000Y-95250000D03*
X232030000Y-95250000D03*
G36*
G01*
X140840000Y-128507500D02*
X140840000Y-128032500D01*
G75*
G02*
X141077500Y-127795000I237500J0D01*
G01*
X141652500Y-127795000D01*
G75*
G02*
X141890000Y-128032500I0J-237500D01*
G01*
X141890000Y-128507500D01*
G75*
G02*
X141652500Y-128745000I-237500J0D01*
G01*
X141077500Y-128745000D01*
G75*
G02*
X140840000Y-128507500I0J237500D01*
G01*
G37*
G36*
G01*
X142590000Y-128507500D02*
X142590000Y-128032500D01*
G75*
G02*
X142827500Y-127795000I237500J0D01*
G01*
X143402500Y-127795000D01*
G75*
G02*
X143640000Y-128032500I0J-237500D01*
G01*
X143640000Y-128507500D01*
G75*
G02*
X143402500Y-128745000I-237500J0D01*
G01*
X142827500Y-128745000D01*
G75*
G02*
X142590000Y-128507500I0J237500D01*
G01*
G37*
G36*
G01*
X145285000Y-128507500D02*
X145285000Y-128032500D01*
G75*
G02*
X145522500Y-127795000I237500J0D01*
G01*
X146097500Y-127795000D01*
G75*
G02*
X146335000Y-128032500I0J-237500D01*
G01*
X146335000Y-128507500D01*
G75*
G02*
X146097500Y-128745000I-237500J0D01*
G01*
X145522500Y-128745000D01*
G75*
G02*
X145285000Y-128507500I0J237500D01*
G01*
G37*
G36*
G01*
X147035000Y-128507500D02*
X147035000Y-128032500D01*
G75*
G02*
X147272500Y-127795000I237500J0D01*
G01*
X147847500Y-127795000D01*
G75*
G02*
X148085000Y-128032500I0J-237500D01*
G01*
X148085000Y-128507500D01*
G75*
G02*
X147847500Y-128745000I-237500J0D01*
G01*
X147272500Y-128745000D01*
G75*
G02*
X147035000Y-128507500I0J237500D01*
G01*
G37*
D15*
X206060000Y-104505000D03*
X207960000Y-104505000D03*
X207010000Y-102505000D03*
D11*
X192485000Y-113030000D03*
X189785000Y-113030000D03*
X189785000Y-99000000D03*
X192485000Y-99000000D03*
X184070000Y-112395000D03*
X186770000Y-112395000D03*
X213440000Y-114300000D03*
X210740000Y-114300000D03*
X178990000Y-112395000D03*
X181690000Y-112395000D03*
X210265000Y-117475000D03*
X207565000Y-117475000D03*
X176610000Y-125730000D03*
X173910000Y-125730000D03*
X226043500Y-121805700D03*
X228743500Y-121805700D03*
D16*
X196850000Y-59610000D03*
X196850000Y-62310000D03*
X229870000Y-61040000D03*
X229870000Y-58340000D03*
X196215000Y-67230000D03*
X196215000Y-69930000D03*
X229870000Y-69930000D03*
X229870000Y-67230000D03*
X196850000Y-38655000D03*
X196850000Y-41355000D03*
X229870000Y-41910000D03*
X229870000Y-39210000D03*
X196850000Y-49370000D03*
X196850000Y-52070000D03*
X229870000Y-52785000D03*
X229870000Y-50085000D03*
X194005200Y-91948000D03*
X194005200Y-94648000D03*
D11*
X213280000Y-100330000D03*
X215980000Y-100330000D03*
X215980000Y-102870000D03*
X213280000Y-102870000D03*
X213280000Y-105410000D03*
X215980000Y-105410000D03*
X232304600Y-100812600D03*
X235004600Y-100812600D03*
X213280000Y-107950000D03*
X215980000Y-107950000D03*
D16*
X203962000Y-103425000D03*
X203962000Y-106125000D03*
X234950000Y-91520000D03*
X234950000Y-88820000D03*
D11*
X215980000Y-110490000D03*
X213280000Y-110490000D03*
X144860000Y-100330000D03*
X142160000Y-100330000D03*
X142160000Y-110490000D03*
X144860000Y-110490000D03*
X142160000Y-102870000D03*
X144860000Y-102870000D03*
X162640000Y-109220000D03*
X159940000Y-109220000D03*
X159940000Y-106680000D03*
X162640000Y-106680000D03*
X162693340Y-101749860D03*
X159993340Y-101749860D03*
X159940000Y-104140000D03*
X162640000Y-104140000D03*
X144860000Y-97790000D03*
X142160000Y-97790000D03*
D16*
X186055000Y-93265000D03*
X186055000Y-95965000D03*
X188595000Y-95965000D03*
X188595000Y-93265000D03*
X183515000Y-95965000D03*
X183515000Y-93265000D03*
X180975000Y-93265000D03*
X180975000Y-95965000D03*
X165735000Y-93265000D03*
X165735000Y-95965000D03*
X168275000Y-93265000D03*
X168275000Y-95965000D03*
X170815000Y-93265000D03*
X170815000Y-95965000D03*
X173355000Y-95965000D03*
X173355000Y-93265000D03*
D11*
X147400000Y-125095000D03*
X144700000Y-125095000D03*
D16*
X175895000Y-93265000D03*
X175895000Y-95965000D03*
X178435000Y-95965000D03*
X178435000Y-93265000D03*
D11*
X179150000Y-82550000D03*
X176450000Y-82550000D03*
X182325000Y-68580000D03*
X179625000Y-68580000D03*
X182325000Y-63500000D03*
X179625000Y-63500000D03*
X182325000Y-66040000D03*
X179625000Y-66040000D03*
X182325000Y-60960000D03*
X179625000Y-60960000D03*
X182325000Y-58420000D03*
X179625000Y-58420000D03*
X179625000Y-55880000D03*
X182325000Y-55880000D03*
X179625000Y-53340000D03*
X182325000Y-53340000D03*
X182245000Y-50800000D03*
X179545000Y-50800000D03*
X179625000Y-48260000D03*
X182325000Y-48260000D03*
D17*
X175260000Y-122530000D03*
D18*
X177560000Y-116230000D03*
X175260000Y-116230000D03*
X172960000Y-116230000D03*
X205345000Y-120675000D03*
X207645000Y-120675000D03*
X209945000Y-120675000D03*
D17*
X207645000Y-126975000D03*
D19*
X197860000Y-95500000D03*
X197860000Y-96150000D03*
X197860000Y-96800000D03*
X197860000Y-97450000D03*
X197860000Y-98100000D03*
X197860000Y-98750000D03*
X197860000Y-99400000D03*
X197860000Y-100050000D03*
X197860000Y-100700000D03*
X197860000Y-101350000D03*
X203460000Y-101350000D03*
X203460000Y-100700000D03*
X203460000Y-100050000D03*
X203460000Y-99400000D03*
X203460000Y-98750000D03*
X203460000Y-98100000D03*
X203460000Y-97450000D03*
X203460000Y-96800000D03*
X203460000Y-96150000D03*
X203460000Y-95500000D03*
G36*
G01*
X229705000Y-105895000D02*
X229705000Y-106195000D01*
G75*
G02*
X229555000Y-106345000I-150000J0D01*
G01*
X227955000Y-106345000D01*
G75*
G02*
X227805000Y-106195000I0J150000D01*
G01*
X227805000Y-105895000D01*
G75*
G02*
X227955000Y-105745000I150000J0D01*
G01*
X229555000Y-105745000D01*
G75*
G02*
X229705000Y-105895000I0J-150000D01*
G01*
G37*
G36*
G01*
X229705000Y-104625000D02*
X229705000Y-104925000D01*
G75*
G02*
X229555000Y-105075000I-150000J0D01*
G01*
X227955000Y-105075000D01*
G75*
G02*
X227805000Y-104925000I0J150000D01*
G01*
X227805000Y-104625000D01*
G75*
G02*
X227955000Y-104475000I150000J0D01*
G01*
X229555000Y-104475000D01*
G75*
G02*
X229705000Y-104625000I0J-150000D01*
G01*
G37*
G36*
G01*
X229705000Y-103355000D02*
X229705000Y-103655000D01*
G75*
G02*
X229555000Y-103805000I-150000J0D01*
G01*
X227955000Y-103805000D01*
G75*
G02*
X227805000Y-103655000I0J150000D01*
G01*
X227805000Y-103355000D01*
G75*
G02*
X227955000Y-103205000I150000J0D01*
G01*
X229555000Y-103205000D01*
G75*
G02*
X229705000Y-103355000I0J-150000D01*
G01*
G37*
G36*
G01*
X229705000Y-102085000D02*
X229705000Y-102385000D01*
G75*
G02*
X229555000Y-102535000I-150000J0D01*
G01*
X227955000Y-102535000D01*
G75*
G02*
X227805000Y-102385000I0J150000D01*
G01*
X227805000Y-102085000D01*
G75*
G02*
X227955000Y-101935000I150000J0D01*
G01*
X229555000Y-101935000D01*
G75*
G02*
X229705000Y-102085000I0J-150000D01*
G01*
G37*
G36*
G01*
X229705000Y-100815000D02*
X229705000Y-101115000D01*
G75*
G02*
X229555000Y-101265000I-150000J0D01*
G01*
X227955000Y-101265000D01*
G75*
G02*
X227805000Y-101115000I0J150000D01*
G01*
X227805000Y-100815000D01*
G75*
G02*
X227955000Y-100665000I150000J0D01*
G01*
X229555000Y-100665000D01*
G75*
G02*
X229705000Y-100815000I0J-150000D01*
G01*
G37*
G36*
G01*
X229705000Y-99545000D02*
X229705000Y-99845000D01*
G75*
G02*
X229555000Y-99995000I-150000J0D01*
G01*
X227955000Y-99995000D01*
G75*
G02*
X227805000Y-99845000I0J150000D01*
G01*
X227805000Y-99545000D01*
G75*
G02*
X227955000Y-99395000I150000J0D01*
G01*
X229555000Y-99395000D01*
G75*
G02*
X229705000Y-99545000I0J-150000D01*
G01*
G37*
G36*
G01*
X229705000Y-98275000D02*
X229705000Y-98575000D01*
G75*
G02*
X229555000Y-98725000I-150000J0D01*
G01*
X227955000Y-98725000D01*
G75*
G02*
X227805000Y-98575000I0J150000D01*
G01*
X227805000Y-98275000D01*
G75*
G02*
X227955000Y-98125000I150000J0D01*
G01*
X229555000Y-98125000D01*
G75*
G02*
X229705000Y-98275000I0J-150000D01*
G01*
G37*
G36*
G01*
X229705000Y-97005000D02*
X229705000Y-97305000D01*
G75*
G02*
X229555000Y-97455000I-150000J0D01*
G01*
X227955000Y-97455000D01*
G75*
G02*
X227805000Y-97305000I0J150000D01*
G01*
X227805000Y-97005000D01*
G75*
G02*
X227955000Y-96855000I150000J0D01*
G01*
X229555000Y-96855000D01*
G75*
G02*
X229705000Y-97005000I0J-150000D01*
G01*
G37*
G36*
G01*
X229705000Y-95735000D02*
X229705000Y-96035000D01*
G75*
G02*
X229555000Y-96185000I-150000J0D01*
G01*
X227955000Y-96185000D01*
G75*
G02*
X227805000Y-96035000I0J150000D01*
G01*
X227805000Y-95735000D01*
G75*
G02*
X227955000Y-95585000I150000J0D01*
G01*
X229555000Y-95585000D01*
G75*
G02*
X229705000Y-95735000I0J-150000D01*
G01*
G37*
G36*
G01*
X229705000Y-94465000D02*
X229705000Y-94765000D01*
G75*
G02*
X229555000Y-94915000I-150000J0D01*
G01*
X227955000Y-94915000D01*
G75*
G02*
X227805000Y-94765000I0J150000D01*
G01*
X227805000Y-94465000D01*
G75*
G02*
X227955000Y-94315000I150000J0D01*
G01*
X229555000Y-94315000D01*
G75*
G02*
X229705000Y-94465000I0J-150000D01*
G01*
G37*
G36*
G01*
X220505000Y-94465000D02*
X220505000Y-94765000D01*
G75*
G02*
X220355000Y-94915000I-150000J0D01*
G01*
X218755000Y-94915000D01*
G75*
G02*
X218605000Y-94765000I0J150000D01*
G01*
X218605000Y-94465000D01*
G75*
G02*
X218755000Y-94315000I150000J0D01*
G01*
X220355000Y-94315000D01*
G75*
G02*
X220505000Y-94465000I0J-150000D01*
G01*
G37*
G36*
G01*
X220505000Y-95735000D02*
X220505000Y-96035000D01*
G75*
G02*
X220355000Y-96185000I-150000J0D01*
G01*
X218755000Y-96185000D01*
G75*
G02*
X218605000Y-96035000I0J150000D01*
G01*
X218605000Y-95735000D01*
G75*
G02*
X218755000Y-95585000I150000J0D01*
G01*
X220355000Y-95585000D01*
G75*
G02*
X220505000Y-95735000I0J-150000D01*
G01*
G37*
G36*
G01*
X220505000Y-97005000D02*
X220505000Y-97305000D01*
G75*
G02*
X220355000Y-97455000I-150000J0D01*
G01*
X218755000Y-97455000D01*
G75*
G02*
X218605000Y-97305000I0J150000D01*
G01*
X218605000Y-97005000D01*
G75*
G02*
X218755000Y-96855000I150000J0D01*
G01*
X220355000Y-96855000D01*
G75*
G02*
X220505000Y-97005000I0J-150000D01*
G01*
G37*
G36*
G01*
X220505000Y-98275000D02*
X220505000Y-98575000D01*
G75*
G02*
X220355000Y-98725000I-150000J0D01*
G01*
X218755000Y-98725000D01*
G75*
G02*
X218605000Y-98575000I0J150000D01*
G01*
X218605000Y-98275000D01*
G75*
G02*
X218755000Y-98125000I150000J0D01*
G01*
X220355000Y-98125000D01*
G75*
G02*
X220505000Y-98275000I0J-150000D01*
G01*
G37*
G36*
G01*
X220505000Y-99545000D02*
X220505000Y-99845000D01*
G75*
G02*
X220355000Y-99995000I-150000J0D01*
G01*
X218755000Y-99995000D01*
G75*
G02*
X218605000Y-99845000I0J150000D01*
G01*
X218605000Y-99545000D01*
G75*
G02*
X218755000Y-99395000I150000J0D01*
G01*
X220355000Y-99395000D01*
G75*
G02*
X220505000Y-99545000I0J-150000D01*
G01*
G37*
G36*
G01*
X220505000Y-100815000D02*
X220505000Y-101115000D01*
G75*
G02*
X220355000Y-101265000I-150000J0D01*
G01*
X218755000Y-101265000D01*
G75*
G02*
X218605000Y-101115000I0J150000D01*
G01*
X218605000Y-100815000D01*
G75*
G02*
X218755000Y-100665000I150000J0D01*
G01*
X220355000Y-100665000D01*
G75*
G02*
X220505000Y-100815000I0J-150000D01*
G01*
G37*
G36*
G01*
X220505000Y-102085000D02*
X220505000Y-102385000D01*
G75*
G02*
X220355000Y-102535000I-150000J0D01*
G01*
X218755000Y-102535000D01*
G75*
G02*
X218605000Y-102385000I0J150000D01*
G01*
X218605000Y-102085000D01*
G75*
G02*
X218755000Y-101935000I150000J0D01*
G01*
X220355000Y-101935000D01*
G75*
G02*
X220505000Y-102085000I0J-150000D01*
G01*
G37*
G36*
G01*
X220505000Y-103355000D02*
X220505000Y-103655000D01*
G75*
G02*
X220355000Y-103805000I-150000J0D01*
G01*
X218755000Y-103805000D01*
G75*
G02*
X218605000Y-103655000I0J150000D01*
G01*
X218605000Y-103355000D01*
G75*
G02*
X218755000Y-103205000I150000J0D01*
G01*
X220355000Y-103205000D01*
G75*
G02*
X220505000Y-103355000I0J-150000D01*
G01*
G37*
G36*
G01*
X220505000Y-104625000D02*
X220505000Y-104925000D01*
G75*
G02*
X220355000Y-105075000I-150000J0D01*
G01*
X218755000Y-105075000D01*
G75*
G02*
X218605000Y-104925000I0J150000D01*
G01*
X218605000Y-104625000D01*
G75*
G02*
X218755000Y-104475000I150000J0D01*
G01*
X220355000Y-104475000D01*
G75*
G02*
X220505000Y-104625000I0J-150000D01*
G01*
G37*
G36*
G01*
X220505000Y-105895000D02*
X220505000Y-106195000D01*
G75*
G02*
X220355000Y-106345000I-150000J0D01*
G01*
X218755000Y-106345000D01*
G75*
G02*
X218605000Y-106195000I0J150000D01*
G01*
X218605000Y-105895000D01*
G75*
G02*
X218755000Y-105745000I150000J0D01*
G01*
X220355000Y-105745000D01*
G75*
G02*
X220505000Y-105895000I0J-150000D01*
G01*
G37*
G36*
G01*
X158050000Y-111622500D02*
X158050000Y-111897500D01*
G75*
G02*
X157912500Y-112035000I-137500J0D01*
G01*
X156187500Y-112035000D01*
G75*
G02*
X156050000Y-111897500I0J137500D01*
G01*
X156050000Y-111622500D01*
G75*
G02*
X156187500Y-111485000I137500J0D01*
G01*
X157912500Y-111485000D01*
G75*
G02*
X158050000Y-111622500I0J-137500D01*
G01*
G37*
G36*
G01*
X158050000Y-110352500D02*
X158050000Y-110627500D01*
G75*
G02*
X157912500Y-110765000I-137500J0D01*
G01*
X156187500Y-110765000D01*
G75*
G02*
X156050000Y-110627500I0J137500D01*
G01*
X156050000Y-110352500D01*
G75*
G02*
X156187500Y-110215000I137500J0D01*
G01*
X157912500Y-110215000D01*
G75*
G02*
X158050000Y-110352500I0J-137500D01*
G01*
G37*
G36*
G01*
X158050000Y-109082500D02*
X158050000Y-109357500D01*
G75*
G02*
X157912500Y-109495000I-137500J0D01*
G01*
X156187500Y-109495000D01*
G75*
G02*
X156050000Y-109357500I0J137500D01*
G01*
X156050000Y-109082500D01*
G75*
G02*
X156187500Y-108945000I137500J0D01*
G01*
X157912500Y-108945000D01*
G75*
G02*
X158050000Y-109082500I0J-137500D01*
G01*
G37*
G36*
G01*
X158050000Y-107812500D02*
X158050000Y-108087500D01*
G75*
G02*
X157912500Y-108225000I-137500J0D01*
G01*
X156187500Y-108225000D01*
G75*
G02*
X156050000Y-108087500I0J137500D01*
G01*
X156050000Y-107812500D01*
G75*
G02*
X156187500Y-107675000I137500J0D01*
G01*
X157912500Y-107675000D01*
G75*
G02*
X158050000Y-107812500I0J-137500D01*
G01*
G37*
G36*
G01*
X158050000Y-106542500D02*
X158050000Y-106817500D01*
G75*
G02*
X157912500Y-106955000I-137500J0D01*
G01*
X156187500Y-106955000D01*
G75*
G02*
X156050000Y-106817500I0J137500D01*
G01*
X156050000Y-106542500D01*
G75*
G02*
X156187500Y-106405000I137500J0D01*
G01*
X157912500Y-106405000D01*
G75*
G02*
X158050000Y-106542500I0J-137500D01*
G01*
G37*
G36*
G01*
X158050000Y-105272500D02*
X158050000Y-105547500D01*
G75*
G02*
X157912500Y-105685000I-137500J0D01*
G01*
X156187500Y-105685000D01*
G75*
G02*
X156050000Y-105547500I0J137500D01*
G01*
X156050000Y-105272500D01*
G75*
G02*
X156187500Y-105135000I137500J0D01*
G01*
X157912500Y-105135000D01*
G75*
G02*
X158050000Y-105272500I0J-137500D01*
G01*
G37*
G36*
G01*
X158050000Y-104002500D02*
X158050000Y-104277500D01*
G75*
G02*
X157912500Y-104415000I-137500J0D01*
G01*
X156187500Y-104415000D01*
G75*
G02*
X156050000Y-104277500I0J137500D01*
G01*
X156050000Y-104002500D01*
G75*
G02*
X156187500Y-103865000I137500J0D01*
G01*
X157912500Y-103865000D01*
G75*
G02*
X158050000Y-104002500I0J-137500D01*
G01*
G37*
G36*
G01*
X158050000Y-102732500D02*
X158050000Y-103007500D01*
G75*
G02*
X157912500Y-103145000I-137500J0D01*
G01*
X156187500Y-103145000D01*
G75*
G02*
X156050000Y-103007500I0J137500D01*
G01*
X156050000Y-102732500D01*
G75*
G02*
X156187500Y-102595000I137500J0D01*
G01*
X157912500Y-102595000D01*
G75*
G02*
X158050000Y-102732500I0J-137500D01*
G01*
G37*
G36*
G01*
X158050000Y-101462500D02*
X158050000Y-101737500D01*
G75*
G02*
X157912500Y-101875000I-137500J0D01*
G01*
X156187500Y-101875000D01*
G75*
G02*
X156050000Y-101737500I0J137500D01*
G01*
X156050000Y-101462500D01*
G75*
G02*
X156187500Y-101325000I137500J0D01*
G01*
X157912500Y-101325000D01*
G75*
G02*
X158050000Y-101462500I0J-137500D01*
G01*
G37*
G36*
G01*
X158050000Y-100192500D02*
X158050000Y-100467500D01*
G75*
G02*
X157912500Y-100605000I-137500J0D01*
G01*
X156187500Y-100605000D01*
G75*
G02*
X156050000Y-100467500I0J137500D01*
G01*
X156050000Y-100192500D01*
G75*
G02*
X156187500Y-100055000I137500J0D01*
G01*
X157912500Y-100055000D01*
G75*
G02*
X158050000Y-100192500I0J-137500D01*
G01*
G37*
G36*
G01*
X158050000Y-98922500D02*
X158050000Y-99197500D01*
G75*
G02*
X157912500Y-99335000I-137500J0D01*
G01*
X156187500Y-99335000D01*
G75*
G02*
X156050000Y-99197500I0J137500D01*
G01*
X156050000Y-98922500D01*
G75*
G02*
X156187500Y-98785000I137500J0D01*
G01*
X157912500Y-98785000D01*
G75*
G02*
X158050000Y-98922500I0J-137500D01*
G01*
G37*
G36*
G01*
X158050000Y-97652500D02*
X158050000Y-97927500D01*
G75*
G02*
X157912500Y-98065000I-137500J0D01*
G01*
X156187500Y-98065000D01*
G75*
G02*
X156050000Y-97927500I0J137500D01*
G01*
X156050000Y-97652500D01*
G75*
G02*
X156187500Y-97515000I137500J0D01*
G01*
X157912500Y-97515000D01*
G75*
G02*
X158050000Y-97652500I0J-137500D01*
G01*
G37*
G36*
G01*
X148750000Y-97652500D02*
X148750000Y-97927500D01*
G75*
G02*
X148612500Y-98065000I-137500J0D01*
G01*
X146887500Y-98065000D01*
G75*
G02*
X146750000Y-97927500I0J137500D01*
G01*
X146750000Y-97652500D01*
G75*
G02*
X146887500Y-97515000I137500J0D01*
G01*
X148612500Y-97515000D01*
G75*
G02*
X148750000Y-97652500I0J-137500D01*
G01*
G37*
G36*
G01*
X148750000Y-98922500D02*
X148750000Y-99197500D01*
G75*
G02*
X148612500Y-99335000I-137500J0D01*
G01*
X146887500Y-99335000D01*
G75*
G02*
X146750000Y-99197500I0J137500D01*
G01*
X146750000Y-98922500D01*
G75*
G02*
X146887500Y-98785000I137500J0D01*
G01*
X148612500Y-98785000D01*
G75*
G02*
X148750000Y-98922500I0J-137500D01*
G01*
G37*
G36*
G01*
X148750000Y-100192500D02*
X148750000Y-100467500D01*
G75*
G02*
X148612500Y-100605000I-137500J0D01*
G01*
X146887500Y-100605000D01*
G75*
G02*
X146750000Y-100467500I0J137500D01*
G01*
X146750000Y-100192500D01*
G75*
G02*
X146887500Y-100055000I137500J0D01*
G01*
X148612500Y-100055000D01*
G75*
G02*
X148750000Y-100192500I0J-137500D01*
G01*
G37*
G36*
G01*
X148750000Y-101462500D02*
X148750000Y-101737500D01*
G75*
G02*
X148612500Y-101875000I-137500J0D01*
G01*
X146887500Y-101875000D01*
G75*
G02*
X146750000Y-101737500I0J137500D01*
G01*
X146750000Y-101462500D01*
G75*
G02*
X146887500Y-101325000I137500J0D01*
G01*
X148612500Y-101325000D01*
G75*
G02*
X148750000Y-101462500I0J-137500D01*
G01*
G37*
G36*
G01*
X148750000Y-102732500D02*
X148750000Y-103007500D01*
G75*
G02*
X148612500Y-103145000I-137500J0D01*
G01*
X146887500Y-103145000D01*
G75*
G02*
X146750000Y-103007500I0J137500D01*
G01*
X146750000Y-102732500D01*
G75*
G02*
X146887500Y-102595000I137500J0D01*
G01*
X148612500Y-102595000D01*
G75*
G02*
X148750000Y-102732500I0J-137500D01*
G01*
G37*
G36*
G01*
X148750000Y-104002500D02*
X148750000Y-104277500D01*
G75*
G02*
X148612500Y-104415000I-137500J0D01*
G01*
X146887500Y-104415000D01*
G75*
G02*
X146750000Y-104277500I0J137500D01*
G01*
X146750000Y-104002500D01*
G75*
G02*
X146887500Y-103865000I137500J0D01*
G01*
X148612500Y-103865000D01*
G75*
G02*
X148750000Y-104002500I0J-137500D01*
G01*
G37*
G36*
G01*
X148750000Y-105272500D02*
X148750000Y-105547500D01*
G75*
G02*
X148612500Y-105685000I-137500J0D01*
G01*
X146887500Y-105685000D01*
G75*
G02*
X146750000Y-105547500I0J137500D01*
G01*
X146750000Y-105272500D01*
G75*
G02*
X146887500Y-105135000I137500J0D01*
G01*
X148612500Y-105135000D01*
G75*
G02*
X148750000Y-105272500I0J-137500D01*
G01*
G37*
G36*
G01*
X148750000Y-106542500D02*
X148750000Y-106817500D01*
G75*
G02*
X148612500Y-106955000I-137500J0D01*
G01*
X146887500Y-106955000D01*
G75*
G02*
X146750000Y-106817500I0J137500D01*
G01*
X146750000Y-106542500D01*
G75*
G02*
X146887500Y-106405000I137500J0D01*
G01*
X148612500Y-106405000D01*
G75*
G02*
X148750000Y-106542500I0J-137500D01*
G01*
G37*
G36*
G01*
X148750000Y-107812500D02*
X148750000Y-108087500D01*
G75*
G02*
X148612500Y-108225000I-137500J0D01*
G01*
X146887500Y-108225000D01*
G75*
G02*
X146750000Y-108087500I0J137500D01*
G01*
X146750000Y-107812500D01*
G75*
G02*
X146887500Y-107675000I137500J0D01*
G01*
X148612500Y-107675000D01*
G75*
G02*
X148750000Y-107812500I0J-137500D01*
G01*
G37*
G36*
G01*
X148750000Y-109082500D02*
X148750000Y-109357500D01*
G75*
G02*
X148612500Y-109495000I-137500J0D01*
G01*
X146887500Y-109495000D01*
G75*
G02*
X146750000Y-109357500I0J137500D01*
G01*
X146750000Y-109082500D01*
G75*
G02*
X146887500Y-108945000I137500J0D01*
G01*
X148612500Y-108945000D01*
G75*
G02*
X148750000Y-109082500I0J-137500D01*
G01*
G37*
G36*
G01*
X148750000Y-110352500D02*
X148750000Y-110627500D01*
G75*
G02*
X148612500Y-110765000I-137500J0D01*
G01*
X146887500Y-110765000D01*
G75*
G02*
X146750000Y-110627500I0J137500D01*
G01*
X146750000Y-110352500D01*
G75*
G02*
X146887500Y-110215000I137500J0D01*
G01*
X148612500Y-110215000D01*
G75*
G02*
X148750000Y-110352500I0J-137500D01*
G01*
G37*
G36*
G01*
X148750000Y-111622500D02*
X148750000Y-111897500D01*
G75*
G02*
X148612500Y-112035000I-137500J0D01*
G01*
X146887500Y-112035000D01*
G75*
G02*
X146750000Y-111897500I0J137500D01*
G01*
X146750000Y-111622500D01*
G75*
G02*
X146887500Y-111485000I137500J0D01*
G01*
X148612500Y-111485000D01*
G75*
G02*
X148750000Y-111622500I0J-137500D01*
G01*
G37*
D20*
X176145000Y-100705000D03*
X176795000Y-100705000D03*
X177445000Y-100705000D03*
X178095000Y-100705000D03*
X178745000Y-100705000D03*
X179395000Y-100705000D03*
X180045000Y-100705000D03*
X180695000Y-100705000D03*
X181345000Y-100705000D03*
X181995000Y-100705000D03*
X181995000Y-106305000D03*
X181345000Y-106305000D03*
X180695000Y-106305000D03*
X180045000Y-106305000D03*
X179395000Y-106305000D03*
X178745000Y-106305000D03*
X178095000Y-106305000D03*
X177445000Y-106305000D03*
X176795000Y-106305000D03*
X176145000Y-106305000D03*
D11*
X144860000Y-93345000D03*
X142160000Y-93345000D03*
D21*
X165575000Y-103505000D03*
X165575000Y-104775000D03*
X165575000Y-106045000D03*
X165575000Y-107315000D03*
X165575000Y-108585000D03*
X165575000Y-109855000D03*
X165575000Y-111125000D03*
X170975000Y-111125000D03*
X170975000Y-109855000D03*
X170975000Y-108585000D03*
X170975000Y-107315000D03*
X170975000Y-106045000D03*
X170975000Y-104775000D03*
X170975000Y-103505000D03*
D11*
X176450000Y-87630000D03*
X179150000Y-87630000D03*
X176450000Y-85090000D03*
X179150000Y-85090000D03*
D12*
X174010000Y-113030000D03*
X176510000Y-113030000D03*
X234930000Y-98425000D03*
X232430000Y-98425000D03*
D16*
X163195000Y-95965000D03*
X163195000Y-93265000D03*
D13*
X231394000Y-88793000D03*
X231394000Y-91293000D03*
D14*
X206477600Y-100406200D03*
X209777600Y-100406200D03*
D16*
X198323200Y-69930000D03*
X198323200Y-67230000D03*
D11*
X234953800Y-103098600D03*
X232253800Y-103098600D03*
X212600000Y-93250000D03*
X209900000Y-93250000D03*
M02*
